;Layer: Drill PTH
;EasyEDA v6.3.39, 2020-04-27T13:29:51-10:00
;0e468c40523046efa6fe7ed36a0295c7,a4d28be01f944deba2cf7c63a1f3ff09,10
;Gerber Generator version 0.2
M48
METRIC,LZ,000.000
;Holesize 1 = 0.310 METRIC
T01C0.310
;Holesize 2 = 0.915 METRIC
T02C0.915
;Holesize 3 = 1.000 METRIC
T03C1.000
;Holesize 4 = 1.143 METRIC
T04C1.143
;Holesize 5 = 1.200 METRIC
T05C1.200
;Holesize 6 = 1.301 METRIC
T06C1.301
;Holesize 7 = 1.403 METRIC
T07C1.403
;Holesize 8 = 1.600 METRIC
T08C1.600
;Holesize 9 = 2.184 METRIC
T09C2.184
;Holesize 10 = 3.000 METRIC
T10C3.000
%
G05
G90
T01
X+056515Y+022098
X+048006Y+011811
X+056896Y+009017
X+073332Y+017437
X+050586Y+019535
X+102616Y+029464
X+121158Y+029464
X+097028Y+019812
X+062120Y+015687
X+043561Y+029718
X+083185Y+041021
X+085471Y+031496
T02
X+135952Y+043942
X+133952Y+043942
X+131953Y+043942
X+129953Y+043942
X+127953Y+043942
X+088392Y+005588
X+090932Y+005588
X+093472Y+005588
X+096012Y+005588
X+098552Y+005588
X+101092Y+005588
X+103632Y+005588
X+106172Y+005588
X+064643Y+041402
X+064643Y+038862
X+064643Y+036322
X+064643Y+033782
X+064643Y+031242
X+064643Y+028702
X+064643Y+026162
X+064643Y+023622
X+064643Y+021082
X+064643Y+018542
X+064643Y+016002
X+064643Y+013462
X+064643Y+010922
X+064643Y+008382
X+064643Y+005842
X+079883Y+005842
X+079883Y+008382
X+079883Y+010922
X+079883Y+013462
X+079883Y+016002
X+079883Y+018542
X+079883Y+021082
X+079883Y+023622
X+079883Y+026162
X+079883Y+028702
X+079883Y+031242
X+079883Y+033782
X+079883Y+036322
X+079883Y+038862
X+079883Y+041402
T03
X+008244Y+011938G85X+010043Y+011938
X+002921Y+016520G85X+002921Y+014721
X+008244Y+019304G85X+010043Y+019304
T04
X+088392Y+033528
X+090932Y+033528
X+093345Y+033528
X+096012Y+033528
X+106045Y+019304
X+088519Y+019304
X+098425Y+033528
X+101092Y+033528
X+103378Y+033528
X+106299Y+033528
T05
X+018669Y+044704
X+021209Y+044704
X+117983Y+044831
X+120523Y+044831
T06
X+135341Y+027643
X+130342Y+031142
X+135341Y+034643
X+130342Y+038142
T07
X+131346Y+016647
X+134845Y+011547
X+003584Y+031760
X+007083Y+026660
T08
X+036322Y+043561
X+028322Y+043688
T09
X+089662Y+035052
X+094742Y+035052
X+099695Y+035052
X+104902Y+034925
T10
X+089281Y+028321
X+105029Y+012573
M30
