G04 Layer: BottomSolderMaskLayer*
G04 EasyEDA v6.3.39, 2020-04-27T13:29:51-10:00*
G04 0e468c40523046efa6fe7ed36a0295c7,a4d28be01f944deba2cf7c63a1f3ff09,10*
G04 Gerber Generator version 0.2*
G04 Scale: 100 percent, Rotated: No, Reflected: No *
G04 Dimensions in millimeters *
G04 leading zeros omitted , absolute positions ,3 integer and 3 decimal *
%FSLAX33Y33*%
%MOMM*%
G90*
G71D02*

%ADD29C,2.003196*%
%ADD30C,0.813206*%
%ADD32C,2.203196*%
%ADD35C,1.727200*%
%ADD36C,2.703195*%
%ADD39C,3.403194*%
%ADD40C,1.703197*%
%ADD41C,1.803197*%

%LPD*%
G54D29*
G01X8194Y11938D02*
G01X10094Y11938D01*
G01X2921Y16570D02*
G01X2921Y14670D01*
G01X8194Y19304D02*
G01X10094Y19304D01*
G54D30*
G01X56515Y22098D03*
G01X48006Y11811D03*
G01X56896Y9017D03*
G36*
G01X130243Y15544D02*
G01X130243Y17749D01*
G01X132448Y17749D01*
G01X132448Y15544D01*
G01X130243Y15544D01*
G37*
G54D32*
G01X134846Y11547D03*
G36*
G01X2481Y30657D02*
G01X2481Y32862D01*
G01X4686Y32862D01*
G01X4686Y30657D01*
G01X2481Y30657D01*
G37*
G01X7084Y26660D03*
G36*
G01X135089Y43078D02*
G01X135089Y44805D01*
G01X136817Y44805D01*
G01X136817Y43078D01*
G01X135089Y43078D01*
G37*
G54D35*
G01X133952Y43942D03*
G01X131953Y43942D03*
G01X129953Y43942D03*
G01X127953Y43942D03*
G54D36*
G01X36322Y43561D03*
G01X28322Y43688D03*
G54D35*
G01X88392Y5588D03*
G01X90932Y5588D03*
G01X93472Y5588D03*
G01X96012Y5588D03*
G01X98552Y5588D03*
G01X101092Y5588D03*
G01X103632Y5588D03*
G01X106172Y5588D03*
G36*
G01X87810Y33200D02*
G01X87810Y36903D01*
G01X91513Y36903D01*
G01X91513Y33200D01*
G01X87810Y33200D01*
G37*
G36*
G01X87541Y32677D02*
G01X87541Y34378D01*
G01X89242Y34378D01*
G01X89242Y32677D01*
G01X87541Y32677D01*
G37*
G36*
G01X90081Y32677D02*
G01X90081Y34378D01*
G01X91782Y34378D01*
G01X91782Y32677D01*
G01X90081Y32677D01*
G37*
G36*
G01X92890Y33200D02*
G01X92890Y36903D01*
G01X96593Y36903D01*
G01X96593Y33200D01*
G01X92890Y33200D01*
G37*
G36*
G01X92494Y32677D02*
G01X92494Y34378D01*
G01X94195Y34378D01*
G01X94195Y32677D01*
G01X92494Y32677D01*
G37*
G36*
G01X95161Y32677D02*
G01X95161Y34378D01*
G01X96862Y34378D01*
G01X96862Y32677D01*
G01X95161Y32677D01*
G37*
G54D39*
G01X89281Y28321D03*
G01X105029Y12573D03*
G54D40*
G01X106045Y19304D03*
G01X88519Y19304D03*
G36*
G01X97843Y33200D02*
G01X97843Y36903D01*
G01X101546Y36903D01*
G01X101546Y33200D01*
G01X97843Y33200D01*
G37*
G36*
G01X103050Y33073D02*
G01X103050Y36776D01*
G01X106753Y36776D01*
G01X106753Y33073D01*
G01X103050Y33073D01*
G37*
G36*
G01X97574Y32677D02*
G01X97574Y34378D01*
G01X99275Y34378D01*
G01X99275Y32677D01*
G01X97574Y32677D01*
G37*
G36*
G01X100241Y32677D02*
G01X100241Y34378D01*
G01X101942Y34378D01*
G01X101942Y32677D01*
G01X100241Y32677D01*
G37*
G36*
G01X102527Y32677D02*
G01X102527Y34378D01*
G01X104228Y34378D01*
G01X104228Y32677D01*
G01X102527Y32677D01*
G37*
G36*
G01X105448Y32677D02*
G01X105448Y34378D01*
G01X107149Y34378D01*
G01X107149Y32677D01*
G01X105448Y32677D01*
G37*
G54D29*
G01X18669Y44704D03*
G01X21209Y44704D03*
G36*
G01X134241Y26540D02*
G01X134241Y28745D01*
G01X136443Y28745D01*
G01X136443Y26540D01*
G01X134241Y26540D01*
G37*
G54D32*
G01X130342Y31142D03*
G01X135342Y34643D03*
G01X130342Y38142D03*
G54D35*
G01X64643Y41402D03*
G01X64643Y38862D03*
G01X64643Y36322D03*
G01X64643Y33782D03*
G01X64643Y31242D03*
G01X64643Y28702D03*
G01X64643Y26162D03*
G01X64643Y23622D03*
G01X64643Y21082D03*
G01X64643Y18542D03*
G01X64643Y16002D03*
G01X64643Y13462D03*
G01X64643Y10922D03*
G01X64643Y8382D03*
G01X64643Y5842D03*
G01X79883Y5842D03*
G01X79883Y8382D03*
G01X79883Y10922D03*
G01X79883Y13462D03*
G01X79883Y16002D03*
G01X79883Y18542D03*
G01X79883Y21082D03*
G01X79883Y23622D03*
G01X79883Y26162D03*
G01X79883Y28702D03*
G01X79883Y31242D03*
G01X79883Y33782D03*
G01X79883Y36322D03*
G01X79883Y38862D03*
G01X79883Y41402D03*
G54D41*
G01X117983Y44831D03*
G01X120523Y44831D03*
M00*
M02*
