G04 Layer: TopSilkLayer*
G04 EasyEDA v6.3.39, 2020-04-24T10:39:31-10:00*
G04 0f25efb224964ab9abe88dfcb523e386,a4d28be01f944deba2cf7c63a1f3ff09,10*
G04 Gerber Generator version 0.2*
G04 Scale: 100 percent, Rotated: No, Reflected: No *
G04 Dimensions in millimeters *
G04 leading zeros omitted , absolute positions ,3 integer and 3 decimal *
%FSLAX33Y33*%
%MOMM*%
G90*
G71D02*

%ADD10C,0.254000*%
%ADD22C,0.100000*%
%ADD23C,0.075006*%
%ADD24C,0.152400*%

%LPD*%

%LPD*%
G36*
G01X42845Y10779D02*
G01X42818Y10780D01*
G01X42793Y10779D01*
G01X42770Y10774D01*
G01X42747Y10766D01*
G01X42724Y10755D01*
G01X42700Y10742D01*
G01X42675Y10727D01*
G01X42648Y10709D01*
G01X42618Y10690D01*
G01X42585Y10668D01*
G01X42538Y10639D01*
G01X42480Y10605D01*
G01X42415Y10567D01*
G01X42345Y10526D01*
G01X42272Y10484D01*
G01X42197Y10442D01*
G01X42124Y10401D01*
G01X42054Y10362D01*
G01X42018Y10342D01*
G01X41975Y10318D01*
G01X41928Y10291D01*
G01X41875Y10262D01*
G01X41819Y10230D01*
G01X41758Y10196D01*
G01X41695Y10160D01*
G01X41629Y10122D01*
G01X41561Y10083D01*
G01X41491Y10043D01*
G01X41420Y10002D01*
G01X41348Y9960D01*
G01X41276Y9919D01*
G01X41205Y9877D01*
G01X41134Y9836D01*
G01X41065Y9796D01*
G01X40401Y9409D01*
G01X40401Y8934D01*
G01X40400Y8460D01*
G01X40502Y8551D01*
G01X40552Y8593D01*
G01X40602Y8631D01*
G01X40652Y8665D01*
G01X40702Y8695D01*
G01X40753Y8720D01*
G01X40803Y8742D01*
G01X40853Y8758D01*
G01X40903Y8771D01*
G01X40953Y8779D01*
G01X41003Y8783D01*
G01X41052Y8783D01*
G01X41101Y8778D01*
G01X41150Y8770D01*
G01X41198Y8756D01*
G01X41246Y8739D01*
G01X41293Y8718D01*
G01X41339Y8692D01*
G01X41386Y8661D01*
G01X41431Y8627D01*
G01X41475Y8588D01*
G01X41510Y8557D01*
G01X41547Y8529D01*
G01X41585Y8502D01*
G01X41625Y8477D01*
G01X41666Y8454D01*
G01X41709Y8433D01*
G01X41753Y8415D01*
G01X41798Y8398D01*
G01X41845Y8383D01*
G01X41894Y8371D01*
G01X41943Y8361D01*
G01X41994Y8352D01*
G01X42046Y8346D01*
G01X42099Y8341D01*
G01X42154Y8339D01*
G01X42210Y8339D01*
G01X42267Y8341D01*
G01X42325Y8344D01*
G01X42385Y8350D01*
G01X42445Y8359D01*
G01X42507Y8368D01*
G01X42570Y8380D01*
G01X42634Y8395D01*
G01X42699Y8411D01*
G01X42764Y8429D01*
G01X42831Y8449D01*
G01X42899Y8472D01*
G01X42967Y8496D01*
G01X43040Y8521D01*
G01X43113Y8543D01*
G01X43187Y8563D01*
G01X43261Y8580D01*
G01X43332Y8594D01*
G01X43400Y8604D01*
G01X43463Y8610D01*
G01X43519Y8612D01*
G01X43581Y8613D01*
G01X43637Y8617D01*
G01X43688Y8625D01*
G01X43737Y8637D01*
G01X43784Y8654D01*
G01X43833Y8678D01*
G01X43883Y8709D01*
G01X43938Y8749D01*
G01X43997Y8797D01*
G01X44064Y8855D01*
G01X44139Y8923D01*
G01X44225Y9004D01*
G01X44280Y9055D01*
G01X44330Y9100D01*
G01X44378Y9138D01*
G01X44425Y9172D01*
G01X44471Y9200D01*
G01X44517Y9225D01*
G01X44567Y9245D01*
G01X44619Y9263D01*
G01X44676Y9278D01*
G01X44739Y9292D01*
G01X44809Y9304D01*
G01X44887Y9315D01*
G01X44966Y9328D01*
G01X45039Y9343D01*
G01X45103Y9360D01*
G01X45155Y9377D01*
G01X45196Y9395D01*
G01X45222Y9413D01*
G01X45233Y9429D01*
G01X45225Y9444D01*
G01X45192Y9466D01*
G01X45160Y9485D01*
G01X45121Y9508D01*
G01X45075Y9535D01*
G01X45023Y9566D01*
G01X44965Y9599D01*
G01X44903Y9634D01*
G01X44838Y9671D01*
G01X44771Y9709D01*
G01X44635Y9787D01*
G01X44610Y9800D01*
G01X44580Y9818D01*
G01X44545Y9837D01*
G01X44505Y9861D01*
G01X44459Y9887D01*
G01X44411Y9915D01*
G01X44358Y9945D01*
G01X44302Y9978D01*
G01X44244Y10012D01*
G01X44183Y10047D01*
G01X44120Y10083D01*
G01X43990Y10159D01*
G01X43924Y10197D01*
G01X43857Y10236D01*
G01X43791Y10275D01*
G01X43668Y10347D01*
G01X43555Y10413D01*
G01X43454Y10472D01*
G01X43362Y10526D01*
G01X43280Y10574D01*
G01X43206Y10616D01*
G01X43140Y10653D01*
G01X43081Y10685D01*
G01X43029Y10711D01*
G01X42983Y10733D01*
G01X42942Y10751D01*
G01X42906Y10764D01*
G01X42874Y10773D01*
G01X42845Y10779D01*
G37*

%LPD*%
G36*
G01X65265Y8606D02*
G01X65212Y8613D01*
G01X65153Y8612D01*
G01X65088Y8602D01*
G01X65020Y8585D01*
G01X64948Y8558D01*
G01X64873Y8523D01*
G01X64798Y8479D01*
G01X64682Y8408D01*
G01X64616Y8379D01*
G01X64583Y8389D01*
G01X64566Y8434D01*
G01X64548Y8472D01*
G01X64519Y8499D01*
G01X64478Y8516D01*
G01X64425Y8521D01*
G01X64307Y8521D01*
G01X64307Y6745D01*
G01X64626Y6745D01*
G01X64626Y8107D01*
G01X64777Y8223D01*
G01X64821Y8253D01*
G01X64862Y8279D01*
G01X64904Y8299D01*
G01X64947Y8314D01*
G01X64993Y8326D01*
G01X65044Y8333D01*
G01X65101Y8338D01*
G01X65165Y8339D01*
G01X65293Y8342D01*
G01X65364Y8355D01*
G01X65393Y8389D01*
G01X65400Y8448D01*
G01X65394Y8496D01*
G01X65376Y8535D01*
G01X65348Y8567D01*
G01X65311Y8591D01*
G01X65265Y8606D01*
G37*

%LPD*%
G36*
G01X59480Y9295D02*
G01X59206Y9295D01*
G01X59206Y6745D01*
G01X59480Y6745D01*
G01X59480Y9295D01*
G37*

%LPD*%
G36*
G01X47760Y9196D02*
G01X47700Y9196D01*
G01X47640Y9194D01*
G01X47581Y9190D01*
G01X47524Y9184D01*
G01X47468Y9174D01*
G01X47414Y9163D01*
G01X47362Y9149D01*
G01X47312Y9132D01*
G01X47260Y9112D01*
G01X47210Y9092D01*
G01X47161Y9069D01*
G01X47114Y9046D01*
G01X47069Y9021D01*
G01X47025Y8995D01*
G01X46983Y8968D01*
G01X46943Y8940D01*
G01X46904Y8911D01*
G01X46867Y8881D01*
G01X46831Y8850D01*
G01X46797Y8819D01*
G01X46764Y8786D01*
G01X46733Y8753D01*
G01X46704Y8718D01*
G01X46676Y8683D01*
G01X46650Y8648D01*
G01X46625Y8611D01*
G01X46602Y8574D01*
G01X46580Y8537D01*
G01X46560Y8498D01*
G01X46541Y8460D01*
G01X46523Y8421D01*
G01X46508Y8381D01*
G01X46494Y8341D01*
G01X46481Y8301D01*
G01X46470Y8260D01*
G01X46459Y8220D01*
G01X46451Y8179D01*
G01X46444Y8138D01*
G01X46439Y8096D01*
G01X46435Y8054D01*
G01X46432Y8013D01*
G01X46431Y7971D01*
G01X46431Y7930D01*
G01X46432Y7888D01*
G01X46435Y7846D01*
G01X46439Y7805D01*
G01X46445Y7764D01*
G01X46452Y7723D01*
G01X46460Y7682D01*
G01X46470Y7642D01*
G01X46481Y7602D01*
G01X46507Y7522D01*
G01X46522Y7483D01*
G01X46538Y7445D01*
G01X46556Y7407D01*
G01X46575Y7369D01*
G01X46617Y7297D01*
G01X46640Y7261D01*
G01X46664Y7226D01*
G01X46689Y7192D01*
G01X46716Y7159D01*
G01X46744Y7127D01*
G01X46773Y7095D01*
G01X46803Y7065D01*
G01X46835Y7035D01*
G01X46868Y7006D01*
G01X46902Y6979D01*
G01X46937Y6952D01*
G01X46974Y6926D01*
G01X47011Y6902D01*
G01X47050Y6879D01*
G01X47090Y6857D01*
G01X47131Y6837D01*
G01X47173Y6817D01*
G01X47217Y6799D01*
G01X47307Y6767D01*
G01X47354Y6754D01*
G01X47402Y6742D01*
G01X47451Y6731D01*
G01X47501Y6722D01*
G01X47553Y6714D01*
G01X47605Y6709D01*
G01X47659Y6704D01*
G01X47713Y6702D01*
G01X47769Y6701D01*
G01X47850Y6703D01*
G01X47929Y6708D01*
G01X48003Y6716D01*
G01X48074Y6726D01*
G01X48140Y6739D01*
G01X48202Y6755D01*
G01X48260Y6773D01*
G01X48314Y6793D01*
G01X48361Y6816D01*
G01X48405Y6841D01*
G01X48442Y6868D01*
G01X48474Y6897D01*
G01X48501Y6927D01*
G01X48521Y6960D01*
G01X48535Y6994D01*
G01X48542Y7030D01*
G01X48546Y7079D01*
G01X48542Y7115D01*
G01X48530Y7138D01*
G01X48507Y7148D01*
G01X48473Y7144D01*
G01X48424Y7129D01*
G01X48360Y7100D01*
G01X48279Y7060D01*
G01X48226Y7034D01*
G01X48172Y7011D01*
G01X48118Y6992D01*
G01X48063Y6976D01*
G01X48008Y6963D01*
G01X47952Y6953D01*
G01X47897Y6946D01*
G01X47841Y6943D01*
G01X47786Y6942D01*
G01X47730Y6944D01*
G01X47676Y6948D01*
G01X47621Y6956D01*
G01X47567Y6966D01*
G01X47514Y6979D01*
G01X47462Y6995D01*
G01X47410Y7012D01*
G01X47360Y7033D01*
G01X47310Y7056D01*
G01X47262Y7081D01*
G01X47215Y7108D01*
G01X47170Y7138D01*
G01X47126Y7170D01*
G01X47084Y7204D01*
G01X47044Y7240D01*
G01X47006Y7279D01*
G01X46970Y7319D01*
G01X46935Y7361D01*
G01X46904Y7405D01*
G01X46875Y7450D01*
G01X46848Y7498D01*
G01X46823Y7547D01*
G01X46802Y7598D01*
G01X46783Y7650D01*
G01X46767Y7704D01*
G01X46755Y7759D01*
G01X46745Y7815D01*
G01X46739Y7871D01*
G01X46736Y7925D01*
G01X46737Y7979D01*
G01X46740Y8031D01*
G01X46746Y8083D01*
G01X46756Y8134D01*
G01X46768Y8184D01*
G01X46783Y8233D01*
G01X46800Y8280D01*
G01X46820Y8327D01*
G01X46842Y8372D01*
G01X46866Y8416D01*
G01X46893Y8459D01*
G01X46922Y8500D01*
G01X46953Y8539D01*
G01X46986Y8578D01*
G01X47021Y8615D01*
G01X47058Y8650D01*
G01X47096Y8683D01*
G01X47136Y8714D01*
G01X47177Y8744D01*
G01X47220Y8772D01*
G01X47265Y8798D01*
G01X47310Y8822D01*
G01X47356Y8844D01*
G01X47404Y8864D01*
G01X47453Y8882D01*
G01X47502Y8897D01*
G01X47552Y8911D01*
G01X47603Y8921D01*
G01X47654Y8930D01*
G01X47706Y8936D01*
G01X47758Y8940D01*
G01X47811Y8941D01*
G01X47864Y8940D01*
G01X47917Y8936D01*
G01X47970Y8929D01*
G01X48024Y8919D01*
G01X48076Y8907D01*
G01X48129Y8892D01*
G01X48182Y8874D01*
G01X48233Y8853D01*
G01X48285Y8828D01*
G01X48336Y8802D01*
G01X48408Y8761D01*
G01X48461Y8732D01*
G01X48499Y8716D01*
G01X48525Y8713D01*
G01X48540Y8723D01*
G01X48548Y8747D01*
G01X48550Y8785D01*
G01X48551Y8838D01*
G01X48545Y8898D01*
G01X48529Y8949D01*
G01X48502Y8990D01*
G01X48467Y9018D01*
G01X48414Y9045D01*
G01X48360Y9069D01*
G01X48304Y9092D01*
G01X48246Y9112D01*
G01X48187Y9130D01*
G01X48127Y9146D01*
G01X48067Y9160D01*
G01X48005Y9172D01*
G01X47944Y9181D01*
G01X47882Y9188D01*
G01X47821Y9193D01*
G01X47760Y9196D01*
G37*

%LPD*%
G36*
G01X57956Y9196D02*
G01X57884Y9197D01*
G01X57812Y9194D01*
G01X57740Y9187D01*
G01X57667Y9177D01*
G01X57595Y9165D01*
G01X57525Y9148D01*
G01X57455Y9128D01*
G01X57387Y9104D01*
G01X57336Y9083D01*
G01X57286Y9061D01*
G01X57239Y9038D01*
G01X57193Y9013D01*
G01X57149Y8987D01*
G01X57106Y8960D01*
G01X57066Y8932D01*
G01X57026Y8902D01*
G01X56989Y8871D01*
G01X56953Y8840D01*
G01X56919Y8807D01*
G01X56887Y8774D01*
G01X56856Y8739D01*
G01X56827Y8703D01*
G01X56800Y8667D01*
G01X56774Y8630D01*
G01X56750Y8593D01*
G01X56727Y8554D01*
G01X56706Y8516D01*
G01X56687Y8476D01*
G01X56669Y8436D01*
G01X56653Y8395D01*
G01X56638Y8354D01*
G01X56625Y8312D01*
G01X56613Y8271D01*
G01X56604Y8228D01*
G01X56595Y8186D01*
G01X56588Y8143D01*
G01X56582Y8100D01*
G01X56578Y8057D01*
G01X56576Y8014D01*
G01X56575Y7971D01*
G01X56575Y7928D01*
G01X56577Y7885D01*
G01X56581Y7841D01*
G01X56585Y7799D01*
G01X56592Y7756D01*
G01X56600Y7713D01*
G01X56609Y7671D01*
G01X56619Y7629D01*
G01X56631Y7587D01*
G01X56644Y7546D01*
G01X56659Y7505D01*
G01X56675Y7465D01*
G01X56693Y7425D01*
G01X56711Y7386D01*
G01X56732Y7347D01*
G01X56753Y7310D01*
G01X56776Y7272D01*
G01X56800Y7236D01*
G01X56826Y7200D01*
G01X56853Y7165D01*
G01X56881Y7131D01*
G01X56910Y7098D01*
G01X56941Y7066D01*
G01X56973Y7035D01*
G01X57006Y7006D01*
G01X57040Y6977D01*
G01X57076Y6949D01*
G01X57112Y6922D01*
G01X57150Y6898D01*
G01X57190Y6874D01*
G01X57231Y6851D01*
G01X57272Y6830D01*
G01X57315Y6810D01*
G01X57359Y6792D01*
G01X57404Y6775D01*
G01X57451Y6760D01*
G01X57498Y6747D01*
G01X57547Y6734D01*
G01X57597Y6724D01*
G01X57648Y6716D01*
G01X57700Y6709D01*
G01X57753Y6704D01*
G01X57808Y6701D01*
G01X57863Y6700D01*
G01X57949Y6701D01*
G01X58031Y6706D01*
G01X58108Y6712D01*
G01X58182Y6721D01*
G01X58250Y6733D01*
G01X58314Y6747D01*
G01X58373Y6763D01*
G01X58426Y6783D01*
G01X58475Y6804D01*
G01X58517Y6827D01*
G01X58555Y6852D01*
G01X58586Y6880D01*
G01X58612Y6909D01*
G01X58632Y6941D01*
G01X58645Y6974D01*
G01X58651Y7009D01*
G01X58654Y7103D01*
G01X58632Y7146D01*
G01X58582Y7141D01*
G01X58498Y7091D01*
G01X58455Y7064D01*
G01X58411Y7039D01*
G01X58365Y7018D01*
G01X58317Y7000D01*
G01X58268Y6984D01*
G01X58218Y6971D01*
G01X58166Y6961D01*
G01X58113Y6953D01*
G01X58059Y6949D01*
G01X58005Y6947D01*
G01X57950Y6947D01*
G01X57895Y6950D01*
G01X57840Y6956D01*
G01X57785Y6964D01*
G01X57729Y6974D01*
G01X57675Y6987D01*
G01X57621Y7002D01*
G01X57568Y7019D01*
G01X57516Y7038D01*
G01X57464Y7060D01*
G01X57414Y7083D01*
G01X57366Y7109D01*
G01X57319Y7137D01*
G01X57274Y7167D01*
G01X57231Y7199D01*
G01X57189Y7233D01*
G01X57151Y7268D01*
G01X57115Y7305D01*
G01X57081Y7345D01*
G01X57051Y7386D01*
G01X57023Y7428D01*
G01X56998Y7472D01*
G01X56974Y7525D01*
G01X56951Y7578D01*
G01X56932Y7631D01*
G01X56917Y7683D01*
G01X56903Y7735D01*
G01X56893Y7787D01*
G01X56886Y7838D01*
G01X56882Y7889D01*
G01X56880Y7939D01*
G01X56881Y7989D01*
G01X56885Y8038D01*
G01X56891Y8087D01*
G01X56899Y8135D01*
G01X56910Y8181D01*
G01X56923Y8227D01*
G01X56939Y8273D01*
G01X56956Y8317D01*
G01X56976Y8360D01*
G01X56998Y8402D01*
G01X57022Y8443D01*
G01X57048Y8482D01*
G01X57076Y8521D01*
G01X57105Y8558D01*
G01X57136Y8594D01*
G01X57169Y8628D01*
G01X57204Y8661D01*
G01X57240Y8692D01*
G01X57278Y8722D01*
G01X57317Y8750D01*
G01X57358Y8776D01*
G01X57399Y8800D01*
G01X57442Y8823D01*
G01X57487Y8844D01*
G01X57532Y8863D01*
G01X57578Y8879D01*
G01X57626Y8894D01*
G01X57674Y8907D01*
G01X57723Y8917D01*
G01X57773Y8925D01*
G01X57824Y8931D01*
G01X57875Y8935D01*
G01X57927Y8936D01*
G01X57980Y8934D01*
G01X58033Y8930D01*
G01X58086Y8923D01*
G01X58140Y8914D01*
G01X58194Y8903D01*
G01X58248Y8888D01*
G01X58303Y8870D01*
G01X58357Y8850D01*
G01X58412Y8826D01*
G01X58467Y8800D01*
G01X58660Y8701D01*
G01X58660Y8834D01*
G01X58656Y8873D01*
G01X58645Y8910D01*
G01X58627Y8945D01*
G01X58603Y8979D01*
G01X58573Y9010D01*
G01X58537Y9040D01*
G01X58495Y9067D01*
G01X58449Y9092D01*
G01X58398Y9114D01*
G01X58344Y9134D01*
G01X58286Y9151D01*
G01X58225Y9166D01*
G01X58160Y9178D01*
G01X58094Y9187D01*
G01X58026Y9193D01*
G01X57956Y9196D01*
G37*

%LPD*%
G36*
G01X54202Y8601D02*
G01X54135Y8605D01*
G01X54066Y8604D01*
G01X53997Y8598D01*
G01X53928Y8587D01*
G01X53860Y8570D01*
G01X53794Y8548D01*
G01X53733Y8519D01*
G01X53681Y8489D01*
G01X53634Y8457D01*
G01X53594Y8423D01*
G01X53559Y8387D01*
G01X53530Y8349D01*
G01X53506Y8311D01*
G01X53489Y8271D01*
G01X53476Y8230D01*
G01X53469Y8187D01*
G01X53468Y8144D01*
G01X53471Y8100D01*
G01X53481Y8056D01*
G01X53495Y8012D01*
G01X53515Y7967D01*
G01X53540Y7922D01*
G01X53570Y7878D01*
G01X53606Y7834D01*
G01X53646Y7790D01*
G01X53691Y7746D01*
G01X53742Y7704D01*
G01X53797Y7663D01*
G01X53857Y7622D01*
G01X53923Y7583D01*
G01X53993Y7546D01*
G01X54053Y7513D01*
G01X54108Y7481D01*
G01X54158Y7449D01*
G01X54202Y7416D01*
G01X54242Y7384D01*
G01X54276Y7352D01*
G01X54306Y7321D01*
G01X54330Y7290D01*
G01X54351Y7260D01*
G01X54366Y7230D01*
G01X54378Y7202D01*
G01X54384Y7174D01*
G01X54387Y7147D01*
G01X54385Y7121D01*
G01X54379Y7097D01*
G01X54370Y7074D01*
G01X54356Y7052D01*
G01X54339Y7032D01*
G01X54318Y7013D01*
G01X54293Y6996D01*
G01X54265Y6981D01*
G01X54234Y6968D01*
G01X54199Y6957D01*
G01X54161Y6948D01*
G01X54120Y6942D01*
G01X54076Y6937D01*
G01X54030Y6935D01*
G01X53980Y6936D01*
G01X53928Y6939D01*
G01X53873Y6945D01*
G01X53816Y6954D01*
G01X53757Y6966D01*
G01X53695Y6981D01*
G01X53631Y6999D01*
G01X53565Y7020D01*
G01X53497Y7045D01*
G01X53461Y7053D01*
G01X53438Y7040D01*
G01X53427Y7002D01*
G01X53423Y6937D01*
G01X53427Y6896D01*
G01X53437Y6859D01*
G01X53454Y6827D01*
G01X53480Y6799D01*
G01X53512Y6775D01*
G01X53553Y6754D01*
G01X53603Y6736D01*
G01X53662Y6723D01*
G01X53730Y6713D01*
G01X53807Y6705D01*
G01X53895Y6701D01*
G01X53992Y6699D01*
G01X54059Y6701D01*
G01X54123Y6706D01*
G01X54184Y6713D01*
G01X54241Y6723D01*
G01X54295Y6736D01*
G01X54346Y6751D01*
G01X54393Y6769D01*
G01X54437Y6789D01*
G01X54478Y6811D01*
G01X54515Y6835D01*
G01X54549Y6860D01*
G01X54579Y6888D01*
G01X54606Y6917D01*
G01X54630Y6948D01*
G01X54650Y6980D01*
G01X54666Y7013D01*
G01X54679Y7047D01*
G01X54689Y7082D01*
G01X54694Y7118D01*
G01X54696Y7155D01*
G01X54694Y7192D01*
G01X54689Y7229D01*
G01X54679Y7267D01*
G01X54667Y7305D01*
G01X54650Y7343D01*
G01X54629Y7381D01*
G01X54605Y7419D01*
G01X54576Y7456D01*
G01X54544Y7493D01*
G01X54508Y7529D01*
G01X54468Y7565D01*
G01X54423Y7600D01*
G01X54376Y7633D01*
G01X54323Y7666D01*
G01X54267Y7697D01*
G01X54206Y7727D01*
G01X54141Y7759D01*
G01X54081Y7792D01*
G01X54026Y7825D01*
G01X53977Y7859D01*
G01X53933Y7892D01*
G01X53894Y7925D01*
G01X53860Y7958D01*
G01X53831Y7991D01*
G01X53807Y8023D01*
G01X53788Y8055D01*
G01X53774Y8086D01*
G01X53764Y8116D01*
G01X53759Y8144D01*
G01X53759Y8172D01*
G01X53763Y8198D01*
G01X53772Y8222D01*
G01X53785Y8245D01*
G01X53803Y8265D01*
G01X53824Y8284D01*
G01X53850Y8301D01*
G01X53880Y8314D01*
G01X53914Y8326D01*
G01X53951Y8335D01*
G01X53994Y8341D01*
G01X54039Y8344D01*
G01X54088Y8344D01*
G01X54141Y8341D01*
G01X54198Y8335D01*
G01X54258Y8325D01*
G01X54322Y8311D01*
G01X54389Y8293D01*
G01X54459Y8271D01*
G01X54513Y8257D01*
G01X54544Y8265D01*
G01X54559Y8301D01*
G01X54562Y8370D01*
G01X54556Y8410D01*
G01X54539Y8448D01*
G01X54512Y8482D01*
G01X54477Y8512D01*
G01X54434Y8538D01*
G01X54383Y8561D01*
G01X54327Y8579D01*
G01X54267Y8592D01*
G01X54202Y8601D01*
G37*

%LPD*%
G36*
G01X62982Y8602D02*
G01X62926Y8603D01*
G01X62869Y8601D01*
G01X62810Y8597D01*
G01X62750Y8590D01*
G01X62689Y8580D01*
G01X62625Y8567D01*
G01X62561Y8552D01*
G01X62494Y8534D01*
G01X62412Y8506D01*
G01X62341Y8474D01*
G01X62282Y8440D01*
G01X62235Y8402D01*
G01X62201Y8362D01*
G01X62180Y8319D01*
G01X62170Y8274D01*
G01X62175Y8226D01*
G01X62190Y8199D01*
G01X62222Y8194D01*
G01X62279Y8211D01*
G01X62368Y8251D01*
G01X62430Y8279D01*
G01X62493Y8303D01*
G01X62555Y8322D01*
G01X62617Y8338D01*
G01X62678Y8349D01*
G01X62738Y8355D01*
G01X62798Y8359D01*
G01X62856Y8358D01*
G01X62912Y8352D01*
G01X62966Y8344D01*
G01X63019Y8332D01*
G01X63069Y8316D01*
G01X63116Y8297D01*
G01X63160Y8274D01*
G01X63202Y8248D01*
G01X63240Y8218D01*
G01X63275Y8186D01*
G01X63305Y8151D01*
G01X63332Y8113D01*
G01X63355Y8072D01*
G01X63372Y8027D01*
G01X63385Y7981D01*
G01X63393Y7932D01*
G01X63396Y7880D01*
G01X63396Y7814D01*
G01X63393Y7765D01*
G01X63382Y7733D01*
G01X63360Y7715D01*
G01X63322Y7709D01*
G01X63263Y7715D01*
G01X63180Y7730D01*
G01X63068Y7752D01*
G01X63006Y7763D01*
G01X62945Y7769D01*
G01X62884Y7772D01*
G01X62825Y7772D01*
G01X62767Y7768D01*
G01X62710Y7761D01*
G01X62655Y7750D01*
G01X62601Y7737D01*
G01X62549Y7721D01*
G01X62500Y7702D01*
G01X62452Y7680D01*
G01X62407Y7656D01*
G01X62364Y7631D01*
G01X62324Y7603D01*
G01X62286Y7572D01*
G01X62251Y7540D01*
G01X62219Y7507D01*
G01X62191Y7472D01*
G01X62165Y7435D01*
G01X62143Y7397D01*
G01X62125Y7358D01*
G01X62110Y7318D01*
G01X62100Y7278D01*
G01X62093Y7236D01*
G01X62090Y7194D01*
G01X62092Y7152D01*
G01X62098Y7109D01*
G01X62109Y7067D01*
G01X62125Y7025D01*
G01X62145Y6982D01*
G01X62171Y6940D01*
G01X62201Y6899D01*
G01X62237Y6861D01*
G01X62279Y6828D01*
G01X62326Y6798D01*
G01X62380Y6773D01*
G01X62437Y6751D01*
G01X62498Y6733D01*
G01X62562Y6719D01*
G01X62628Y6708D01*
G01X62695Y6701D01*
G01X62762Y6699D01*
G01X62829Y6700D01*
G01X62895Y6704D01*
G01X62959Y6714D01*
G01X63020Y6726D01*
G01X63078Y6743D01*
G01X63131Y6763D01*
G01X63179Y6788D01*
G01X63221Y6816D01*
G01X63256Y6848D01*
G01X63284Y6884D01*
G01X63318Y6920D01*
G01X63353Y6923D01*
G01X63385Y6894D01*
G01X63409Y6836D01*
G01X63427Y6795D01*
G01X63457Y6767D01*
G01X63499Y6751D01*
G01X63554Y6745D01*
G01X63675Y6745D01*
G01X63661Y7493D01*
G01X63646Y8242D01*
G01X63519Y8375D01*
G01X63484Y8409D01*
G01X63448Y8440D01*
G01X63409Y8468D01*
G01X63369Y8494D01*
G01X63327Y8517D01*
G01X63282Y8537D01*
G01X63237Y8555D01*
G01X63189Y8570D01*
G01X63140Y8582D01*
G01X63089Y8591D01*
G01X63037Y8598D01*
G01X62982Y8602D01*
G37*

%LPC*%
G36*
G01X62857Y7545D02*
G01X62779Y7545D01*
G01X62708Y7539D01*
G01X62644Y7527D01*
G01X62587Y7509D01*
G01X62537Y7484D01*
G01X62494Y7454D01*
G01X62458Y7418D01*
G01X62430Y7377D01*
G01X62410Y7329D01*
G01X62398Y7277D01*
G01X62394Y7219D01*
G01X62398Y7172D01*
G01X62409Y7129D01*
G01X62426Y7090D01*
G01X62450Y7055D01*
G01X62480Y7022D01*
G01X62515Y6995D01*
G01X62554Y6971D01*
G01X62599Y6952D01*
G01X62647Y6938D01*
G01X62700Y6928D01*
G01X62755Y6922D01*
G01X62813Y6922D01*
G01X62873Y6928D01*
G01X62935Y6938D01*
G01X62998Y6954D01*
G01X63063Y6976D01*
G01X63125Y7004D01*
G01X63182Y7037D01*
G01X63234Y7074D01*
G01X63279Y7116D01*
G01X63319Y7160D01*
G01X63352Y7205D01*
G01X63378Y7251D01*
G01X63397Y7296D01*
G01X63409Y7341D01*
G01X63412Y7382D01*
G01X63407Y7419D01*
G01X63394Y7453D01*
G01X63372Y7480D01*
G01X63340Y7502D01*
G01X63299Y7515D01*
G01X63248Y7520D01*
G01X63178Y7521D01*
G01X63096Y7525D01*
G01X63014Y7531D01*
G01X62941Y7538D01*
G01X62857Y7545D01*
G37*

%LPD*%
G36*
G01X60923Y8609D02*
G01X60867Y8610D01*
G01X60810Y8607D01*
G01X60754Y8601D01*
G01X60697Y8591D01*
G01X60640Y8576D01*
G01X60583Y8558D01*
G01X60527Y8536D01*
G01X60476Y8512D01*
G01X60428Y8487D01*
G01X60382Y8459D01*
G01X60338Y8428D01*
G01X60296Y8396D01*
G01X60258Y8362D01*
G01X60221Y8326D01*
G01X60187Y8287D01*
G01X60155Y8248D01*
G01X60125Y8208D01*
G01X60098Y8165D01*
G01X60073Y8122D01*
G01X60051Y8077D01*
G01X60031Y8032D01*
G01X60013Y7985D01*
G01X59997Y7938D01*
G01X59984Y7890D01*
G01X59974Y7841D01*
G01X59965Y7793D01*
G01X59959Y7743D01*
G01X59956Y7694D01*
G01X59954Y7644D01*
G01X59956Y7595D01*
G01X59959Y7545D01*
G01X59965Y7496D01*
G01X59973Y7447D01*
G01X59983Y7399D01*
G01X59997Y7351D01*
G01X60012Y7304D01*
G01X60030Y7258D01*
G01X60049Y7212D01*
G01X60072Y7168D01*
G01X60097Y7125D01*
G01X60124Y7082D01*
G01X60153Y7042D01*
G01X60185Y7003D01*
G01X60220Y6966D01*
G01X60256Y6930D01*
G01X60295Y6895D01*
G01X60336Y6863D01*
G01X60380Y6834D01*
G01X60426Y6806D01*
G01X60474Y6780D01*
G01X60525Y6757D01*
G01X60575Y6738D01*
G01X60628Y6723D01*
G01X60684Y6710D01*
G01X60743Y6700D01*
G01X60803Y6694D01*
G01X60865Y6690D01*
G01X60928Y6688D01*
G01X60991Y6690D01*
G01X61054Y6693D01*
G01X61117Y6699D01*
G01X61179Y6708D01*
G01X61239Y6718D01*
G01X61297Y6730D01*
G01X61353Y6745D01*
G01X61406Y6761D01*
G01X61455Y6779D01*
G01X61500Y6799D01*
G01X61541Y6820D01*
G01X61577Y6844D01*
G01X61608Y6868D01*
G01X61632Y6893D01*
G01X61650Y6920D01*
G01X61661Y6948D01*
G01X61665Y6977D01*
G01X61665Y7101D01*
G01X61437Y7014D01*
G01X61370Y6990D01*
G01X61302Y6970D01*
G01X61235Y6954D01*
G01X61169Y6942D01*
G01X61103Y6933D01*
G01X61039Y6928D01*
G01X60975Y6926D01*
G01X60913Y6928D01*
G01X60852Y6933D01*
G01X60793Y6942D01*
G01X60736Y6953D01*
G01X60681Y6968D01*
G01X60629Y6986D01*
G01X60579Y7008D01*
G01X60533Y7032D01*
G01X60489Y7059D01*
G01X60448Y7089D01*
G01X60411Y7122D01*
G01X60378Y7157D01*
G01X60348Y7196D01*
G01X60322Y7236D01*
G01X60301Y7280D01*
G01X60284Y7326D01*
G01X60271Y7374D01*
G01X60243Y7519D01*
G01X61091Y7519D01*
G01X61197Y7520D01*
G01X61291Y7520D01*
G01X61375Y7522D01*
G01X61449Y7525D01*
G01X61513Y7529D01*
G01X61569Y7535D01*
G01X61616Y7543D01*
G01X61655Y7552D01*
G01X61687Y7565D01*
G01X61713Y7579D01*
G01X61732Y7597D01*
G01X61746Y7617D01*
G01X61755Y7642D01*
G01X61759Y7670D01*
G01X61759Y7702D01*
G01X61757Y7738D01*
G01X61751Y7778D01*
G01X61744Y7824D01*
G01X61735Y7874D01*
G01X61721Y7934D01*
G01X61704Y7993D01*
G01X61684Y8049D01*
G01X61661Y8103D01*
G01X61635Y8155D01*
G01X61606Y8204D01*
G01X61574Y8251D01*
G01X61540Y8296D01*
G01X61503Y8338D01*
G01X61464Y8377D01*
G01X61423Y8413D01*
G01X61379Y8446D01*
G01X61335Y8477D01*
G01X61287Y8505D01*
G01X61239Y8530D01*
G01X61189Y8551D01*
G01X61138Y8569D01*
G01X61085Y8584D01*
G01X61032Y8596D01*
G01X60978Y8604D01*
G01X60923Y8609D01*
G37*

%LPC*%
G36*
G01X60908Y8364D02*
G01X60860Y8366D01*
G01X60823Y8360D01*
G01X60796Y8353D01*
G01X60755Y8343D01*
G01X60706Y8331D01*
G01X60654Y8320D01*
G01X60586Y8298D01*
G01X60521Y8265D01*
G01X60459Y8221D01*
G01X60404Y8170D01*
G01X60355Y8111D01*
G01X60316Y8047D01*
G01X60286Y7980D01*
G01X60268Y7910D01*
G01X60242Y7747D01*
G01X61115Y7747D01*
G01X61211Y7749D01*
G01X61288Y7751D01*
G01X61349Y7755D01*
G01X61396Y7760D01*
G01X61431Y7767D01*
G01X61455Y7776D01*
G01X61470Y7788D01*
G01X61478Y7802D01*
G01X61483Y7820D01*
G01X61484Y7840D01*
G01X61478Y7894D01*
G01X61463Y7951D01*
G01X61440Y8011D01*
G01X61410Y8069D01*
G01X61375Y8126D01*
G01X61335Y8177D01*
G01X61292Y8221D01*
G01X61246Y8256D01*
G01X61201Y8282D01*
G01X61146Y8306D01*
G01X61086Y8326D01*
G01X61024Y8343D01*
G01X60964Y8356D01*
G01X60908Y8364D01*
G37*

%LPD*%
G36*
G01X50001Y8602D02*
G01X49948Y8603D01*
G01X49895Y8602D01*
G01X49841Y8598D01*
G01X49787Y8592D01*
G01X49733Y8583D01*
G01X49677Y8570D01*
G01X49622Y8556D01*
G01X49566Y8537D01*
G01X49515Y8518D01*
G01X49466Y8495D01*
G01X49419Y8471D01*
G01X49374Y8444D01*
G01X49331Y8416D01*
G01X49290Y8385D01*
G01X49251Y8353D01*
G01X49215Y8319D01*
G01X49181Y8284D01*
G01X49149Y8247D01*
G01X49119Y8208D01*
G01X49091Y8168D01*
G01X49065Y8127D01*
G01X49042Y8085D01*
G01X49020Y8042D01*
G01X49002Y7998D01*
G01X48985Y7953D01*
G01X48970Y7907D01*
G01X48957Y7861D01*
G01X48948Y7814D01*
G01X48940Y7767D01*
G01X48934Y7720D01*
G01X48931Y7673D01*
G01X48930Y7625D01*
G01X48931Y7578D01*
G01X48934Y7530D01*
G01X48941Y7483D01*
G01X48949Y7437D01*
G01X48959Y7390D01*
G01X48972Y7345D01*
G01X48988Y7299D01*
G01X49005Y7255D01*
G01X49025Y7212D01*
G01X49048Y7169D01*
G01X49073Y7128D01*
G01X49100Y7088D01*
G01X49130Y7049D01*
G01X49162Y7012D01*
G01X49196Y6976D01*
G01X49233Y6941D01*
G01X49272Y6909D01*
G01X49314Y6878D01*
G01X49359Y6849D01*
G01X49405Y6822D01*
G01X49461Y6794D01*
G01X49518Y6769D01*
G01X49576Y6748D01*
G01X49634Y6729D01*
G01X49692Y6714D01*
G01X49751Y6702D01*
G01X49810Y6694D01*
G01X49870Y6689D01*
G01X49929Y6686D01*
G01X49987Y6687D01*
G01X50045Y6691D01*
G01X50103Y6697D01*
G01X50160Y6707D01*
G01X50217Y6720D01*
G01X50272Y6735D01*
G01X50326Y6753D01*
G01X50379Y6775D01*
G01X50431Y6798D01*
G01X50481Y6825D01*
G01X50529Y6854D01*
G01X50575Y6886D01*
G01X50620Y6921D01*
G01X50663Y6958D01*
G01X50703Y6998D01*
G01X50740Y7040D01*
G01X50775Y7085D01*
G01X50808Y7132D01*
G01X50838Y7182D01*
G01X50864Y7232D01*
G01X50887Y7282D01*
G01X50906Y7332D01*
G01X50923Y7382D01*
G01X50936Y7431D01*
G01X50947Y7481D01*
G01X50954Y7531D01*
G01X50959Y7580D01*
G01X50961Y7629D01*
G01X50960Y7678D01*
G01X50957Y7726D01*
G01X50951Y7773D01*
G01X50943Y7821D01*
G01X50931Y7867D01*
G01X50918Y7912D01*
G01X50902Y7957D01*
G01X50885Y8000D01*
G01X50865Y8044D01*
G01X50843Y8085D01*
G01X50818Y8126D01*
G01X50792Y8165D01*
G01X50764Y8204D01*
G01X50734Y8241D01*
G01X50702Y8276D01*
G01X50668Y8310D01*
G01X50633Y8343D01*
G01X50596Y8374D01*
G01X50558Y8403D01*
G01X50518Y8431D01*
G01X50477Y8457D01*
G01X50434Y8481D01*
G01X50390Y8503D01*
G01X50345Y8523D01*
G01X50299Y8541D01*
G01X50252Y8557D01*
G01X50203Y8570D01*
G01X50154Y8582D01*
G01X50103Y8591D01*
G01X50053Y8597D01*
G01X50001Y8602D01*
G37*

%LPC*%
G36*
G01X49975Y8347D02*
G01X49919Y8348D01*
G01X49863Y8345D01*
G01X49809Y8339D01*
G01X49755Y8328D01*
G01X49703Y8314D01*
G01X49652Y8297D01*
G01X49602Y8276D01*
G01X49555Y8252D01*
G01X49510Y8225D01*
G01X49466Y8195D01*
G01X49426Y8162D01*
G01X49388Y8126D01*
G01X49352Y8087D01*
G01X49320Y8046D01*
G01X49291Y8002D01*
G01X49265Y7956D01*
G01X49242Y7907D01*
G01X49223Y7856D01*
G01X49208Y7803D01*
G01X49197Y7748D01*
G01X49190Y7692D01*
G01X49188Y7633D01*
G01X49190Y7581D01*
G01X49195Y7532D01*
G01X49203Y7483D01*
G01X49215Y7438D01*
G01X49229Y7393D01*
G01X49246Y7351D01*
G01X49267Y7310D01*
G01X49289Y7271D01*
G01X49314Y7235D01*
G01X49341Y7200D01*
G01X49370Y7167D01*
G01X49402Y7137D01*
G01X49435Y7108D01*
G01X49470Y7081D01*
G01X49506Y7057D01*
G01X49544Y7034D01*
G01X49583Y7014D01*
G01X49624Y6996D01*
G01X49665Y6980D01*
G01X49707Y6967D01*
G01X49750Y6955D01*
G01X49794Y6946D01*
G01X49838Y6939D01*
G01X49882Y6935D01*
G01X49927Y6933D01*
G01X49972Y6933D01*
G01X50016Y6935D01*
G01X50061Y6940D01*
G01X50105Y6947D01*
G01X50149Y6957D01*
G01X50191Y6970D01*
G01X50233Y6985D01*
G01X50275Y7002D01*
G01X50315Y7022D01*
G01X50354Y7045D01*
G01X50391Y7070D01*
G01X50427Y7098D01*
G01X50462Y7129D01*
G01X50495Y7162D01*
G01X50526Y7198D01*
G01X50555Y7237D01*
G01X50582Y7279D01*
G01X50606Y7323D01*
G01X50628Y7370D01*
G01X50650Y7431D01*
G01X50667Y7494D01*
G01X50676Y7557D01*
G01X50680Y7622D01*
G01X50678Y7687D01*
G01X50670Y7751D01*
G01X50657Y7814D01*
G01X50638Y7876D01*
G01X50614Y7936D01*
G01X50586Y7994D01*
G01X50552Y8048D01*
G01X50514Y8098D01*
G01X50472Y8145D01*
G01X50425Y8187D01*
G01X50374Y8224D01*
G01X50319Y8255D01*
G01X50262Y8282D01*
G01X50205Y8303D01*
G01X50148Y8320D01*
G01X50090Y8334D01*
G01X50032Y8342D01*
G01X49975Y8347D01*
G37*

%LPD*%
G36*
G01X52190Y8602D02*
G01X52134Y8603D01*
G01X52077Y8601D01*
G01X52018Y8597D01*
G01X51958Y8590D01*
G01X51896Y8580D01*
G01X51833Y8567D01*
G01X51768Y8552D01*
G01X51703Y8534D01*
G01X51620Y8506D01*
G01X51549Y8474D01*
G01X51490Y8440D01*
G01X51443Y8402D01*
G01X51409Y8362D01*
G01X51387Y8319D01*
G01X51378Y8274D01*
G01X51383Y8226D01*
G01X51397Y8199D01*
G01X51430Y8194D01*
G01X51487Y8211D01*
G01X51576Y8251D01*
G01X51636Y8279D01*
G01X51696Y8302D01*
G01X51756Y8321D01*
G01X51816Y8337D01*
G01X51875Y8349D01*
G01X51933Y8357D01*
G01X51990Y8361D01*
G01X52045Y8362D01*
G01X52099Y8359D01*
G01X52152Y8352D01*
G01X52202Y8342D01*
G01X52251Y8329D01*
G01X52297Y8312D01*
G01X52341Y8292D01*
G01X52382Y8269D01*
G01X52419Y8242D01*
G01X52454Y8213D01*
G01X52486Y8181D01*
G01X52514Y8146D01*
G01X52538Y8108D01*
G01X52559Y8066D01*
G01X52574Y8023D01*
G01X52586Y7977D01*
G01X52594Y7928D01*
G01X52601Y7845D01*
G01X52604Y7784D01*
G01X52597Y7743D01*
G01X52576Y7719D01*
G01X52537Y7710D01*
G01X52477Y7714D01*
G01X52391Y7729D01*
G01X52276Y7752D01*
G01X52208Y7764D01*
G01X52142Y7771D01*
G01X52077Y7775D01*
G01X52014Y7775D01*
G01X51953Y7772D01*
G01X51894Y7765D01*
G01X51837Y7755D01*
G01X51782Y7741D01*
G01X51729Y7724D01*
G01X51680Y7704D01*
G01X51632Y7681D01*
G01X51588Y7656D01*
G01X51547Y7628D01*
G01X51508Y7598D01*
G01X51473Y7565D01*
G01X51441Y7529D01*
G01X51413Y7492D01*
G01X51389Y7452D01*
G01X51368Y7411D01*
G01X51351Y7367D01*
G01X51338Y7323D01*
G01X51330Y7276D01*
G01X51326Y7228D01*
G01X51326Y7179D01*
G01X51331Y7129D01*
G01X51340Y7077D01*
G01X51355Y7025D01*
G01X51374Y6972D01*
G01X51396Y6928D01*
G01X51424Y6888D01*
G01X51458Y6852D01*
G01X51496Y6818D01*
G01X51539Y6789D01*
G01X51586Y6762D01*
G01X51637Y6740D01*
G01X51690Y6721D01*
G01X51747Y6706D01*
G01X51805Y6695D01*
G01X51865Y6688D01*
G01X51926Y6685D01*
G01X51988Y6685D01*
G01X52050Y6691D01*
G01X52111Y6700D01*
G01X52171Y6714D01*
G01X52230Y6732D01*
G01X52288Y6754D01*
G01X52342Y6782D01*
G01X52394Y6813D01*
G01X52510Y6890D01*
G01X52570Y6918D01*
G01X52598Y6900D01*
G01X52617Y6836D01*
G01X52635Y6795D01*
G01X52664Y6767D01*
G01X52706Y6751D01*
G01X52762Y6745D01*
G01X52883Y6745D01*
G01X52868Y7493D01*
G01X52854Y8242D01*
G01X52727Y8375D01*
G01X52692Y8409D01*
G01X52655Y8440D01*
G01X52616Y8468D01*
G01X52576Y8494D01*
G01X52534Y8517D01*
G01X52490Y8537D01*
G01X52444Y8555D01*
G01X52396Y8570D01*
G01X52348Y8582D01*
G01X52296Y8591D01*
G01X52244Y8598D01*
G01X52190Y8602D01*
G37*

%LPC*%
G36*
G01X52100Y7547D02*
G01X52019Y7547D01*
G01X51943Y7540D01*
G01X51874Y7527D01*
G01X51813Y7509D01*
G01X51758Y7484D01*
G01X51712Y7453D01*
G01X51673Y7417D01*
G01X51642Y7376D01*
G01X51620Y7329D01*
G01X51607Y7277D01*
G01X51601Y7220D01*
G01X51606Y7170D01*
G01X51618Y7124D01*
G01X51637Y7082D01*
G01X51662Y7045D01*
G01X51694Y7012D01*
G01X51731Y6985D01*
G01X51773Y6962D01*
G01X51819Y6944D01*
G01X51869Y6931D01*
G01X51922Y6922D01*
G01X51978Y6918D01*
G01X52035Y6920D01*
G01X52095Y6927D01*
G01X52155Y6939D01*
G01X52215Y6956D01*
G01X52275Y6979D01*
G01X52334Y7007D01*
G01X52392Y7040D01*
G01X52448Y7079D01*
G01X52501Y7123D01*
G01X52549Y7179D01*
G01X52584Y7242D01*
G01X52604Y7307D01*
G01X52610Y7371D01*
G01X52602Y7429D01*
G01X52581Y7476D01*
G01X52545Y7508D01*
G01X52496Y7519D01*
G01X52439Y7521D01*
G01X52361Y7525D01*
G01X52275Y7532D01*
G01X52189Y7540D01*
G01X52100Y7547D01*
G37*

%LPD*%
G36*
G01X55581Y9045D02*
G01X55558Y9055D01*
G01X55524Y9047D01*
G01X55476Y9024D01*
G01X55416Y8987D01*
G01X55352Y8940D01*
G01X55313Y8888D01*
G01X55295Y8817D01*
G01X55290Y8715D01*
G01X55290Y8521D01*
G01X55108Y8521D01*
G01X55011Y8518D01*
G01X54956Y8502D01*
G01X54931Y8468D01*
G01X54926Y8407D01*
G01X54931Y8346D01*
G01X54956Y8312D01*
G01X55011Y8297D01*
G01X55108Y8294D01*
G01X55290Y8294D01*
G01X55290Y7723D01*
G01X55291Y7640D01*
G01X55294Y7561D01*
G01X55298Y7486D01*
G01X55303Y7414D01*
G01X55311Y7346D01*
G01X55320Y7281D01*
G01X55331Y7219D01*
G01X55344Y7161D01*
G01X55358Y7106D01*
G01X55374Y7054D01*
G01X55392Y7005D01*
G01X55412Y6960D01*
G01X55433Y6918D01*
G01X55457Y6880D01*
G01X55482Y6844D01*
G01X55509Y6812D01*
G01X55538Y6783D01*
G01X55568Y6757D01*
G01X55601Y6734D01*
G01X55635Y6715D01*
G01X55672Y6698D01*
G01X55710Y6685D01*
G01X55750Y6676D01*
G01X55792Y6668D01*
G01X55837Y6664D01*
G01X55883Y6664D01*
G01X55931Y6666D01*
G01X55981Y6671D01*
G01X56033Y6680D01*
G01X56087Y6691D01*
G01X56143Y6705D01*
G01X56202Y6723D01*
G01X56251Y6743D01*
G01X56287Y6765D01*
G01X56310Y6791D01*
G01X56321Y6817D01*
G01X56320Y6844D01*
G01X56309Y6869D01*
G01X56287Y6892D01*
G01X56256Y6913D01*
G01X56217Y6929D01*
G01X56169Y6940D01*
G01X56114Y6945D01*
G01X56053Y6943D01*
G01X55996Y6938D01*
G01X55945Y6934D01*
G01X55899Y6933D01*
G01X55857Y6934D01*
G01X55820Y6938D01*
G01X55787Y6945D01*
G01X55758Y6956D01*
G01X55733Y6972D01*
G01X55711Y6993D01*
G01X55693Y7018D01*
G01X55677Y7050D01*
G01X55664Y7089D01*
G01X55653Y7133D01*
G01X55644Y7185D01*
G01X55636Y7245D01*
G01X55631Y7313D01*
G01X55626Y7389D01*
G01X55623Y7475D01*
G01X55620Y7570D01*
G01X55617Y7675D01*
G01X55602Y8294D01*
G01X55997Y8294D01*
G01X56070Y8296D01*
G01X56123Y8301D01*
G01X56160Y8309D01*
G01X56183Y8323D01*
G01X56195Y8343D01*
G01X56200Y8371D01*
G01X56201Y8407D01*
G01X56200Y8443D01*
G01X56195Y8471D01*
G01X56183Y8492D01*
G01X56160Y8505D01*
G01X56124Y8514D01*
G01X56072Y8519D01*
G01X56000Y8521D01*
G01X55609Y8521D01*
G01X55609Y8794D01*
G01X55608Y8893D01*
G01X55604Y8967D01*
G01X55596Y9016D01*
G01X55581Y9045D01*
G37*

%LPD*%
G36*
G01X45272Y9204D02*
G01X45144Y9204D01*
G01X45088Y9199D01*
G01X45030Y9187D01*
G01X44977Y9168D01*
G01X44935Y9145D01*
G01X44901Y9109D01*
G01X44869Y9057D01*
G01X44841Y8995D01*
G01X44822Y8929D01*
G01X44811Y8877D01*
G01X44798Y8838D01*
G01X44780Y8808D01*
G01X44753Y8785D01*
G01X44712Y8768D01*
G01X44655Y8753D01*
G01X44576Y8738D01*
G01X44473Y8721D01*
G01X44356Y8701D01*
G01X44257Y8682D01*
G01X44174Y8663D01*
G01X44109Y8645D01*
G01X44059Y8627D01*
G01X44024Y8608D01*
G01X44004Y8589D01*
G01X43997Y8570D01*
G01X43989Y8548D01*
G01X43965Y8523D01*
G01X43929Y8498D01*
G01X43881Y8472D01*
G01X43825Y8446D01*
G01X43761Y8423D01*
G01X43693Y8400D01*
G01X43621Y8380D01*
G01X43549Y8363D01*
G01X43478Y8350D01*
G01X43409Y8342D01*
G01X43346Y8339D01*
G01X43304Y8338D01*
G01X43260Y8336D01*
G01X43213Y8333D01*
G01X43165Y8329D01*
G01X43114Y8322D01*
G01X43061Y8316D01*
G01X43007Y8308D01*
G01X42952Y8299D01*
G01X42836Y8277D01*
G01X42777Y8265D01*
G01X42657Y8237D01*
G01X42595Y8221D01*
G01X42534Y8206D01*
G01X42472Y8188D01*
G01X42410Y8171D01*
G01X42348Y8152D01*
G01X42287Y8133D01*
G01X42226Y8113D01*
G01X42159Y8092D01*
G01X42096Y8076D01*
G01X42036Y8065D01*
G01X41980Y8060D01*
G01X41926Y8059D01*
G01X41875Y8064D01*
G01X41827Y8074D01*
G01X41780Y8089D01*
G01X41734Y8110D01*
G01X41690Y8136D01*
G01X41648Y8167D01*
G01X41606Y8203D01*
G01X41556Y8245D01*
G01X41502Y8283D01*
G01X41445Y8318D01*
G01X41383Y8350D01*
G01X41318Y8378D01*
G01X41251Y8402D01*
G01X41182Y8422D01*
G01X41113Y8438D01*
G01X41044Y8449D01*
G01X40975Y8457D01*
G01X40908Y8460D01*
G01X40842Y8458D01*
G01X40779Y8451D01*
G01X40720Y8439D01*
G01X40664Y8423D01*
G01X40613Y8401D01*
G01X40576Y8381D01*
G01X40543Y8363D01*
G01X40515Y8345D01*
G01X40490Y8325D01*
G01X40470Y8301D01*
G01X40452Y8272D01*
G01X40438Y8238D01*
G01X40427Y8195D01*
G01X40418Y8144D01*
G01X40412Y8082D01*
G01X40407Y8008D01*
G01X40404Y7920D01*
G01X40402Y7817D01*
G01X40401Y7697D01*
G01X40401Y7559D01*
G01X40400Y7402D01*
G01X40400Y6580D01*
G01X40547Y6504D01*
G01X40596Y6479D01*
G01X40621Y6466D01*
G01X40646Y6452D01*
G01X40674Y6437D01*
G01X40704Y6421D01*
G01X40736Y6403D01*
G01X40772Y6382D01*
G01X40812Y6360D01*
G01X40856Y6335D01*
G01X40904Y6307D01*
G01X40959Y6275D01*
G01X41019Y6240D01*
G01X41085Y6202D01*
G01X41160Y6158D01*
G01X41240Y6111D01*
G01X41330Y6058D01*
G01X41428Y6001D01*
G01X41535Y5938D01*
G01X41652Y5869D01*
G01X41777Y5796D01*
G01X41891Y5730D01*
G01X41993Y5669D01*
G01X42086Y5615D01*
G01X42170Y5566D01*
G01X42245Y5522D01*
G01X42312Y5483D01*
G01X42371Y5448D01*
G01X42423Y5418D01*
G01X42470Y5391D01*
G01X42510Y5367D01*
G01X42546Y5347D01*
G01X42577Y5329D01*
G01X42605Y5314D01*
G01X42630Y5300D01*
G01X42653Y5288D01*
G01X42693Y5266D01*
G01X42730Y5247D01*
G01X42758Y5234D01*
G01X42784Y5224D01*
G01X42811Y5219D01*
G01X42840Y5220D01*
G01X42873Y5226D01*
G01X42913Y5238D01*
G01X42960Y5259D01*
G01X43019Y5288D01*
G01X43088Y5325D01*
G01X43173Y5372D01*
G01X43273Y5429D01*
G01X43391Y5498D01*
G01X43465Y5541D01*
G01X43541Y5585D01*
G01X43616Y5629D01*
G01X43690Y5671D01*
G01X43763Y5713D01*
G01X43832Y5752D01*
G01X43898Y5790D01*
G01X43959Y5825D01*
G01X44014Y5856D01*
G01X44063Y5884D01*
G01X44104Y5907D01*
G01X44138Y5925D01*
G01X44170Y5943D01*
G01X44210Y5965D01*
G01X44255Y5991D01*
G01X44307Y6020D01*
G01X44362Y6052D01*
G01X44421Y6086D01*
G01X44483Y6122D01*
G01X44547Y6159D01*
G01X44613Y6198D01*
G01X44679Y6236D01*
G01X44744Y6275D01*
G01X44808Y6312D01*
G01X45270Y6586D01*
G01X45272Y9204D01*
G37*

%LPD*%
G54D10*
G01X140100Y30500D02*
G01X153100Y30500D01*
G01X153100Y22500D01*
G01X140100Y22500D01*
G01X140100Y30500D01*
G01X1900Y30500D02*
G01X14900Y30500D01*
G01X14900Y22500D01*
G01X1900Y22500D01*
G01X1900Y30500D01*
G01X58000Y24799D02*
G01X58400Y24799D01*
G01X58400Y24399D01*
G01X58000Y24799D01*
G01X53700Y25899D02*
G01X53969Y25899D01*
G01X55430Y25899D02*
G01X56969Y25899D01*
G01X58430Y25899D02*
G01X58700Y25899D01*
G01X53700Y20899D02*
G01X53969Y20899D01*
G01X55430Y20899D02*
G01X56969Y20899D01*
G01X58430Y20899D02*
G01X58700Y20899D01*
G01X53700Y20899D02*
G01X53700Y25899D01*
G01X58700Y20899D02*
G01X58700Y25899D01*
G01X74500Y24799D02*
G01X74900Y24799D01*
G01X74900Y24399D01*
G01X74500Y24799D01*
G01X70200Y25899D02*
G01X70469Y25899D01*
G01X71930Y25899D02*
G01X73469Y25899D01*
G01X74930Y25899D02*
G01X75200Y25899D01*
G01X70200Y20899D02*
G01X70469Y20899D01*
G01X71930Y20899D02*
G01X73469Y20899D01*
G01X74930Y20899D02*
G01X75200Y20899D01*
G01X70200Y20899D02*
G01X70200Y25899D01*
G01X75200Y20899D02*
G01X75200Y25899D01*
G01X96600Y33099D02*
G01X97000Y33099D01*
G01X97000Y32699D01*
G01X96600Y33099D01*
G01X92300Y34199D02*
G01X92569Y34199D01*
G01X94030Y34199D02*
G01X95569Y34199D01*
G01X97030Y34199D02*
G01X97300Y34199D01*
G01X92300Y29199D02*
G01X92569Y29199D01*
G01X94030Y29199D02*
G01X95569Y29199D01*
G01X97030Y29199D02*
G01X97300Y29199D01*
G01X92300Y29199D02*
G01X92300Y34199D01*
G01X97300Y29199D02*
G01X97300Y34199D01*
G01X96600Y16499D02*
G01X97000Y16499D01*
G01X97000Y16099D01*
G01X96600Y16499D01*
G01X92300Y17599D02*
G01X92569Y17599D01*
G01X94030Y17599D02*
G01X95569Y17599D01*
G01X97030Y17599D02*
G01X97300Y17599D01*
G01X92300Y12599D02*
G01X92569Y12599D01*
G01X94030Y12599D02*
G01X95569Y12599D01*
G01X97030Y12599D02*
G01X97300Y12599D01*
G01X92300Y12599D02*
G01X92300Y17599D01*
G01X97300Y12599D02*
G01X97300Y17599D01*
G01X165937Y21128D02*
G01X165937Y14128D01*
G01X165937Y14128D02*
G01X160079Y14128D01*
G01X160079Y21128D01*
G01X165540Y14128D02*
G01X165540Y-3871D01*
G01X160440Y14128D02*
G01X160440Y-3871D01*
G01X168080Y22290D02*
G01X168080Y21147D01*
G01X165540Y-3871D02*
G01X160440Y-3871D01*
G01X168080Y21147D02*
G01X157954Y21147D01*
G01X157920Y21147D02*
G01X157920Y22290D01*
G01X154999Y33593D02*
G01X154999Y22290D01*
G01X171001Y22290D02*
G01X171001Y33593D01*
G01X171001Y33593D02*
G01X155000Y33593D01*
G01X171001Y22290D02*
G01X155001Y22290D01*
G01X138200Y23748D02*
G01X126202Y23748D01*
G01X126202Y23748D02*
G01X126202Y31698D01*
G01X138200Y31698D02*
G01X138200Y23748D01*
G01X137199Y30198D02*
G01X137200Y31700D01*
G01X138200Y31700D01*
G01X134700Y23800D02*
G01X134700Y23800D01*
G01X134702Y27798D01*
G01X129698Y27798D01*
G01X129698Y23797D01*
G01X131202Y23797D01*
G01X134697Y24399D02*
G01X129700Y24400D01*
G01X126201Y31699D02*
G01X127202Y31699D01*
G01X127202Y30198D01*
G01X137200Y25900D02*
G01X135300Y25900D01*
G01X135300Y28400D01*
G01X137200Y28400D01*
G01X137200Y25900D01*
G01X129102Y25898D02*
G01X127202Y25898D01*
G01X127202Y28398D01*
G01X129102Y28398D01*
G01X129102Y25898D01*
G01X24910Y24959D02*
G01X24910Y30039D01*
G01X17289Y24959D02*
G01X17290Y30039D01*
G01X24910Y24959D02*
G01X17290Y24960D01*
G01X22497Y30040D02*
G01X24402Y30040D01*
G01X22370Y31569D02*
G01X19830Y31569D01*
G01X19702Y31056D02*
G01X19702Y30040D01*
G01X22496Y31054D02*
G01X22496Y30040D01*
G01X19703Y30040D02*
G01X17798Y30040D01*
G01X24401Y25468D02*
G01X24401Y29532D01*
G01X21988Y29532D01*
G01X21988Y31056D01*
G01X20210Y31056D01*
G01X20210Y29532D01*
G01X17797Y29532D01*
G01X17797Y25468D01*
G01X24401Y25468D01*
G01X21734Y24960D02*
G01X21734Y25468D01*
G01X20464Y25468D02*
G01X20464Y24960D01*
G01X24910Y30040D02*
G01X24910Y31564D01*
G01X22370Y31564D01*
G01X19830Y31564D02*
G01X17290Y31564D01*
G01X17290Y30040D01*
G01X17798Y30040D02*
G01X17798Y31056D01*
G01X24402Y30040D02*
G01X24402Y31056D01*
G01X24402Y31056D02*
G01X22497Y31056D01*
G01X19703Y31056D02*
G01X17798Y31056D01*
G01X22497Y31056D02*
G01X21989Y31056D01*
G01X20211Y31056D02*
G01X19703Y31056D01*
G01X24402Y30040D02*
G01X24402Y29532D01*
G01X17798Y30040D02*
G01X17798Y29532D01*
G54D22*
G01X46899Y5853D02*
G01X46899Y4761D01*
G01X47503Y5490D02*
G01X47399Y5436D01*
G01X47295Y5332D01*
G01X47242Y5177D01*
G01X47242Y5073D01*
G01X47295Y4918D01*
G01X47399Y4814D01*
G01X47503Y4761D01*
G01X47658Y4761D01*
G01X47762Y4814D01*
G01X47867Y4918D01*
G01X47917Y5073D01*
G01X47917Y5177D01*
G01X47867Y5332D01*
G01X47762Y5436D01*
G01X47658Y5490D01*
G01X47503Y5490D01*
G01X48260Y5853D02*
G01X48260Y4761D01*
G01X49228Y5490D02*
G01X49228Y4761D01*
G01X49228Y5332D02*
G01X49124Y5436D01*
G01X49020Y5490D01*
G01X48862Y5490D01*
G01X48761Y5436D01*
G01X48657Y5332D01*
G01X48603Y5177D01*
G01X48603Y5073D01*
G01X48657Y4918D01*
G01X48761Y4814D01*
G01X48862Y4761D01*
G01X49020Y4761D01*
G01X49124Y4814D01*
G01X49228Y4918D01*
G01X49571Y5490D02*
G01X49571Y4761D01*
G01X49571Y5282D02*
G01X49726Y5436D01*
G01X49830Y5490D01*
G01X49985Y5490D01*
G01X50089Y5436D01*
G01X50142Y5282D01*
G01X50142Y4761D01*
G01X50485Y5853D02*
G01X50536Y5802D01*
G01X50590Y5853D01*
G01X50536Y5904D01*
G01X50485Y5853D01*
G01X50536Y5490D02*
G01X50536Y4761D01*
G01X52459Y5698D02*
G01X52355Y5802D01*
G01X52200Y5853D01*
G01X51992Y5853D01*
G01X51834Y5802D01*
G01X51733Y5698D01*
G01X51733Y5594D01*
G01X51783Y5490D01*
G01X51834Y5436D01*
G01X51938Y5386D01*
G01X52251Y5282D01*
G01X52355Y5231D01*
G01X52406Y5177D01*
G01X52459Y5073D01*
G01X52459Y4918D01*
G01X52355Y4814D01*
G01X52200Y4761D01*
G01X51992Y4761D01*
G01X51834Y4814D01*
G01X51733Y4918D01*
G01X53424Y5332D02*
G01X53320Y5436D01*
G01X53218Y5490D01*
G01X53061Y5490D01*
G01X52957Y5436D01*
G01X52853Y5332D01*
G01X52802Y5177D01*
G01X52802Y5073D01*
G01X52853Y4918D01*
G01X52957Y4814D01*
G01X53061Y4761D01*
G01X53218Y4761D01*
G01X53320Y4814D01*
G01X53424Y4918D01*
G01X53767Y5853D02*
G01X53767Y4761D01*
G01X53767Y5282D02*
G01X53925Y5436D01*
G01X54029Y5490D01*
G01X54184Y5490D01*
G01X54288Y5436D01*
G01X54339Y5282D01*
G01X54339Y4761D01*
G01X54943Y5490D02*
G01X54839Y5436D01*
G01X54735Y5332D01*
G01X54681Y5177D01*
G01X54681Y5073D01*
G01X54735Y4918D01*
G01X54839Y4814D01*
G01X54943Y4761D01*
G01X55098Y4761D01*
G01X55202Y4814D01*
G01X55306Y4918D01*
G01X55357Y5073D01*
G01X55357Y5177D01*
G01X55306Y5332D01*
G01X55202Y5436D01*
G01X55098Y5490D01*
G01X54943Y5490D01*
G01X55962Y5490D02*
G01X55857Y5436D01*
G01X55753Y5332D01*
G01X55700Y5177D01*
G01X55700Y5073D01*
G01X55753Y4918D01*
G01X55857Y4814D01*
G01X55962Y4761D01*
G01X56117Y4761D01*
G01X56221Y4814D01*
G01X56325Y4918D01*
G01X56376Y5073D01*
G01X56376Y5177D01*
G01X56325Y5332D01*
G01X56221Y5436D01*
G01X56117Y5490D01*
G01X55962Y5490D01*
G01X56719Y5853D02*
G01X56719Y4761D01*
G01X57862Y5853D02*
G01X57915Y5802D01*
G01X57966Y5853D01*
G01X57915Y5904D01*
G01X57862Y5853D01*
G01X57915Y5490D02*
G01X57915Y4761D01*
G01X58309Y5853D02*
G01X58309Y4761D01*
G01X58309Y5853D02*
G01X58672Y5853D01*
G01X58829Y5802D01*
G01X58933Y5698D01*
G01X58984Y5594D01*
G01X59035Y5436D01*
G01X59035Y5177D01*
G01X58984Y5022D01*
G01X58933Y4918D01*
G01X58829Y4814D01*
G01X58672Y4761D01*
G01X58309Y4761D01*
G01X59378Y5177D02*
G01X60003Y5177D01*
G01X60003Y5282D01*
G01X59949Y5386D01*
G01X59899Y5436D01*
G01X59794Y5490D01*
G01X59640Y5490D01*
G01X59535Y5436D01*
G01X59431Y5332D01*
G01X59378Y5177D01*
G01X59378Y5073D01*
G01X59431Y4918D01*
G01X59535Y4814D01*
G01X59640Y4761D01*
G01X59794Y4761D01*
G01X59899Y4814D01*
G01X60003Y4918D01*
G01X60346Y5490D02*
G01X60346Y4398D01*
G01X60346Y5332D02*
G01X60450Y5436D01*
G01X60554Y5490D01*
G01X60709Y5490D01*
G01X60813Y5436D01*
G01X60917Y5332D01*
G01X60968Y5177D01*
G01X60968Y5073D01*
G01X60917Y4918D01*
G01X60813Y4814D01*
G01X60709Y4761D01*
G01X60554Y4761D01*
G01X60450Y4814D01*
G01X60346Y4918D01*
G01X61468Y5853D02*
G01X61468Y4969D01*
G01X61519Y4814D01*
G01X61623Y4761D01*
G01X61727Y4761D01*
G01X61311Y5490D02*
G01X61677Y5490D01*
G54D23*
G01X40399Y12911D02*
G01X40399Y11765D01*
G01X40399Y12911D02*
G01X40889Y12911D01*
G01X41054Y12855D01*
G01X41108Y12802D01*
G01X41164Y12692D01*
G01X41164Y12583D01*
G01X41108Y12474D01*
G01X41054Y12421D01*
G01X40889Y12365D01*
G01X40399Y12365D02*
G01X40889Y12365D01*
G01X41054Y12311D01*
G01X41108Y12255D01*
G01X41164Y12146D01*
G01X41164Y11984D01*
G01X41108Y11874D01*
G01X41054Y11819D01*
G01X40889Y11765D01*
G01X40399Y11765D01*
G01X41524Y12202D02*
G01X42177Y12202D01*
G01X42177Y12311D01*
G01X42124Y12421D01*
G01X42068Y12474D01*
G01X41959Y12530D01*
G01X41796Y12530D01*
G01X41687Y12474D01*
G01X41578Y12365D01*
G01X41524Y12202D01*
G01X41524Y12093D01*
G01X41578Y11928D01*
G01X41687Y11819D01*
G01X41796Y11765D01*
G01X41959Y11765D01*
G01X42068Y11819D01*
G01X42177Y11928D01*
G01X43193Y12530D02*
G01X43193Y11765D01*
G01X43193Y12365D02*
G01X43084Y12474D01*
G01X42975Y12530D01*
G01X42809Y12530D01*
G01X42700Y12474D01*
G01X42591Y12365D01*
G01X42538Y12202D01*
G01X42538Y12093D01*
G01X42591Y11928D01*
G01X42700Y11819D01*
G01X42809Y11765D01*
G01X42975Y11765D01*
G01X43084Y11819D01*
G01X43193Y11928D01*
G01X44206Y12365D02*
G01X44097Y12474D01*
G01X43988Y12530D01*
G01X43825Y12530D01*
G01X43716Y12474D01*
G01X43607Y12365D01*
G01X43551Y12202D01*
G01X43551Y12093D01*
G01X43607Y11928D01*
G01X43716Y11819D01*
G01X43825Y11765D01*
G01X43988Y11765D01*
G01X44097Y11819D01*
G01X44206Y11928D01*
G01X44567Y12911D02*
G01X44567Y11765D01*
G01X44567Y12311D02*
G01X44730Y12474D01*
G01X44839Y12530D01*
G01X45004Y12530D01*
G01X45113Y12474D01*
G01X45167Y12311D01*
G01X45167Y11765D01*
G01X46368Y12911D02*
G01X46368Y11765D01*
G01X46368Y12911D02*
G01X46858Y12911D01*
G01X47021Y12855D01*
G01X47077Y12802D01*
G01X47130Y12692D01*
G01X47130Y12583D01*
G01X47077Y12474D01*
G01X47021Y12421D01*
G01X46858Y12365D01*
G01X46368Y12365D02*
G01X46858Y12365D01*
G01X47021Y12311D01*
G01X47077Y12255D01*
G01X47130Y12146D01*
G01X47130Y11984D01*
G01X47077Y11874D01*
G01X47021Y11819D01*
G01X46858Y11765D01*
G01X46368Y11765D01*
G01X47491Y12530D02*
G01X47491Y11984D01*
G01X47544Y11819D01*
G01X47653Y11765D01*
G01X47818Y11765D01*
G01X47928Y11819D01*
G01X48090Y11984D01*
G01X48090Y12530D02*
G01X48090Y11765D01*
G01X49106Y12911D02*
G01X49106Y11765D01*
G01X49106Y12365D02*
G01X48997Y12474D01*
G01X48888Y12530D01*
G01X48723Y12530D01*
G01X48613Y12474D01*
G01X48504Y12365D01*
G01X48451Y12202D01*
G01X48451Y12093D01*
G01X48504Y11928D01*
G01X48613Y11819D01*
G01X48723Y11765D01*
G01X48888Y11765D01*
G01X48997Y11819D01*
G01X49106Y11928D01*
G01X50120Y12911D02*
G01X50120Y11765D01*
G01X50120Y12365D02*
G01X50010Y12474D01*
G01X49901Y12530D01*
G01X49739Y12530D01*
G01X49629Y12474D01*
G01X49520Y12365D01*
G01X49464Y12202D01*
G01X49464Y12093D01*
G01X49520Y11928D01*
G01X49629Y11819D01*
G01X49739Y11765D01*
G01X49901Y11765D01*
G01X50010Y11819D01*
G01X50120Y11928D01*
G01X50534Y12530D02*
G01X50861Y11765D01*
G01X51189Y12530D02*
G01X50861Y11765D01*
G01X50752Y11547D01*
G01X50643Y11438D01*
G01X50534Y11384D01*
G01X50480Y11384D01*
G01X52388Y12911D02*
G01X52388Y11765D01*
G01X52388Y12911D02*
G01X52771Y12911D01*
G01X52934Y12855D01*
G01X53043Y12746D01*
G01X53096Y12639D01*
G01X53152Y12474D01*
G01X53152Y12202D01*
G01X53096Y12037D01*
G01X53043Y11928D01*
G01X52934Y11819D01*
G01X52771Y11765D01*
G01X52388Y11765D01*
G01X53513Y12911D02*
G01X53566Y12855D01*
G01X53622Y12911D01*
G01X53566Y12964D01*
G01X53513Y12911D01*
G01X53566Y12530D02*
G01X53566Y11765D01*
G01X54582Y12365D02*
G01X54527Y12474D01*
G01X54364Y12530D01*
G01X54199Y12530D01*
G01X54036Y12474D01*
G01X53980Y12365D01*
G01X54036Y12255D01*
G01X54146Y12202D01*
G01X54417Y12146D01*
G01X54527Y12093D01*
G01X54582Y11984D01*
G01X54582Y11928D01*
G01X54527Y11819D01*
G01X54364Y11765D01*
G01X54199Y11765D01*
G01X54036Y11819D01*
G01X53980Y11928D01*
G01X54941Y12530D02*
G01X54941Y11384D01*
G01X54941Y12365D02*
G01X55050Y12474D01*
G01X55159Y12530D01*
G01X55324Y12530D01*
G01X55433Y12474D01*
G01X55543Y12365D01*
G01X55596Y12202D01*
G01X55596Y12093D01*
G01X55543Y11928D01*
G01X55433Y11819D01*
G01X55324Y11765D01*
G01X55159Y11765D01*
G01X55050Y11819D01*
G01X54941Y11928D01*
G01X55957Y12911D02*
G01X55957Y11765D01*
G01X56970Y12530D02*
G01X56970Y11765D01*
G01X56970Y12365D02*
G01X56861Y12474D01*
G01X56752Y12530D01*
G01X56589Y12530D01*
G01X56480Y12474D01*
G01X56371Y12365D01*
G01X56315Y12202D01*
G01X56315Y12093D01*
G01X56371Y11928D01*
G01X56480Y11819D01*
G01X56589Y11765D01*
G01X56752Y11765D01*
G01X56861Y11819D01*
G01X56970Y11928D01*
G01X57384Y12530D02*
G01X57712Y11765D01*
G01X58039Y12530D02*
G01X57712Y11765D01*
G01X57602Y11547D01*
G01X57493Y11438D01*
G01X57384Y11384D01*
G01X57331Y11384D01*
G01X59238Y12911D02*
G01X59238Y11765D01*
G01X59238Y12911D02*
G01X59731Y12911D01*
G01X59894Y12855D01*
G01X59949Y12802D01*
G01X60003Y12692D01*
G01X60003Y12583D01*
G01X59949Y12474D01*
G01X59894Y12421D01*
G01X59731Y12365D01*
G01X59238Y12365D02*
G01X59731Y12365D01*
G01X59894Y12311D01*
G01X59949Y12255D01*
G01X60003Y12146D01*
G01X60003Y11984D01*
G01X59949Y11874D01*
G01X59894Y11819D01*
G01X59731Y11765D01*
G01X59238Y11765D01*
G01X60635Y12530D02*
G01X60526Y12474D01*
G01X60417Y12365D01*
G01X60363Y12202D01*
G01X60363Y12093D01*
G01X60417Y11928D01*
G01X60526Y11819D01*
G01X60635Y11765D01*
G01X60800Y11765D01*
G01X60910Y11819D01*
G01X61019Y11928D01*
G01X61072Y12093D01*
G01X61072Y12202D01*
G01X61019Y12365D01*
G01X60910Y12474D01*
G01X60800Y12530D01*
G01X60635Y12530D01*
G01X62086Y12530D02*
G01X62086Y11765D01*
G01X62086Y12365D02*
G01X61979Y12474D01*
G01X61870Y12530D01*
G01X61705Y12530D01*
G01X61595Y12474D01*
G01X61486Y12365D01*
G01X61433Y12202D01*
G01X61433Y12093D01*
G01X61486Y11928D01*
G01X61595Y11819D01*
G01X61705Y11765D01*
G01X61870Y11765D01*
G01X61979Y11819D01*
G01X62086Y11928D01*
G01X62446Y12530D02*
G01X62446Y11765D01*
G01X62446Y12202D02*
G01X62502Y12365D01*
G01X62611Y12474D01*
G01X62721Y12530D01*
G01X62883Y12530D01*
G01X63897Y12911D02*
G01X63897Y11765D01*
G01X63897Y12365D02*
G01X63787Y12474D01*
G01X63681Y12530D01*
G01X63516Y12530D01*
G01X63406Y12474D01*
G01X63297Y12365D01*
G01X63244Y12202D01*
G01X63244Y12093D01*
G01X63297Y11928D01*
G01X63406Y11819D01*
G01X63516Y11765D01*
G01X63681Y11765D01*
G01X63787Y11819D01*
G01X63897Y11928D01*
G01X65098Y12911D02*
G01X65535Y11765D01*
G01X65969Y12911D02*
G01X65535Y11765D01*
G01X66330Y12692D02*
G01X66439Y12746D01*
G01X66604Y12911D01*
G01X66604Y11765D01*
G01X67018Y12037D02*
G01X66962Y11984D01*
G01X67018Y11928D01*
G01X67072Y11984D01*
G01X67018Y12037D01*
G01X67760Y12911D02*
G01X67595Y12855D01*
G01X67486Y12692D01*
G01X67432Y12421D01*
G01X67432Y12255D01*
G01X67486Y11984D01*
G01X67595Y11819D01*
G01X67760Y11765D01*
G01X67869Y11765D01*
G01X68032Y11819D01*
G01X68141Y11984D01*
G01X68197Y12255D01*
G01X68197Y12421D01*
G01X68141Y12692D01*
G01X68032Y12855D01*
G01X67869Y12911D01*
G01X67760Y12911D01*
G54D24*
G01X147326Y31557D02*
G01X147222Y31661D01*
G01X147067Y31712D01*
G01X146859Y31712D01*
G01X146704Y31661D01*
G01X146600Y31557D01*
G01X146600Y31453D01*
G01X146650Y31348D01*
G01X146704Y31295D01*
G01X146808Y31244D01*
G01X147120Y31140D01*
G01X147222Y31089D01*
G01X147275Y31036D01*
G01X147326Y30932D01*
G01X147326Y30777D01*
G01X147222Y30673D01*
G01X147067Y30622D01*
G01X146859Y30622D01*
G01X146704Y30673D01*
G01X146600Y30777D01*
G01X147669Y31712D02*
G01X147931Y30622D01*
G01X148190Y31712D02*
G01X147931Y30622D01*
G01X148190Y31712D02*
G01X148449Y30622D01*
G01X148708Y31712D02*
G01X148449Y30622D01*
G01X149104Y31453D02*
G01X149104Y31503D01*
G01X149155Y31607D01*
G01X149208Y31661D01*
G01X149312Y31712D01*
G01X149521Y31712D01*
G01X149622Y31661D01*
G01X149676Y31607D01*
G01X149726Y31503D01*
G01X149726Y31399D01*
G01X149676Y31295D01*
G01X149571Y31140D01*
G01X149051Y30622D01*
G01X149780Y30622D01*
G01X16326Y23998D02*
G01X16222Y24102D01*
G01X16067Y24153D01*
G01X15859Y24153D01*
G01X15704Y24102D01*
G01X15600Y23998D01*
G01X15600Y23894D01*
G01X15650Y23790D01*
G01X15704Y23736D01*
G01X15808Y23685D01*
G01X16120Y23581D01*
G01X16222Y23530D01*
G01X16275Y23477D01*
G01X16326Y23373D01*
G01X16326Y23218D01*
G01X16222Y23114D01*
G01X16067Y23063D01*
G01X15859Y23063D01*
G01X15704Y23114D01*
G01X15600Y23218D01*
G01X16669Y24153D02*
G01X16931Y23063D01*
G01X17190Y24153D02*
G01X16931Y23063D01*
G01X17190Y24153D02*
G01X17449Y23063D01*
G01X17708Y24153D02*
G01X17449Y23063D01*
G01X18155Y24153D02*
G01X18726Y24153D01*
G01X18417Y23736D01*
G01X18571Y23736D01*
G01X18676Y23685D01*
G01X18726Y23635D01*
G01X18780Y23477D01*
G01X18780Y23373D01*
G01X18726Y23218D01*
G01X18622Y23114D01*
G01X18467Y23063D01*
G01X18312Y23063D01*
G01X18155Y23114D01*
G01X18104Y23165D01*
G01X18051Y23269D01*
G01X54499Y19453D02*
G01X54499Y18363D01*
G01X54499Y18363D02*
G01X55122Y18363D01*
G01X55465Y19453D02*
G01X55465Y18363D01*
G01X55465Y19453D02*
G01X56140Y19453D01*
G01X55465Y18935D02*
G01X55881Y18935D01*
G01X55465Y18363D02*
G01X56140Y18363D01*
G01X56483Y19453D02*
G01X56483Y18363D01*
G01X56483Y19453D02*
G01X56849Y19453D01*
G01X57004Y19402D01*
G01X57108Y19298D01*
G01X57159Y19194D01*
G01X57212Y19036D01*
G01X57212Y18777D01*
G01X57159Y18622D01*
G01X57108Y18518D01*
G01X57004Y18414D01*
G01X56849Y18363D01*
G01X56483Y18363D01*
G01X57555Y19245D02*
G01X57659Y19298D01*
G01X57814Y19453D01*
G01X57814Y18363D01*
G01X71000Y19253D02*
G01X71000Y18163D01*
G01X71000Y18163D02*
G01X71622Y18163D01*
G01X71965Y19253D02*
G01X71965Y18163D01*
G01X71965Y19253D02*
G01X72640Y19253D01*
G01X71965Y18735D02*
G01X72381Y18735D01*
G01X71965Y18163D02*
G01X72640Y18163D01*
G01X72983Y19253D02*
G01X72983Y18163D01*
G01X72983Y19253D02*
G01X73349Y19253D01*
G01X73504Y19202D01*
G01X73608Y19098D01*
G01X73659Y18994D01*
G01X73712Y18836D01*
G01X73712Y18577D01*
G01X73659Y18422D01*
G01X73608Y18318D01*
G01X73504Y18214D01*
G01X73349Y18163D01*
G01X72983Y18163D01*
G01X74106Y18994D02*
G01X74106Y19044D01*
G01X74159Y19149D01*
G01X74210Y19202D01*
G01X74314Y19253D01*
G01X74523Y19253D01*
G01X74627Y19202D01*
G01X74677Y19149D01*
G01X74731Y19044D01*
G01X74731Y18940D01*
G01X74677Y18836D01*
G01X74573Y18681D01*
G01X74055Y18163D01*
G01X74782Y18163D01*
G01X98100Y31953D02*
G01X98100Y30863D01*
G01X98100Y30863D02*
G01X98722Y30863D01*
G01X99065Y31953D02*
G01X99065Y30863D01*
G01X99065Y31953D02*
G01X99740Y31953D01*
G01X99065Y31435D02*
G01X99481Y31435D01*
G01X99065Y30863D02*
G01X99740Y30863D01*
G01X100083Y31953D02*
G01X100083Y30863D01*
G01X100083Y31953D02*
G01X100449Y31953D01*
G01X100604Y31902D01*
G01X100708Y31798D01*
G01X100759Y31694D01*
G01X100812Y31536D01*
G01X100812Y31277D01*
G01X100759Y31122D01*
G01X100708Y31018D01*
G01X100604Y30914D01*
G01X100449Y30863D01*
G01X100083Y30863D01*
G01X101259Y31953D02*
G01X101831Y31953D01*
G01X101518Y31536D01*
G01X101673Y31536D01*
G01X101778Y31485D01*
G01X101831Y31435D01*
G01X101882Y31277D01*
G01X101882Y31173D01*
G01X101831Y31018D01*
G01X101727Y30914D01*
G01X101569Y30863D01*
G01X101414Y30863D01*
G01X101259Y30914D01*
G01X101206Y30965D01*
G01X101155Y31069D01*
G01X98200Y15453D02*
G01X98200Y14363D01*
G01X98200Y14363D02*
G01X98822Y14363D01*
G01X99165Y15453D02*
G01X99165Y14363D01*
G01X99165Y15453D02*
G01X99840Y15453D01*
G01X99165Y14935D02*
G01X99581Y14935D01*
G01X99165Y14363D02*
G01X99840Y14363D01*
G01X100183Y15453D02*
G01X100183Y14363D01*
G01X100183Y15453D02*
G01X100549Y15453D01*
G01X100704Y15402D01*
G01X100808Y15298D01*
G01X100859Y15194D01*
G01X100912Y15036D01*
G01X100912Y14777D01*
G01X100859Y14622D01*
G01X100808Y14518D01*
G01X100704Y14414D01*
G01X100549Y14363D01*
G01X100183Y14363D01*
G01X101773Y15453D02*
G01X101255Y14726D01*
G01X102035Y14726D01*
G01X101773Y15453D02*
G01X101773Y14363D01*
G01X172453Y26100D02*
G01X171363Y26100D01*
G01X172453Y26100D02*
G01X172453Y25632D01*
G01X172402Y25477D01*
G01X172348Y25424D01*
G01X172244Y25373D01*
G01X172140Y25373D01*
G01X172036Y25424D01*
G01X171985Y25477D01*
G01X171934Y25632D01*
G01X171934Y26100D01*
G01X171934Y25736D02*
G01X171363Y25373D01*
G01X172244Y25030D02*
G01X172298Y24926D01*
G01X172453Y24769D01*
G01X171363Y24769D01*
G01X132700Y22146D02*
G01X132700Y22926D01*
G01X132649Y23081D01*
G01X132545Y23185D01*
G01X132387Y23236D01*
G01X132283Y23236D01*
G01X132128Y23185D01*
G01X132024Y23081D01*
G01X131973Y22926D01*
G01X131973Y22146D01*
G01X131630Y22355D02*
G01X131526Y22301D01*
G01X131369Y22146D01*
G01X131369Y23236D01*
G01X27820Y29606D02*
G01X27873Y29501D01*
G01X27977Y29397D01*
G01X28079Y29346D01*
G01X28287Y29346D01*
G01X28391Y29397D01*
G01X28495Y29501D01*
G01X28549Y29606D01*
G01X28599Y29763D01*
G01X28599Y30022D01*
G01X28549Y30177D01*
G01X28495Y30281D01*
G01X28391Y30385D01*
G01X28287Y30436D01*
G01X28079Y30436D01*
G01X27977Y30385D01*
G01X27873Y30281D01*
G01X27820Y30177D01*
G01X27477Y29346D02*
G01X27477Y30436D01*
G01X27477Y29346D02*
G01X26750Y30436D01*
G01X26750Y29346D02*
G01X26750Y30436D01*
G01X26354Y29606D02*
G01X26354Y29555D01*
G01X26303Y29451D01*
G01X26250Y29397D01*
G01X26148Y29346D01*
G01X25940Y29346D01*
G01X25836Y29397D01*
G01X25783Y29451D01*
G01X25732Y29555D01*
G01X25732Y29659D01*
G01X25783Y29763D01*
G01X25887Y29918D01*
G01X26407Y30436D01*
G01X25678Y30436D01*
G54D10*
G75*
G01X57700Y23399D02*
G03X57700Y23399I-1500J0D01*
G01*
G75*
G01X74200Y23399D02*
G03X74200Y23399I-1500J0D01*
G01*
G75*
G01X96300Y31699D02*
G03X96300Y31699I-1500J0D01*
G01*
G75*
G01X96300Y15099D02*
G03X96300Y15099I-1500J0D01*
G01*
M00*
M02*
