G04 Layer: TopLayer*
G04 EasyEDA v6.3.39, 2020-04-24T10:39:31-10:00*
G04 0f25efb224964ab9abe88dfcb523e386,a4d28be01f944deba2cf7c63a1f3ff09,10*
G04 Gerber Generator version 0.2*
G04 Scale: 100 percent, Rotated: No, Reflected: No *
G04 Dimensions in millimeters *
G04 leading zeros omitted , absolute positions ,3 integer and 3 decimal *
%FSLAX33Y33*%
%MOMM*%
G90*
G71D02*

%ADD11C,0.250012*%
%ADD12C,1.999996*%
%ADD13C,0.499999*%
%ADD14C,0.609600*%
%ADD16C,5.499989*%
%ADD17R,2.199996X2.199996*%
%ADD18C,2.199996*%
%ADD19R,1.524000X1.524000*%
%ADD20C,1.524000*%
%ADD21C,1.799996*%

%LPD*%
G36*
G01X121641Y52743D02*
G01X29358Y52743D01*
G01X29343Y52742D01*
G01X29329Y52739D01*
G01X29315Y52734D01*
G01X29303Y52727D01*
G01X29291Y52718D01*
G01X29281Y52708D01*
G01X29272Y52696D01*
G01X29265Y52684D01*
G01X29260Y52670D01*
G01X29257Y52656D01*
G01X29256Y52641D01*
G01X29256Y31800D01*
G01X29255Y31776D01*
G01X29251Y31752D01*
G01X29246Y31730D01*
G01X29239Y31707D01*
G01X29229Y31685D01*
G01X29217Y31665D01*
G01X29204Y31645D01*
G01X29189Y31626D01*
G01X29172Y31610D01*
G01X29154Y31595D01*
G01X29135Y31581D01*
G01X29114Y31570D01*
G01X29092Y31560D01*
G01X29070Y31553D01*
G01X29047Y31547D01*
G01X29023Y31544D01*
G01X29000Y31543D01*
G01X357Y31543D01*
G01X343Y31542D01*
G01X329Y31539D01*
G01X315Y31534D01*
G01X303Y31527D01*
G01X291Y31518D01*
G01X281Y31508D01*
G01X272Y31496D01*
G01X265Y31484D01*
G01X260Y31470D01*
G01X257Y31456D01*
G01X256Y31442D01*
G01X256Y21558D01*
G01X257Y21543D01*
G01X260Y21529D01*
G01X265Y21515D01*
G01X272Y21503D01*
G01X281Y21491D01*
G01X291Y21481D01*
G01X303Y21472D01*
G01X315Y21465D01*
G01X329Y21460D01*
G01X343Y21457D01*
G01X357Y21456D01*
G01X29000Y21455D01*
G01X29023Y21454D01*
G01X29047Y21451D01*
G01X29070Y21446D01*
G01X29092Y21438D01*
G01X29114Y21428D01*
G01X29135Y21417D01*
G01X29154Y21403D01*
G01X29172Y21388D01*
G01X29189Y21371D01*
G01X29204Y21353D01*
G01X29217Y21334D01*
G01X29229Y21313D01*
G01X29239Y21291D01*
G01X29246Y21269D01*
G01X29251Y21246D01*
G01X29255Y21223D01*
G01X29256Y21199D01*
G01X29256Y358D01*
G01X29257Y343D01*
G01X29260Y329D01*
G01X29265Y315D01*
G01X29272Y303D01*
G01X29281Y291D01*
G01X29291Y281D01*
G01X29303Y272D01*
G01X29315Y265D01*
G01X29329Y260D01*
G01X29343Y257D01*
G01X29358Y256D01*
G01X121641Y256D01*
G01X121655Y257D01*
G01X121669Y260D01*
G01X121683Y265D01*
G01X121696Y272D01*
G01X121707Y281D01*
G01X121718Y291D01*
G01X121726Y303D01*
G01X121733Y315D01*
G01X121738Y329D01*
G01X121742Y343D01*
G01X121743Y358D01*
G01X121743Y21199D01*
G01X121744Y21223D01*
G01X121747Y21246D01*
G01X121752Y21269D01*
G01X121760Y21291D01*
G01X121769Y21313D01*
G01X121781Y21334D01*
G01X121794Y21353D01*
G01X121810Y21371D01*
G01X121826Y21388D01*
G01X121845Y21403D01*
G01X121864Y21417D01*
G01X121885Y21428D01*
G01X121907Y21438D01*
G01X121929Y21446D01*
G01X121952Y21451D01*
G01X121975Y21454D01*
G01X121999Y21455D01*
G01X172642Y21456D01*
G01X172656Y21457D01*
G01X172670Y21460D01*
G01X172684Y21465D01*
G01X172696Y21472D01*
G01X172708Y21481D01*
G01X172718Y21491D01*
G01X172727Y21503D01*
G01X172734Y21515D01*
G01X172739Y21529D01*
G01X172742Y21543D01*
G01X172743Y21558D01*
G01X172743Y31342D01*
G01X172742Y31357D01*
G01X172739Y31371D01*
G01X172734Y31384D01*
G01X172727Y31397D01*
G01X172718Y31409D01*
G01X172708Y31419D01*
G01X172696Y31427D01*
G01X172684Y31434D01*
G01X172670Y31440D01*
G01X172656Y31443D01*
G01X172642Y31444D01*
G01X121999Y31544D01*
G01X121975Y31545D01*
G01X121951Y31549D01*
G01X121928Y31554D01*
G01X121906Y31561D01*
G01X121884Y31571D01*
G01X121864Y31583D01*
G01X121844Y31596D01*
G01X121826Y31611D01*
G01X121809Y31628D01*
G01X121794Y31646D01*
G01X121781Y31666D01*
G01X121769Y31686D01*
G01X121760Y31708D01*
G01X121752Y31731D01*
G01X121747Y31753D01*
G01X121744Y31777D01*
G01X121743Y31801D01*
G01X121743Y52641D01*
G01X121742Y52656D01*
G01X121738Y52670D01*
G01X121733Y52684D01*
G01X121726Y52696D01*
G01X121718Y52708D01*
G01X121707Y52718D01*
G01X121696Y52727D01*
G01X121683Y52734D01*
G01X121669Y52739D01*
G01X121655Y52742D01*
G01X121641Y52743D01*
G37*

%LPC*%
G36*
G01X33578Y7505D02*
G01X33499Y7506D01*
G01X33421Y7505D01*
G01X33342Y7502D01*
G01X33264Y7497D01*
G01X33185Y7489D01*
G01X33107Y7480D01*
G01X33029Y7469D01*
G01X32952Y7456D01*
G01X32875Y7441D01*
G01X32798Y7423D01*
G01X32721Y7403D01*
G01X32645Y7382D01*
G01X32570Y7359D01*
G01X32496Y7333D01*
G01X32422Y7306D01*
G01X32349Y7277D01*
G01X32277Y7246D01*
G01X32205Y7213D01*
G01X32134Y7178D01*
G01X32065Y7142D01*
G01X31996Y7103D01*
G01X31929Y7063D01*
G01X31862Y7021D01*
G01X31797Y6977D01*
G01X31733Y6932D01*
G01X31669Y6885D01*
G01X31608Y6836D01*
G01X31547Y6786D01*
G01X31488Y6734D01*
G01X31430Y6681D01*
G01X31373Y6625D01*
G01X31319Y6569D01*
G01X31265Y6511D01*
G01X31213Y6452D01*
G01X31163Y6392D01*
G01X31114Y6330D01*
G01X31067Y6267D01*
G01X31022Y6203D01*
G01X30978Y6137D01*
G01X30936Y6071D01*
G01X30896Y6003D01*
G01X30857Y5934D01*
G01X30821Y5864D01*
G01X30786Y5794D01*
G01X30753Y5723D01*
G01X30722Y5650D01*
G01X30693Y5577D01*
G01X30665Y5503D01*
G01X30640Y5428D01*
G01X30617Y5353D01*
G01X30596Y5278D01*
G01X30576Y5201D01*
G01X30559Y5125D01*
G01X30543Y5047D01*
G01X30530Y4970D01*
G01X30519Y4892D01*
G01X30509Y4814D01*
G01X30502Y4735D01*
G01X30497Y4657D01*
G01X30494Y4578D01*
G01X30493Y4500D01*
G01X30494Y4421D01*
G01X30497Y4342D01*
G01X30502Y4264D01*
G01X30509Y4185D01*
G01X30519Y4107D01*
G01X30530Y4029D01*
G01X30543Y3952D01*
G01X30559Y3874D01*
G01X30576Y3798D01*
G01X30596Y3722D01*
G01X30617Y3646D01*
G01X30640Y3571D01*
G01X30665Y3496D01*
G01X30693Y3422D01*
G01X30722Y3349D01*
G01X30753Y3277D01*
G01X30786Y3205D01*
G01X30821Y3135D01*
G01X30857Y3065D01*
G01X30896Y2996D01*
G01X30936Y2929D01*
G01X30978Y2862D01*
G01X31022Y2796D01*
G01X31067Y2732D01*
G01X31114Y2669D01*
G01X31163Y2607D01*
G01X31213Y2547D01*
G01X31265Y2488D01*
G01X31319Y2430D01*
G01X31373Y2374D01*
G01X31430Y2318D01*
G01X31488Y2265D01*
G01X31547Y2213D01*
G01X31608Y2163D01*
G01X31669Y2114D01*
G01X31733Y2067D01*
G01X31797Y2022D01*
G01X31862Y1978D01*
G01X31929Y1936D01*
G01X31996Y1896D01*
G01X32065Y1857D01*
G01X32134Y1821D01*
G01X32205Y1786D01*
G01X32277Y1753D01*
G01X32349Y1722D01*
G01X32422Y1693D01*
G01X32496Y1666D01*
G01X32570Y1640D01*
G01X32645Y1617D01*
G01X32721Y1596D01*
G01X32798Y1576D01*
G01X32875Y1558D01*
G01X32952Y1543D01*
G01X33029Y1530D01*
G01X33107Y1519D01*
G01X33185Y1510D01*
G01X33264Y1502D01*
G01X33342Y1497D01*
G01X33421Y1494D01*
G01X33499Y1493D01*
G01X33578Y1494D01*
G01X33657Y1497D01*
G01X33736Y1502D01*
G01X33814Y1510D01*
G01X33892Y1519D01*
G01X33970Y1530D01*
G01X34048Y1543D01*
G01X34125Y1558D01*
G01X34201Y1576D01*
G01X34278Y1596D01*
G01X34353Y1617D01*
G01X34429Y1640D01*
G01X34503Y1666D01*
G01X34577Y1693D01*
G01X34650Y1722D01*
G01X34722Y1753D01*
G01X34794Y1786D01*
G01X34864Y1821D01*
G01X34934Y1857D01*
G01X35003Y1896D01*
G01X35071Y1936D01*
G01X35137Y1978D01*
G01X35202Y2022D01*
G01X35267Y2067D01*
G01X35330Y2114D01*
G01X35392Y2163D01*
G01X35452Y2213D01*
G01X35511Y2265D01*
G01X35569Y2318D01*
G01X35625Y2374D01*
G01X35680Y2430D01*
G01X35734Y2488D01*
G01X35786Y2547D01*
G01X35836Y2607D01*
G01X35885Y2669D01*
G01X35932Y2732D01*
G01X35977Y2796D01*
G01X36021Y2862D01*
G01X36063Y2929D01*
G01X36103Y2996D01*
G01X36141Y3065D01*
G01X36179Y3135D01*
G01X36213Y3205D01*
G01X36246Y3277D01*
G01X36277Y3349D01*
G01X36307Y3422D01*
G01X36334Y3496D01*
G01X36359Y3571D01*
G01X36382Y3646D01*
G01X36404Y3722D01*
G01X36423Y3798D01*
G01X36440Y3874D01*
G01X36456Y3952D01*
G01X36469Y4029D01*
G01X36480Y4107D01*
G01X36489Y4185D01*
G01X36497Y4264D01*
G01X36502Y4342D01*
G01X36505Y4421D01*
G01X36506Y4499D01*
G01X36505Y4578D01*
G01X36502Y4657D01*
G01X36497Y4735D01*
G01X36489Y4814D01*
G01X36480Y4892D01*
G01X36469Y4970D01*
G01X36456Y5047D01*
G01X36440Y5125D01*
G01X36423Y5201D01*
G01X36404Y5278D01*
G01X36382Y5353D01*
G01X36359Y5428D01*
G01X36334Y5503D01*
G01X36307Y5577D01*
G01X36277Y5650D01*
G01X36246Y5723D01*
G01X36213Y5794D01*
G01X36179Y5864D01*
G01X36141Y5934D01*
G01X36103Y6003D01*
G01X36063Y6071D01*
G01X36021Y6137D01*
G01X35977Y6203D01*
G01X35932Y6267D01*
G01X35885Y6330D01*
G01X35836Y6392D01*
G01X35786Y6452D01*
G01X35734Y6511D01*
G01X35680Y6569D01*
G01X35625Y6625D01*
G01X35569Y6681D01*
G01X35511Y6734D01*
G01X35452Y6786D01*
G01X35392Y6836D01*
G01X35330Y6885D01*
G01X35267Y6932D01*
G01X35202Y6977D01*
G01X35137Y7021D01*
G01X35071Y7063D01*
G01X35003Y7103D01*
G01X34934Y7142D01*
G01X34864Y7178D01*
G01X34794Y7213D01*
G01X34722Y7246D01*
G01X34650Y7277D01*
G01X34577Y7306D01*
G01X34503Y7333D01*
G01X34429Y7359D01*
G01X34353Y7382D01*
G01X34278Y7403D01*
G01X34201Y7423D01*
G01X34125Y7441D01*
G01X34048Y7456D01*
G01X33970Y7469D01*
G01X33892Y7480D01*
G01X33814Y7489D01*
G01X33736Y7497D01*
G01X33657Y7502D01*
G01X33578Y7505D01*
G37*
G36*
G01X117578Y7505D02*
G01X117500Y7506D01*
G01X117421Y7505D01*
G01X117342Y7502D01*
G01X117264Y7497D01*
G01X117185Y7489D01*
G01X117107Y7480D01*
G01X117029Y7469D01*
G01X116952Y7456D01*
G01X116874Y7441D01*
G01X116798Y7423D01*
G01X116721Y7403D01*
G01X116646Y7382D01*
G01X116571Y7359D01*
G01X116496Y7333D01*
G01X116422Y7306D01*
G01X116349Y7277D01*
G01X116276Y7246D01*
G01X116205Y7213D01*
G01X116135Y7178D01*
G01X116065Y7142D01*
G01X115997Y7103D01*
G01X115928Y7063D01*
G01X115862Y7021D01*
G01X115796Y6977D01*
G01X115732Y6932D01*
G01X115669Y6885D01*
G01X115607Y6836D01*
G01X115547Y6786D01*
G01X115488Y6734D01*
G01X115430Y6681D01*
G01X115374Y6625D01*
G01X115319Y6569D01*
G01X115265Y6511D01*
G01X115213Y6452D01*
G01X115163Y6392D01*
G01X115114Y6330D01*
G01X115067Y6267D01*
G01X115022Y6203D01*
G01X114978Y6137D01*
G01X114936Y6071D01*
G01X114896Y6003D01*
G01X114858Y5934D01*
G01X114821Y5864D01*
G01X114786Y5794D01*
G01X114753Y5723D01*
G01X114722Y5650D01*
G01X114693Y5577D01*
G01X114666Y5503D01*
G01X114640Y5428D01*
G01X114617Y5353D01*
G01X114595Y5278D01*
G01X114576Y5201D01*
G01X114559Y5125D01*
G01X114543Y5047D01*
G01X114530Y4970D01*
G01X114519Y4892D01*
G01X114510Y4814D01*
G01X114503Y4735D01*
G01X114497Y4657D01*
G01X114494Y4578D01*
G01X114493Y4500D01*
G01X114494Y4421D01*
G01X114497Y4342D01*
G01X114503Y4264D01*
G01X114510Y4185D01*
G01X114519Y4107D01*
G01X114530Y4029D01*
G01X114543Y3952D01*
G01X114559Y3874D01*
G01X114576Y3798D01*
G01X114595Y3722D01*
G01X114617Y3646D01*
G01X114640Y3571D01*
G01X114666Y3496D01*
G01X114693Y3422D01*
G01X114722Y3349D01*
G01X114753Y3277D01*
G01X114786Y3205D01*
G01X114821Y3135D01*
G01X114858Y3065D01*
G01X114896Y2996D01*
G01X114936Y2929D01*
G01X114978Y2862D01*
G01X115022Y2796D01*
G01X115067Y2732D01*
G01X115114Y2669D01*
G01X115163Y2607D01*
G01X115213Y2547D01*
G01X115265Y2488D01*
G01X115319Y2430D01*
G01X115374Y2374D01*
G01X115430Y2318D01*
G01X115488Y2265D01*
G01X115547Y2213D01*
G01X115607Y2163D01*
G01X115669Y2114D01*
G01X115732Y2067D01*
G01X115796Y2022D01*
G01X115862Y1978D01*
G01X115928Y1936D01*
G01X115997Y1896D01*
G01X116065Y1857D01*
G01X116135Y1821D01*
G01X116205Y1786D01*
G01X116276Y1753D01*
G01X116349Y1722D01*
G01X116422Y1693D01*
G01X116496Y1666D01*
G01X116571Y1640D01*
G01X116646Y1617D01*
G01X116721Y1596D01*
G01X116798Y1576D01*
G01X116874Y1558D01*
G01X116952Y1543D01*
G01X117029Y1530D01*
G01X117107Y1519D01*
G01X117185Y1510D01*
G01X117264Y1502D01*
G01X117342Y1497D01*
G01X117421Y1494D01*
G01X117500Y1493D01*
G01X117578Y1494D01*
G01X117657Y1497D01*
G01X117735Y1502D01*
G01X117814Y1510D01*
G01X117892Y1519D01*
G01X117970Y1530D01*
G01X118047Y1543D01*
G01X118125Y1558D01*
G01X118201Y1576D01*
G01X118277Y1596D01*
G01X118354Y1617D01*
G01X118429Y1640D01*
G01X118503Y1666D01*
G01X118577Y1693D01*
G01X118650Y1722D01*
G01X118722Y1753D01*
G01X118794Y1786D01*
G01X118865Y1821D01*
G01X118934Y1857D01*
G01X119003Y1896D01*
G01X119070Y1936D01*
G01X119137Y1978D01*
G01X119203Y2022D01*
G01X119267Y2067D01*
G01X119330Y2114D01*
G01X119392Y2163D01*
G01X119452Y2213D01*
G01X119511Y2265D01*
G01X119569Y2318D01*
G01X119626Y2374D01*
G01X119681Y2430D01*
G01X119734Y2488D01*
G01X119786Y2547D01*
G01X119836Y2607D01*
G01X119885Y2669D01*
G01X119932Y2732D01*
G01X119977Y2796D01*
G01X120021Y2862D01*
G01X120063Y2929D01*
G01X120103Y2996D01*
G01X120142Y3065D01*
G01X120178Y3135D01*
G01X120213Y3205D01*
G01X120246Y3277D01*
G01X120277Y3349D01*
G01X120306Y3422D01*
G01X120334Y3496D01*
G01X120359Y3571D01*
G01X120382Y3646D01*
G01X120403Y3722D01*
G01X120423Y3798D01*
G01X120441Y3874D01*
G01X120456Y3952D01*
G01X120469Y4029D01*
G01X120480Y4107D01*
G01X120490Y4185D01*
G01X120497Y4264D01*
G01X120502Y4342D01*
G01X120505Y4421D01*
G01X120506Y4499D01*
G01X120505Y4578D01*
G01X120502Y4657D01*
G01X120497Y4735D01*
G01X120490Y4814D01*
G01X120480Y4892D01*
G01X120469Y4970D01*
G01X120456Y5047D01*
G01X120441Y5125D01*
G01X120423Y5201D01*
G01X120403Y5278D01*
G01X120382Y5353D01*
G01X120359Y5428D01*
G01X120334Y5503D01*
G01X120306Y5577D01*
G01X120277Y5650D01*
G01X120246Y5723D01*
G01X120213Y5794D01*
G01X120178Y5864D01*
G01X120142Y5934D01*
G01X120103Y6003D01*
G01X120063Y6071D01*
G01X120021Y6137D01*
G01X119977Y6203D01*
G01X119932Y6267D01*
G01X119885Y6330D01*
G01X119836Y6392D01*
G01X119786Y6452D01*
G01X119734Y6511D01*
G01X119681Y6569D01*
G01X119626Y6625D01*
G01X119569Y6681D01*
G01X119511Y6734D01*
G01X119452Y6786D01*
G01X119392Y6836D01*
G01X119330Y6885D01*
G01X119267Y6932D01*
G01X119203Y6977D01*
G01X119137Y7021D01*
G01X119070Y7063D01*
G01X119003Y7103D01*
G01X118934Y7142D01*
G01X118865Y7178D01*
G01X118794Y7213D01*
G01X118722Y7246D01*
G01X118650Y7277D01*
G01X118577Y7306D01*
G01X118503Y7333D01*
G01X118429Y7359D01*
G01X118354Y7382D01*
G01X118277Y7403D01*
G01X118201Y7423D01*
G01X118125Y7441D01*
G01X118047Y7456D01*
G01X117970Y7469D01*
G01X117892Y7480D01*
G01X117814Y7489D01*
G01X117735Y7497D01*
G01X117657Y7502D01*
G01X117578Y7505D01*
G37*
G36*
G01X92987Y12161D02*
G01X92544Y12161D01*
G01X92544Y11850D01*
G01X92545Y11827D01*
G01X92548Y11803D01*
G01X92554Y11780D01*
G01X92561Y11758D01*
G01X92571Y11736D01*
G01X92582Y11715D01*
G01X92596Y11696D01*
G01X92611Y11677D01*
G01X92628Y11661D01*
G01X92646Y11645D01*
G01X92666Y11632D01*
G01X92686Y11620D01*
G01X92708Y11611D01*
G01X92730Y11604D01*
G01X92754Y11598D01*
G01X92777Y11595D01*
G01X92801Y11593D01*
G01X92987Y11593D01*
G01X92987Y12161D01*
G37*
G36*
G01X94056Y12161D02*
G01X93613Y12161D01*
G01X93613Y11593D01*
G01X93799Y11593D01*
G01X93822Y11595D01*
G01X93846Y11598D01*
G01X93869Y11604D01*
G01X93891Y11611D01*
G01X93913Y11620D01*
G01X93934Y11632D01*
G01X93953Y11645D01*
G01X93972Y11661D01*
G01X93988Y11677D01*
G01X94004Y11696D01*
G01X94017Y11715D01*
G01X94029Y11736D01*
G01X94038Y11758D01*
G01X94045Y11780D01*
G01X94051Y11803D01*
G01X94054Y11827D01*
G01X94056Y11850D01*
G01X94056Y12161D01*
G37*
G36*
G01X96799Y13605D02*
G01X95801Y13605D01*
G01X95777Y13604D01*
G01X95753Y13601D01*
G01X95730Y13596D01*
G01X95708Y13588D01*
G01X95686Y13578D01*
G01X95665Y13567D01*
G01X95627Y13539D01*
G01X95611Y13522D01*
G01X95596Y13504D01*
G01X95582Y13484D01*
G01X95571Y13463D01*
G01X95561Y13442D01*
G01X95554Y13419D01*
G01X95548Y13396D01*
G01X95545Y13372D01*
G01X95544Y13349D01*
G01X95544Y11850D01*
G01X95545Y11827D01*
G01X95548Y11803D01*
G01X95554Y11780D01*
G01X95561Y11758D01*
G01X95571Y11736D01*
G01X95582Y11715D01*
G01X95596Y11696D01*
G01X95611Y11677D01*
G01X95627Y11661D01*
G01X95646Y11645D01*
G01X95665Y11632D01*
G01X95686Y11620D01*
G01X95708Y11611D01*
G01X95730Y11604D01*
G01X95753Y11598D01*
G01X95777Y11595D01*
G01X95801Y11593D01*
G01X96799Y11593D01*
G01X96822Y11595D01*
G01X96845Y11598D01*
G01X96869Y11604D01*
G01X96891Y11611D01*
G01X96913Y11620D01*
G01X96933Y11632D01*
G01X96953Y11645D01*
G01X96971Y11661D01*
G01X96988Y11677D01*
G01X97003Y11696D01*
G01X97017Y11715D01*
G01X97028Y11736D01*
G01X97038Y11758D01*
G01X97045Y11780D01*
G01X97051Y11803D01*
G01X97054Y11827D01*
G01X97055Y11850D01*
G01X97055Y13349D01*
G01X97054Y13372D01*
G01X97051Y13396D01*
G01X97045Y13419D01*
G01X97038Y13442D01*
G01X97028Y13463D01*
G01X97017Y13484D01*
G01X97003Y13504D01*
G01X96988Y13522D01*
G01X96971Y13539D01*
G01X96953Y13553D01*
G01X96933Y13567D01*
G01X96913Y13578D01*
G01X96891Y13588D01*
G01X96869Y13596D01*
G01X96845Y13601D01*
G01X96822Y13604D01*
G01X96799Y13605D01*
G37*
G36*
G01X93799Y13605D02*
G01X93613Y13605D01*
G01X93613Y13038D01*
G01X94056Y13038D01*
G01X94056Y13349D01*
G01X94054Y13372D01*
G01X94051Y13396D01*
G01X94045Y13419D01*
G01X94038Y13442D01*
G01X94029Y13463D01*
G01X94017Y13484D01*
G01X94004Y13504D01*
G01X93988Y13522D01*
G01X93972Y13539D01*
G01X93934Y13567D01*
G01X93913Y13578D01*
G01X93891Y13588D01*
G01X93869Y13596D01*
G01X93846Y13601D01*
G01X93822Y13604D01*
G01X93799Y13605D01*
G37*
G36*
G01X92987Y13605D02*
G01X92801Y13605D01*
G01X92777Y13604D01*
G01X92754Y13601D01*
G01X92730Y13596D01*
G01X92708Y13588D01*
G01X92686Y13578D01*
G01X92666Y13567D01*
G01X92646Y13553D01*
G01X92628Y13539D01*
G01X92611Y13522D01*
G01X92596Y13504D01*
G01X92582Y13484D01*
G01X92571Y13463D01*
G01X92561Y13442D01*
G01X92554Y13419D01*
G01X92548Y13396D01*
G01X92545Y13372D01*
G01X92544Y13349D01*
G01X92544Y13038D01*
G01X92987Y13038D01*
G01X92987Y13605D01*
G37*
G36*
G01X96333Y19760D02*
G01X96299Y19761D01*
G01X96265Y19760D01*
G01X96232Y19757D01*
G01X96198Y19751D01*
G01X96165Y19744D01*
G01X96132Y19735D01*
G01X96100Y19725D01*
G01X96038Y19697D01*
G01X96009Y19680D01*
G01X95980Y19662D01*
G01X95953Y19641D01*
G01X95927Y19620D01*
G01X95903Y19597D01*
G01X95879Y19572D01*
G01X95857Y19546D01*
G01X95819Y19490D01*
G01X95787Y19430D01*
G01X95763Y19366D01*
G01X95754Y19334D01*
G01X95747Y19301D01*
G01X95742Y19267D01*
G01X95739Y19233D01*
G01X95738Y19200D01*
G01X95739Y19164D01*
G01X95743Y19129D01*
G01X95748Y19094D01*
G01X95756Y19060D01*
G01X95765Y19026D01*
G01X95791Y18960D01*
G01X95808Y18929D01*
G01X95825Y18899D01*
G01X95845Y18870D01*
G01X95867Y18842D01*
G01X95890Y18815D01*
G01X95900Y18803D01*
G01X95908Y18790D01*
G01X95913Y18776D01*
G01X95917Y18761D01*
G01X95918Y18746D01*
G01X95918Y18708D01*
G01X95917Y18694D01*
G01X95914Y18680D01*
G01X95909Y18666D01*
G01X95902Y18653D01*
G01X95893Y18641D01*
G01X95883Y18631D01*
G01X95871Y18623D01*
G01X95858Y18616D01*
G01X95845Y18611D01*
G01X95830Y18607D01*
G01X95816Y18606D01*
G01X95801Y18606D01*
G01X95777Y18605D01*
G01X95753Y18602D01*
G01X95730Y18597D01*
G01X95708Y18589D01*
G01X95686Y18579D01*
G01X95665Y18568D01*
G01X95646Y18555D01*
G01X95627Y18540D01*
G01X95611Y18523D01*
G01X95596Y18505D01*
G01X95582Y18485D01*
G01X95571Y18464D01*
G01X95561Y18443D01*
G01X95554Y18420D01*
G01X95548Y18397D01*
G01X95545Y18374D01*
G01X95544Y18350D01*
G01X95544Y16849D01*
G01X95545Y16825D01*
G01X95548Y16802D01*
G01X95554Y16779D01*
G01X95561Y16756D01*
G01X95571Y16734D01*
G01X95582Y16714D01*
G01X95596Y16694D01*
G01X95611Y16676D01*
G01X95627Y16659D01*
G01X95646Y16644D01*
G01X95665Y16631D01*
G01X95686Y16619D01*
G01X95708Y16610D01*
G01X95730Y16602D01*
G01X95753Y16597D01*
G01X95777Y16594D01*
G01X95801Y16592D01*
G01X96799Y16592D01*
G01X96822Y16594D01*
G01X96845Y16597D01*
G01X96869Y16602D01*
G01X96891Y16610D01*
G01X96913Y16619D01*
G01X96933Y16631D01*
G01X96953Y16644D01*
G01X96971Y16659D01*
G01X96988Y16676D01*
G01X97003Y16694D01*
G01X97017Y16714D01*
G01X97028Y16734D01*
G01X97038Y16756D01*
G01X97045Y16779D01*
G01X97051Y16802D01*
G01X97054Y16825D01*
G01X97055Y16849D01*
G01X97055Y18350D01*
G01X97054Y18374D01*
G01X97051Y18397D01*
G01X97045Y18420D01*
G01X97038Y18443D01*
G01X97028Y18464D01*
G01X97017Y18485D01*
G01X97003Y18505D01*
G01X96988Y18523D01*
G01X96971Y18540D01*
G01X96953Y18555D01*
G01X96933Y18568D01*
G01X96913Y18579D01*
G01X96891Y18589D01*
G01X96869Y18597D01*
G01X96845Y18602D01*
G01X96822Y18605D01*
G01X96799Y18606D01*
G01X96782Y18606D01*
G01X96768Y18607D01*
G01X96754Y18611D01*
G01X96740Y18616D01*
G01X96728Y18623D01*
G01X96716Y18631D01*
G01X96706Y18641D01*
G01X96697Y18653D01*
G01X96690Y18666D01*
G01X96685Y18680D01*
G01X96682Y18694D01*
G01X96681Y18708D01*
G01X96681Y18746D01*
G01X96682Y18761D01*
G01X96685Y18776D01*
G01X96691Y18790D01*
G01X96699Y18803D01*
G01X96708Y18815D01*
G01X96732Y18842D01*
G01X96754Y18870D01*
G01X96773Y18899D01*
G01X96791Y18929D01*
G01X96807Y18960D01*
G01X96821Y18993D01*
G01X96833Y19026D01*
G01X96843Y19060D01*
G01X96851Y19094D01*
G01X96856Y19129D01*
G01X96860Y19164D01*
G01X96861Y19199D01*
G01X96860Y19233D01*
G01X96857Y19267D01*
G01X96852Y19301D01*
G01X96844Y19334D01*
G01X96835Y19366D01*
G01X96824Y19398D01*
G01X96811Y19430D01*
G01X96796Y19460D01*
G01X96780Y19490D01*
G01X96761Y19518D01*
G01X96741Y19546D01*
G01X96719Y19572D01*
G01X96696Y19597D01*
G01X96672Y19620D01*
G01X96618Y19662D01*
G01X96590Y19680D01*
G01X96560Y19697D01*
G01X96530Y19711D01*
G01X96498Y19725D01*
G01X96466Y19735D01*
G01X96433Y19744D01*
G01X96400Y19751D01*
G01X96367Y19757D01*
G01X96333Y19760D01*
G37*
G36*
G01X96799Y30206D02*
G01X95801Y30206D01*
G01X95777Y30204D01*
G01X95753Y30201D01*
G01X95730Y30195D01*
G01X95708Y30188D01*
G01X95686Y30179D01*
G01X95665Y30167D01*
G01X95646Y30154D01*
G01X95627Y30139D01*
G01X95611Y30122D01*
G01X95596Y30103D01*
G01X95582Y30084D01*
G01X95571Y30063D01*
G01X95561Y30042D01*
G01X95554Y30019D01*
G01X95548Y29996D01*
G01X95545Y29972D01*
G01X95544Y29949D01*
G01X95544Y29026D01*
G01X95542Y29010D01*
G01X95539Y28994D01*
G01X95533Y28979D01*
G01X95524Y28966D01*
G01X95514Y28954D01*
G01X93030Y26470D01*
G01X93010Y26447D01*
G01X92991Y26424D01*
G01X92974Y26399D01*
G01X92960Y26373D01*
G01X92947Y26346D01*
G01X92937Y26318D01*
G01X92929Y26289D01*
G01X92923Y26259D01*
G01X92919Y26229D01*
G01X92918Y26199D01*
G01X92918Y18708D01*
G01X92917Y18694D01*
G01X92914Y18680D01*
G01X92909Y18666D01*
G01X92902Y18653D01*
G01X92893Y18641D01*
G01X92883Y18631D01*
G01X92871Y18623D01*
G01X92859Y18616D01*
G01X92845Y18611D01*
G01X92831Y18607D01*
G01X92817Y18606D01*
G01X92801Y18606D01*
G01X92777Y18605D01*
G01X92754Y18602D01*
G01X92730Y18597D01*
G01X92708Y18589D01*
G01X92686Y18579D01*
G01X92666Y18568D01*
G01X92646Y18555D01*
G01X92628Y18540D01*
G01X92611Y18523D01*
G01X92596Y18505D01*
G01X92582Y18485D01*
G01X92571Y18464D01*
G01X92561Y18443D01*
G01X92554Y18420D01*
G01X92548Y18397D01*
G01X92545Y18374D01*
G01X92544Y18350D01*
G01X92544Y16849D01*
G01X92545Y16825D01*
G01X92548Y16802D01*
G01X92554Y16779D01*
G01X92561Y16756D01*
G01X92571Y16734D01*
G01X92582Y16714D01*
G01X92596Y16694D01*
G01X92611Y16676D01*
G01X92628Y16659D01*
G01X92646Y16644D01*
G01X92666Y16631D01*
G01X92686Y16619D01*
G01X92708Y16610D01*
G01X92730Y16602D01*
G01X92754Y16597D01*
G01X92777Y16594D01*
G01X92801Y16592D01*
G01X93799Y16592D01*
G01X93822Y16594D01*
G01X93846Y16597D01*
G01X93869Y16602D01*
G01X93891Y16610D01*
G01X93913Y16619D01*
G01X93934Y16631D01*
G01X93953Y16644D01*
G01X93972Y16659D01*
G01X93988Y16676D01*
G01X94004Y16694D01*
G01X94017Y16714D01*
G01X94029Y16734D01*
G01X94038Y16756D01*
G01X94045Y16779D01*
G01X94051Y16802D01*
G01X94054Y16825D01*
G01X94056Y16849D01*
G01X94056Y18350D01*
G01X94054Y18374D01*
G01X94051Y18397D01*
G01X94045Y18420D01*
G01X94038Y18443D01*
G01X94029Y18464D01*
G01X94017Y18485D01*
G01X94004Y18505D01*
G01X93988Y18523D01*
G01X93972Y18540D01*
G01X93953Y18555D01*
G01X93934Y18568D01*
G01X93913Y18579D01*
G01X93891Y18589D01*
G01X93869Y18597D01*
G01X93846Y18602D01*
G01X93822Y18605D01*
G01X93799Y18606D01*
G01X93783Y18606D01*
G01X93769Y18607D01*
G01X93754Y18611D01*
G01X93741Y18616D01*
G01X93728Y18623D01*
G01X93716Y18631D01*
G01X93706Y18641D01*
G01X93697Y18653D01*
G01X93690Y18666D01*
G01X93685Y18680D01*
G01X93682Y18694D01*
G01X93681Y18708D01*
G01X93681Y26000D01*
G01X93683Y26016D01*
G01X93686Y26031D01*
G01X93692Y26046D01*
G01X93700Y26059D01*
G01X93711Y26071D01*
G01X95804Y28164D01*
G01X95816Y28174D01*
G01X95829Y28183D01*
G01X95844Y28189D01*
G01X95859Y28192D01*
G01X95875Y28194D01*
G01X96799Y28194D01*
G01X96822Y28195D01*
G01X96845Y28198D01*
G01X96869Y28204D01*
G01X96891Y28211D01*
G01X96913Y28221D01*
G01X96933Y28232D01*
G01X96953Y28246D01*
G01X96971Y28260D01*
G01X96988Y28277D01*
G01X97003Y28296D01*
G01X97017Y28315D01*
G01X97028Y28336D01*
G01X97038Y28357D01*
G01X97045Y28380D01*
G01X97051Y28403D01*
G01X97054Y28427D01*
G01X97055Y28450D01*
G01X97055Y29949D01*
G01X97054Y29972D01*
G01X97051Y29996D01*
G01X97045Y30019D01*
G01X97038Y30042D01*
G01X97028Y30063D01*
G01X97017Y30084D01*
G01X97003Y30103D01*
G01X96988Y30122D01*
G01X96971Y30139D01*
G01X96953Y30154D01*
G01X96933Y30167D01*
G01X96913Y30179D01*
G01X96891Y30188D01*
G01X96869Y30195D01*
G01X96845Y30201D01*
G01X96822Y30204D01*
G01X96799Y30206D01*
G37*
G36*
G01X70887Y20462D02*
G01X70444Y20462D01*
G01X70444Y20150D01*
G01X70445Y20126D01*
G01X70448Y20103D01*
G01X70454Y20080D01*
G01X70461Y20058D01*
G01X70471Y20036D01*
G01X70482Y20015D01*
G01X70496Y19996D01*
G01X70511Y19978D01*
G01X70528Y19961D01*
G01X70546Y19946D01*
G01X70566Y19932D01*
G01X70586Y19921D01*
G01X70608Y19911D01*
G01X70630Y19903D01*
G01X70653Y19898D01*
G01X70677Y19895D01*
G01X70701Y19894D01*
G01X70887Y19894D01*
G01X70887Y20462D01*
G37*
G36*
G01X71955Y20462D02*
G01X71513Y20462D01*
G01X71513Y19894D01*
G01X71699Y19894D01*
G01X71722Y19895D01*
G01X71746Y19898D01*
G01X71769Y19903D01*
G01X71791Y19911D01*
G01X71813Y19921D01*
G01X71834Y19932D01*
G01X71853Y19946D01*
G01X71872Y19961D01*
G01X71888Y19978D01*
G01X71904Y19996D01*
G01X71917Y20015D01*
G01X71929Y20036D01*
G01X71938Y20058D01*
G01X71945Y20080D01*
G01X71951Y20103D01*
G01X71954Y20126D01*
G01X71955Y20150D01*
G01X71955Y20462D01*
G37*
G36*
G01X54387Y20461D02*
G01X53944Y20461D01*
G01X53944Y20150D01*
G01X53945Y20126D01*
G01X53948Y20103D01*
G01X53954Y20080D01*
G01X53961Y20058D01*
G01X53971Y20036D01*
G01X53982Y20015D01*
G01X53996Y19996D01*
G01X54011Y19978D01*
G01X54028Y19961D01*
G01X54046Y19946D01*
G01X54066Y19932D01*
G01X54086Y19921D01*
G01X54108Y19911D01*
G01X54130Y19903D01*
G01X54154Y19898D01*
G01X54177Y19895D01*
G01X54200Y19894D01*
G01X54387Y19894D01*
G01X54387Y20461D01*
G37*
G36*
G01X55455Y20461D02*
G01X55013Y20461D01*
G01X55013Y19894D01*
G01X55199Y19894D01*
G01X55222Y19895D01*
G01X55246Y19898D01*
G01X55269Y19903D01*
G01X55292Y19911D01*
G01X55313Y19921D01*
G01X55334Y19932D01*
G01X55354Y19946D01*
G01X55372Y19961D01*
G01X55389Y19978D01*
G01X55403Y19996D01*
G01X55417Y20015D01*
G01X55428Y20036D01*
G01X55438Y20058D01*
G01X55445Y20080D01*
G01X55451Y20103D01*
G01X55454Y20126D01*
G01X55455Y20150D01*
G01X55455Y20461D01*
G37*
G36*
G01X71699Y26907D02*
G01X70701Y26907D01*
G01X70677Y26906D01*
G01X70653Y26902D01*
G01X70630Y26897D01*
G01X70608Y26889D01*
G01X70586Y26880D01*
G01X70566Y26868D01*
G01X70546Y26855D01*
G01X70528Y26840D01*
G01X70511Y26823D01*
G01X70496Y26805D01*
G01X70482Y26785D01*
G01X70471Y26764D01*
G01X70461Y26743D01*
G01X70454Y26720D01*
G01X70448Y26697D01*
G01X70445Y26674D01*
G01X70444Y26650D01*
G01X70444Y26383D01*
G01X70443Y26368D01*
G01X70440Y26354D01*
G01X70435Y26340D01*
G01X70428Y26328D01*
G01X70419Y26316D01*
G01X70409Y26306D01*
G01X70397Y26297D01*
G01X70385Y26290D01*
G01X70371Y26285D01*
G01X70357Y26282D01*
G01X70343Y26281D01*
G01X63300Y26281D01*
G01X63270Y26280D01*
G01X63240Y26276D01*
G01X63210Y26271D01*
G01X63182Y26262D01*
G01X63153Y26252D01*
G01X63126Y26240D01*
G01X63100Y26225D01*
G01X63075Y26208D01*
G01X63052Y26190D01*
G01X63030Y26170D01*
G01X58593Y21733D01*
G01X58581Y21722D01*
G01X58567Y21714D01*
G01X58552Y21708D01*
G01X58537Y21704D01*
G01X58521Y21703D01*
G01X58505Y21704D01*
G01X58489Y21708D01*
G01X58474Y21714D01*
G01X58460Y21723D01*
G01X58448Y21734D01*
G01X58438Y21746D01*
G01X58429Y21760D01*
G01X58418Y21781D01*
G01X58405Y21801D01*
G01X58390Y21820D01*
G01X58373Y21837D01*
G01X58355Y21853D01*
G01X58335Y21866D01*
G01X58314Y21878D01*
G01X58292Y21888D01*
G01X58269Y21895D01*
G01X58246Y21901D01*
G01X58222Y21904D01*
G01X58198Y21905D01*
G01X57200Y21905D01*
G01X57177Y21904D01*
G01X57153Y21901D01*
G01X57130Y21896D01*
G01X57108Y21888D01*
G01X57086Y21878D01*
G01X57066Y21867D01*
G01X57046Y21854D01*
G01X57027Y21838D01*
G01X57011Y21822D01*
G01X56995Y21803D01*
G01X56982Y21784D01*
G01X56971Y21763D01*
G01X56961Y21741D01*
G01X56954Y21719D01*
G01X56948Y21696D01*
G01X56945Y21673D01*
G01X56944Y21649D01*
G01X56944Y20150D01*
G01X56945Y20126D01*
G01X56948Y20103D01*
G01X56954Y20080D01*
G01X56961Y20058D01*
G01X56971Y20036D01*
G01X56982Y20015D01*
G01X56995Y19996D01*
G01X57011Y19978D01*
G01X57027Y19961D01*
G01X57046Y19946D01*
G01X57066Y19932D01*
G01X57086Y19921D01*
G01X57108Y19911D01*
G01X57130Y19903D01*
G01X57153Y19898D01*
G01X57177Y19895D01*
G01X57200Y19894D01*
G01X58198Y19894D01*
G01X58222Y19895D01*
G01X58246Y19898D01*
G01X58269Y19903D01*
G01X58291Y19911D01*
G01X58313Y19921D01*
G01X58333Y19932D01*
G01X58353Y19946D01*
G01X58372Y19961D01*
G01X58388Y19978D01*
G01X58403Y19996D01*
G01X58417Y20015D01*
G01X58428Y20036D01*
G01X58438Y20058D01*
G01X58445Y20080D01*
G01X58451Y20103D01*
G01X58454Y20126D01*
G01X58455Y20150D01*
G01X58455Y20491D01*
G01X58456Y20505D01*
G01X58459Y20520D01*
G01X58465Y20533D01*
G01X58472Y20546D01*
G01X58480Y20558D01*
G01X58491Y20568D01*
G01X58503Y20576D01*
G01X58526Y20593D01*
G01X58548Y20610D01*
G01X58569Y20630D01*
G01X63428Y25488D01*
G01X63440Y25498D01*
G01X63454Y25507D01*
G01X63468Y25513D01*
G01X63484Y25517D01*
G01X63500Y25518D01*
G01X70343Y25518D01*
G01X70357Y25517D01*
G01X70371Y25514D01*
G01X70385Y25509D01*
G01X70397Y25502D01*
G01X70409Y25493D01*
G01X70419Y25483D01*
G01X70428Y25472D01*
G01X70435Y25459D01*
G01X70440Y25445D01*
G01X70443Y25431D01*
G01X70444Y25416D01*
G01X70444Y25149D01*
G01X70445Y25125D01*
G01X70448Y25102D01*
G01X70454Y25079D01*
G01X70461Y25056D01*
G01X70471Y25035D01*
G01X70482Y25014D01*
G01X70496Y24995D01*
G01X70511Y24976D01*
G01X70528Y24959D01*
G01X70546Y24944D01*
G01X70566Y24931D01*
G01X70586Y24919D01*
G01X70608Y24910D01*
G01X70630Y24902D01*
G01X70653Y24897D01*
G01X70677Y24893D01*
G01X70701Y24892D01*
G01X71699Y24892D01*
G01X71722Y24893D01*
G01X71746Y24897D01*
G01X71769Y24902D01*
G01X71791Y24910D01*
G01X71813Y24919D01*
G01X71834Y24931D01*
G01X71853Y24944D01*
G01X71872Y24959D01*
G01X71888Y24976D01*
G01X71904Y24995D01*
G01X71917Y25014D01*
G01X71929Y25035D01*
G01X71938Y25056D01*
G01X71945Y25079D01*
G01X71951Y25102D01*
G01X71954Y25125D01*
G01X71955Y25149D01*
G01X71955Y26650D01*
G01X71954Y26674D01*
G01X71951Y26697D01*
G01X71945Y26720D01*
G01X71938Y26743D01*
G01X71929Y26764D01*
G01X71917Y26785D01*
G01X71904Y26805D01*
G01X71888Y26823D01*
G01X71872Y26840D01*
G01X71853Y26855D01*
G01X71834Y26868D01*
G01X71813Y26880D01*
G01X71791Y26889D01*
G01X71769Y26897D01*
G01X71746Y26902D01*
G01X71722Y26906D01*
G01X71699Y26907D01*
G37*
G36*
G01X93799Y35207D02*
G01X92801Y35207D01*
G01X92777Y35205D01*
G01X92754Y35202D01*
G01X92730Y35197D01*
G01X92708Y35189D01*
G01X92686Y35180D01*
G01X92666Y35168D01*
G01X92646Y35155D01*
G01X92628Y35140D01*
G01X92611Y35123D01*
G01X92596Y35105D01*
G01X92582Y35085D01*
G01X92571Y35065D01*
G01X92561Y35043D01*
G01X92554Y35020D01*
G01X92548Y34997D01*
G01X92545Y34974D01*
G01X92544Y34950D01*
G01X92544Y34683D01*
G01X92543Y34668D01*
G01X92540Y34654D01*
G01X92535Y34640D01*
G01X92528Y34628D01*
G01X92519Y34616D01*
G01X92509Y34606D01*
G01X92497Y34597D01*
G01X92485Y34590D01*
G01X92471Y34585D01*
G01X92457Y34582D01*
G01X92443Y34581D01*
G01X90500Y34581D01*
G01X90470Y34580D01*
G01X90440Y34576D01*
G01X90411Y34570D01*
G01X90382Y34562D01*
G01X90354Y34552D01*
G01X90326Y34539D01*
G01X90300Y34525D01*
G01X90275Y34508D01*
G01X90252Y34490D01*
G01X90230Y34469D01*
G01X77071Y21311D01*
G01X77059Y21300D01*
G01X77046Y21292D01*
G01X77031Y21286D01*
G01X77015Y21283D01*
G01X76999Y21281D01*
G01X75057Y21281D01*
G01X75042Y21282D01*
G01X75028Y21285D01*
G01X75015Y21290D01*
G01X75001Y21297D01*
G01X74990Y21306D01*
G01X74980Y21316D01*
G01X74971Y21328D01*
G01X74964Y21340D01*
G01X74959Y21354D01*
G01X74956Y21368D01*
G01X74955Y21383D01*
G01X74955Y21649D01*
G01X74954Y21673D01*
G01X74951Y21696D01*
G01X74945Y21719D01*
G01X74937Y21741D01*
G01X74928Y21763D01*
G01X74917Y21784D01*
G01X74903Y21803D01*
G01X74888Y21822D01*
G01X74871Y21838D01*
G01X74853Y21854D01*
G01X74833Y21867D01*
G01X74813Y21878D01*
G01X74791Y21888D01*
G01X74769Y21896D01*
G01X74745Y21901D01*
G01X74722Y21904D01*
G01X74699Y21905D01*
G01X73700Y21905D01*
G01X73677Y21904D01*
G01X73653Y21901D01*
G01X73630Y21896D01*
G01X73608Y21888D01*
G01X73586Y21878D01*
G01X73565Y21867D01*
G01X73546Y21854D01*
G01X73527Y21838D01*
G01X73510Y21822D01*
G01X73482Y21784D01*
G01X73471Y21763D01*
G01X73461Y21741D01*
G01X73454Y21719D01*
G01X73448Y21696D01*
G01X73445Y21673D01*
G01X73444Y21649D01*
G01X73444Y20150D01*
G01X73445Y20126D01*
G01X73448Y20103D01*
G01X73454Y20080D01*
G01X73461Y20058D01*
G01X73471Y20036D01*
G01X73482Y20015D01*
G01X73496Y19996D01*
G01X73510Y19978D01*
G01X73527Y19961D01*
G01X73546Y19946D01*
G01X73565Y19932D01*
G01X73586Y19921D01*
G01X73608Y19911D01*
G01X73630Y19903D01*
G01X73653Y19898D01*
G01X73677Y19895D01*
G01X73700Y19894D01*
G01X74699Y19894D01*
G01X74722Y19895D01*
G01X74745Y19898D01*
G01X74769Y19903D01*
G01X74791Y19911D01*
G01X74813Y19921D01*
G01X74833Y19932D01*
G01X74853Y19946D01*
G01X74871Y19961D01*
G01X74888Y19978D01*
G01X74903Y19996D01*
G01X74917Y20015D01*
G01X74928Y20036D01*
G01X74937Y20058D01*
G01X74945Y20080D01*
G01X74951Y20103D01*
G01X74954Y20126D01*
G01X74955Y20150D01*
G01X74955Y20416D01*
G01X74956Y20431D01*
G01X74959Y20445D01*
G01X74964Y20459D01*
G01X74971Y20471D01*
G01X74980Y20483D01*
G01X74990Y20493D01*
G01X75001Y20502D01*
G01X75015Y20509D01*
G01X75028Y20514D01*
G01X75042Y20517D01*
G01X75057Y20518D01*
G01X77200Y20518D01*
G01X77230Y20519D01*
G01X77259Y20523D01*
G01X77288Y20529D01*
G01X77317Y20537D01*
G01X77345Y20547D01*
G01X77373Y20560D01*
G01X77399Y20574D01*
G01X77424Y20591D01*
G01X77447Y20609D01*
G01X77469Y20630D01*
G01X90628Y33788D01*
G01X90640Y33799D01*
G01X90653Y33807D01*
G01X90668Y33813D01*
G01X90684Y33816D01*
G01X90700Y33818D01*
G01X92443Y33818D01*
G01X92457Y33817D01*
G01X92471Y33814D01*
G01X92485Y33809D01*
G01X92497Y33802D01*
G01X92509Y33793D01*
G01X92519Y33783D01*
G01X92528Y33771D01*
G01X92535Y33759D01*
G01X92540Y33745D01*
G01X92543Y33731D01*
G01X92544Y33716D01*
G01X92544Y33449D01*
G01X92545Y33425D01*
G01X92548Y33402D01*
G01X92554Y33379D01*
G01X92561Y33356D01*
G01X92571Y33335D01*
G01X92582Y33314D01*
G01X92596Y33294D01*
G01X92611Y33276D01*
G01X92628Y33259D01*
G01X92646Y33244D01*
G01X92666Y33231D01*
G01X92686Y33220D01*
G01X92708Y33210D01*
G01X92730Y33202D01*
G01X92754Y33197D01*
G01X92777Y33194D01*
G01X92801Y33193D01*
G01X93799Y33193D01*
G01X93822Y33194D01*
G01X93846Y33197D01*
G01X93869Y33202D01*
G01X93891Y33210D01*
G01X93913Y33220D01*
G01X93934Y33231D01*
G01X93953Y33244D01*
G01X93972Y33259D01*
G01X93988Y33276D01*
G01X94004Y33294D01*
G01X94017Y33314D01*
G01X94029Y33335D01*
G01X94038Y33356D01*
G01X94045Y33379D01*
G01X94051Y33402D01*
G01X94054Y33425D01*
G01X94056Y33449D01*
G01X94056Y34950D01*
G01X94054Y34974D01*
G01X94051Y34997D01*
G01X94045Y35020D01*
G01X94038Y35043D01*
G01X94029Y35065D01*
G01X94017Y35085D01*
G01X94004Y35105D01*
G01X93988Y35123D01*
G01X93972Y35140D01*
G01X93953Y35155D01*
G01X93934Y35168D01*
G01X93913Y35180D01*
G01X93891Y35189D01*
G01X93869Y35197D01*
G01X93846Y35202D01*
G01X93822Y35205D01*
G01X93799Y35207D01*
G37*
G36*
G01X54387Y21905D02*
G01X54200Y21905D01*
G01X54177Y21904D01*
G01X54154Y21901D01*
G01X54130Y21896D01*
G01X54108Y21888D01*
G01X54086Y21878D01*
G01X54066Y21867D01*
G01X54046Y21854D01*
G01X54028Y21838D01*
G01X54011Y21822D01*
G01X53996Y21803D01*
G01X53982Y21784D01*
G01X53971Y21763D01*
G01X53961Y21741D01*
G01X53954Y21719D01*
G01X53948Y21696D01*
G01X53945Y21673D01*
G01X53944Y21649D01*
G01X53944Y21337D01*
G01X54387Y21337D01*
G01X54387Y21905D01*
G37*
G36*
G01X55199Y21905D02*
G01X55013Y21905D01*
G01X55013Y21337D01*
G01X55455Y21337D01*
G01X55455Y21649D01*
G01X55454Y21673D01*
G01X55451Y21696D01*
G01X55445Y21719D01*
G01X55438Y21741D01*
G01X55428Y21763D01*
G01X55417Y21784D01*
G01X55389Y21822D01*
G01X55372Y21838D01*
G01X55354Y21854D01*
G01X55334Y21867D01*
G01X55313Y21878D01*
G01X55292Y21888D01*
G01X55269Y21896D01*
G01X55246Y21901D01*
G01X55222Y21904D01*
G01X55199Y21905D01*
G37*
G36*
G01X70887Y21905D02*
G01X70701Y21905D01*
G01X70677Y21904D01*
G01X70653Y21901D01*
G01X70630Y21896D01*
G01X70608Y21888D01*
G01X70586Y21878D01*
G01X70566Y21867D01*
G01X70546Y21854D01*
G01X70528Y21838D01*
G01X70511Y21822D01*
G01X70496Y21803D01*
G01X70482Y21784D01*
G01X70471Y21763D01*
G01X70461Y21741D01*
G01X70454Y21719D01*
G01X70448Y21696D01*
G01X70445Y21673D01*
G01X70444Y21649D01*
G01X70444Y21338D01*
G01X70887Y21338D01*
G01X70887Y21905D01*
G37*
G36*
G01X71699Y21905D02*
G01X71513Y21905D01*
G01X71513Y21338D01*
G01X71955Y21338D01*
G01X71955Y21649D01*
G01X71954Y21673D01*
G01X71951Y21696D01*
G01X71945Y21719D01*
G01X71938Y21741D01*
G01X71929Y21763D01*
G01X71917Y21784D01*
G01X71904Y21803D01*
G01X71888Y21822D01*
G01X71872Y21838D01*
G01X71853Y21854D01*
G01X71834Y21867D01*
G01X71813Y21878D01*
G01X71791Y21888D01*
G01X71769Y21896D01*
G01X71746Y21901D01*
G01X71722Y21904D01*
G01X71699Y21905D01*
G37*
G36*
G01X22428Y29135D02*
G01X22370Y29136D01*
G01X22310Y29135D01*
G01X22251Y29132D01*
G01X22192Y29126D01*
G01X22133Y29119D01*
G01X22075Y29109D01*
G01X22017Y29097D01*
G01X21959Y29083D01*
G01X21902Y29068D01*
G01X21845Y29050D01*
G01X21789Y29030D01*
G01X21735Y29008D01*
G01X21680Y28984D01*
G01X21627Y28958D01*
G01X21575Y28930D01*
G01X21523Y28900D01*
G01X21473Y28869D01*
G01X21424Y28835D01*
G01X21376Y28800D01*
G01X21330Y28763D01*
G01X21285Y28725D01*
G01X21241Y28685D01*
G01X21199Y28643D01*
G01X21159Y28600D01*
G01X21146Y28588D01*
G01X21132Y28579D01*
G01X21116Y28572D01*
G01X21100Y28568D01*
G01X21083Y28567D01*
G01X21068Y28568D01*
G01X21052Y28571D01*
G01X21038Y28577D01*
G01X21025Y28585D01*
G01X21013Y28595D01*
G01X21003Y28606D01*
G01X20978Y28636D01*
G01X20951Y28664D01*
G01X20908Y28704D01*
G01X20863Y28743D01*
G01X20817Y28780D01*
G01X20769Y28815D01*
G01X20721Y28849D01*
G01X20671Y28880D01*
G01X20620Y28910D01*
G01X20568Y28938D01*
G01X20515Y28964D01*
G01X20461Y28988D01*
G01X20407Y29010D01*
G01X20351Y29030D01*
G01X20295Y29048D01*
G01X20238Y29064D01*
G01X20181Y29078D01*
G01X20123Y29090D01*
G01X20064Y29100D01*
G01X20006Y29107D01*
G01X19947Y29112D01*
G01X19888Y29116D01*
G01X19829Y29117D01*
G01X19771Y29116D01*
G01X19712Y29112D01*
G01X19654Y29107D01*
G01X19596Y29100D01*
G01X19539Y29091D01*
G01X19481Y29079D01*
G01X19424Y29065D01*
G01X19368Y29050D01*
G01X19312Y29032D01*
G01X19257Y29012D01*
G01X19203Y28991D01*
G01X19149Y28967D01*
G01X19097Y28942D01*
G01X19045Y28914D01*
G01X18995Y28885D01*
G01X18945Y28854D01*
G01X18897Y28821D01*
G01X18850Y28787D01*
G01X18804Y28750D01*
G01X18759Y28713D01*
G01X18716Y28673D01*
G01X18674Y28632D01*
G01X18634Y28590D01*
G01X18596Y28546D01*
G01X18559Y28500D01*
G01X18524Y28454D01*
G01X18490Y28406D01*
G01X18458Y28357D01*
G01X18428Y28307D01*
G01X18419Y28294D01*
G01X18409Y28283D01*
G01X18397Y28274D01*
G01X18384Y28266D01*
G01X18370Y28260D01*
G01X18355Y28257D01*
G01X18340Y28256D01*
G01X12700Y28256D01*
G01X12665Y28254D01*
G01X12656Y28253D01*
G01X12596Y28250D01*
G01X12536Y28245D01*
G01X12476Y28237D01*
G01X12417Y28228D01*
G01X12358Y28217D01*
G01X12300Y28204D01*
G01X12242Y28188D01*
G01X12185Y28171D01*
G01X12128Y28152D01*
G01X12072Y28130D01*
G01X12017Y28108D01*
G01X11962Y28083D01*
G01X11909Y28056D01*
G01X11856Y28027D01*
G01X11804Y27997D01*
G01X11754Y27965D01*
G01X11705Y27931D01*
G01X11656Y27896D01*
G01X11609Y27859D01*
G01X11563Y27820D01*
G01X11519Y27780D01*
G01X11476Y27738D01*
G01X11434Y27695D01*
G01X11394Y27650D01*
G01X11356Y27605D01*
G01X11319Y27557D01*
G01X11284Y27509D01*
G01X11250Y27460D01*
G01X11218Y27409D01*
G01X11188Y27357D01*
G01X11159Y27304D01*
G01X11133Y27251D01*
G01X11108Y27196D01*
G01X11085Y27141D01*
G01X11064Y27085D01*
G01X11045Y27028D01*
G01X11028Y26971D01*
G01X11013Y26913D01*
G01X11000Y26854D01*
G01X10988Y26795D01*
G01X10979Y26736D01*
G01X10972Y26677D01*
G01X10967Y26617D01*
G01X10964Y26558D01*
G01X10963Y26498D01*
G01X10964Y26438D01*
G01X10967Y26378D01*
G01X10972Y26318D01*
G01X10979Y26259D01*
G01X10988Y26199D01*
G01X11000Y26141D01*
G01X11013Y26082D01*
G01X11028Y26024D01*
G01X11045Y25967D01*
G01X11064Y25910D01*
G01X11085Y25854D01*
G01X11108Y25799D01*
G01X11133Y25744D01*
G01X11159Y25690D01*
G01X11188Y25638D01*
G01X11218Y25586D01*
G01X11250Y25536D01*
G01X11284Y25486D01*
G01X11319Y25437D01*
G01X11356Y25390D01*
G01X11394Y25345D01*
G01X11434Y25300D01*
G01X11476Y25257D01*
G01X11519Y25215D01*
G01X11563Y25175D01*
G01X11609Y25136D01*
G01X11620Y25126D01*
G01X11629Y25114D01*
G01X11637Y25101D01*
G01X11642Y25087D01*
G01X11646Y25073D01*
G01X11647Y25058D01*
G01X11646Y25043D01*
G01X11643Y25029D01*
G01X11638Y25015D01*
G01X11622Y24991D01*
G01X11612Y24981D01*
G01X11600Y24972D01*
G01X11587Y24965D01*
G01X11574Y24960D01*
G01X11559Y24957D01*
G01X11545Y24956D01*
G01X8617Y24956D01*
G01X8602Y24957D01*
G01X8588Y24960D01*
G01X8574Y24965D01*
G01X8562Y24972D01*
G01X8550Y24981D01*
G01X8540Y24991D01*
G01X8531Y25003D01*
G01X8524Y25015D01*
G01X8519Y25029D01*
G01X8516Y25043D01*
G01X8515Y25058D01*
G01X8516Y25072D01*
G01X8519Y25086D01*
G01X8524Y25100D01*
G01X8531Y25112D01*
G01X8540Y25124D01*
G01X8550Y25134D01*
G01X8561Y25143D01*
G01X8574Y25150D01*
G01X8588Y25155D01*
G01X8601Y25158D01*
G01X8654Y25167D01*
G01X8706Y25178D01*
G01X8759Y25192D01*
G01X8810Y25206D01*
G01X8861Y25224D01*
G01X8911Y25243D01*
G01X8960Y25264D01*
G01X9008Y25287D01*
G01X9055Y25312D01*
G01X9102Y25339D01*
G01X9147Y25367D01*
G01X9191Y25398D01*
G01X9234Y25430D01*
G01X9276Y25464D01*
G01X9316Y25499D01*
G01X9355Y25536D01*
G01X9392Y25575D01*
G01X9428Y25615D01*
G01X9462Y25656D01*
G01X9494Y25699D01*
G01X9525Y25742D01*
G01X9554Y25788D01*
G01X9581Y25833D01*
G01X9607Y25880D01*
G01X9630Y25929D01*
G01X9652Y25978D01*
G01X9671Y26028D01*
G01X9689Y26078D01*
G01X9705Y26129D01*
G01X9718Y26181D01*
G01X9730Y26234D01*
G01X9739Y26286D01*
G01X9746Y26339D01*
G01X9752Y26393D01*
G01X9755Y26446D01*
G01X9756Y26500D01*
G01X9755Y26553D01*
G01X9752Y26606D01*
G01X9747Y26659D01*
G01X9739Y26712D01*
G01X9730Y26764D01*
G01X9718Y26816D01*
G01X9705Y26868D01*
G01X9689Y26919D01*
G01X9672Y26969D01*
G01X9653Y27018D01*
G01X9632Y27068D01*
G01X9608Y27115D01*
G01X9583Y27162D01*
G01X9556Y27208D01*
G01X9527Y27253D01*
G01X9497Y27297D01*
G01X9465Y27339D01*
G01X9431Y27381D01*
G01X9396Y27420D01*
G01X9359Y27459D01*
G01X9320Y27495D01*
G01X9280Y27531D01*
G01X9239Y27565D01*
G01X9197Y27597D01*
G01X9153Y27627D01*
G01X9108Y27656D01*
G01X9063Y27683D01*
G01X9015Y27708D01*
G01X8968Y27732D01*
G01X8919Y27753D01*
G01X8869Y27772D01*
G01X8819Y27790D01*
G01X8768Y27805D01*
G01X8716Y27818D01*
G01X8664Y27830D01*
G01X8612Y27839D01*
G01X8559Y27846D01*
G01X8506Y27852D01*
G01X8453Y27855D01*
G01X8400Y27856D01*
G01X8346Y27855D01*
G01X8293Y27852D01*
G01X8240Y27846D01*
G01X8187Y27839D01*
G01X8135Y27830D01*
G01X8083Y27818D01*
G01X8031Y27805D01*
G01X7981Y27790D01*
G01X7930Y27772D01*
G01X7880Y27753D01*
G01X7832Y27732D01*
G01X7783Y27708D01*
G01X7737Y27683D01*
G01X7691Y27656D01*
G01X7646Y27627D01*
G01X7602Y27597D01*
G01X7560Y27565D01*
G01X7519Y27531D01*
G01X7479Y27495D01*
G01X7441Y27459D01*
G01X7403Y27420D01*
G01X7368Y27381D01*
G01X7334Y27339D01*
G01X7302Y27297D01*
G01X7271Y27253D01*
G01X7243Y27208D01*
G01X7216Y27162D01*
G01X7191Y27115D01*
G01X7168Y27068D01*
G01X7146Y27018D01*
G01X7127Y26969D01*
G01X7109Y26919D01*
G01X7094Y26868D01*
G01X7080Y26816D01*
G01X7069Y26764D01*
G01X7060Y26712D01*
G01X7052Y26659D01*
G01X7047Y26606D01*
G01X7044Y26553D01*
G01X7043Y26500D01*
G01X7044Y26446D01*
G01X7047Y26393D01*
G01X7052Y26339D01*
G01X7060Y26286D01*
G01X7069Y26234D01*
G01X7081Y26181D01*
G01X7095Y26129D01*
G01X7110Y26078D01*
G01X7128Y26028D01*
G01X7147Y25978D01*
G01X7169Y25929D01*
G01X7193Y25880D01*
G01X7218Y25833D01*
G01X7245Y25788D01*
G01X7274Y25742D01*
G01X7305Y25699D01*
G01X7337Y25656D01*
G01X7371Y25615D01*
G01X7407Y25575D01*
G01X7445Y25536D01*
G01X7483Y25499D01*
G01X7523Y25464D01*
G01X7565Y25430D01*
G01X7608Y25398D01*
G01X7652Y25367D01*
G01X7697Y25339D01*
G01X7743Y25312D01*
G01X7791Y25287D01*
G01X7839Y25264D01*
G01X7889Y25243D01*
G01X7938Y25224D01*
G01X7989Y25206D01*
G01X8040Y25192D01*
G01X8092Y25178D01*
G01X8145Y25167D01*
G01X8197Y25158D01*
G01X8212Y25155D01*
G01X8225Y25150D01*
G01X8238Y25143D01*
G01X8249Y25134D01*
G01X8259Y25124D01*
G01X8268Y25112D01*
G01X8275Y25100D01*
G01X8280Y25086D01*
G01X8283Y25072D01*
G01X8284Y25058D01*
G01X8283Y25043D01*
G01X8280Y25029D01*
G01X8275Y25015D01*
G01X8268Y25003D01*
G01X8259Y24991D01*
G01X8249Y24981D01*
G01X8238Y24972D01*
G01X8224Y24965D01*
G01X8211Y24960D01*
G01X8197Y24957D01*
G01X8182Y24956D01*
G01X7444Y24956D01*
G01X7428Y24957D01*
G01X7413Y24961D01*
G01X7398Y24967D01*
G01X7384Y24975D01*
G01X7372Y24986D01*
G01X5786Y26572D01*
G01X5776Y26584D01*
G01X5767Y26598D01*
G01X5761Y26613D01*
G01X5758Y26628D01*
G01X5756Y26643D01*
G01X5756Y27899D01*
G01X5755Y27923D01*
G01X5752Y27947D01*
G01X5746Y27970D01*
G01X5739Y27992D01*
G01X5730Y28014D01*
G01X5718Y28034D01*
G01X5704Y28054D01*
G01X5689Y28072D01*
G01X5673Y28089D01*
G01X5654Y28104D01*
G01X5635Y28118D01*
G01X5614Y28129D01*
G01X5592Y28139D01*
G01X5570Y28146D01*
G01X5547Y28152D01*
G01X5523Y28155D01*
G01X5500Y28156D01*
G01X2700Y28156D01*
G01X2676Y28155D01*
G01X2653Y28152D01*
G01X2629Y28146D01*
G01X2607Y28139D01*
G01X2585Y28129D01*
G01X2565Y28118D01*
G01X2545Y28104D01*
G01X2527Y28089D01*
G01X2510Y28072D01*
G01X2495Y28054D01*
G01X2481Y28034D01*
G01X2470Y28014D01*
G01X2461Y27992D01*
G01X2453Y27970D01*
G01X2447Y27947D01*
G01X2444Y27923D01*
G01X2443Y27899D01*
G01X2443Y25099D01*
G01X2444Y25076D01*
G01X2447Y25052D01*
G01X2453Y25029D01*
G01X2461Y25007D01*
G01X2470Y24985D01*
G01X2481Y24965D01*
G01X2495Y24945D01*
G01X2510Y24926D01*
G01X2527Y24910D01*
G01X2545Y24895D01*
G01X2565Y24881D01*
G01X2585Y24870D01*
G01X2607Y24860D01*
G01X2629Y24853D01*
G01X2653Y24847D01*
G01X2676Y24844D01*
G01X2700Y24843D01*
G01X3919Y24843D01*
G01X3935Y24842D01*
G01X3950Y24838D01*
G01X3965Y24832D01*
G01X3978Y24823D01*
G01X3991Y24813D01*
G01X5993Y22811D01*
G01X6030Y22775D01*
G01X6069Y22741D01*
G01X6110Y22708D01*
G01X6151Y22677D01*
G01X6194Y22648D01*
G01X6238Y22620D01*
G01X6283Y22594D01*
G01X6330Y22571D01*
G01X6377Y22549D01*
G01X6425Y22529D01*
G01X6473Y22511D01*
G01X6523Y22495D01*
G01X6573Y22481D01*
G01X6624Y22470D01*
G01X6674Y22460D01*
G01X6726Y22452D01*
G01X6778Y22447D01*
G01X6829Y22444D01*
G01X6881Y22443D01*
G01X19700Y22443D01*
G01X19751Y22444D01*
G01X19803Y22447D01*
G01X19855Y22452D01*
G01X19906Y22460D01*
G01X19957Y22470D01*
G01X20008Y22481D01*
G01X20058Y22495D01*
G01X20107Y22511D01*
G01X20156Y22529D01*
G01X20204Y22549D01*
G01X20251Y22571D01*
G01X20297Y22594D01*
G01X20343Y22620D01*
G01X20387Y22648D01*
G01X20430Y22677D01*
G01X20471Y22708D01*
G01X20511Y22741D01*
G01X20550Y22775D01*
G01X20588Y22811D01*
G01X23258Y25481D01*
G01X23294Y25519D01*
G01X23328Y25557D01*
G01X23361Y25598D01*
G01X23392Y25640D01*
G01X23422Y25682D01*
G01X23449Y25727D01*
G01X23475Y25772D01*
G01X23498Y25817D01*
G01X23520Y25865D01*
G01X23540Y25913D01*
G01X23558Y25962D01*
G01X23574Y26011D01*
G01X23588Y26061D01*
G01X23599Y26112D01*
G01X23609Y26163D01*
G01X23616Y26214D01*
G01X23622Y26266D01*
G01X23625Y26318D01*
G01X23626Y26370D01*
G01X23626Y26415D01*
G01X23627Y26432D01*
G01X23632Y26448D01*
G01X23639Y26464D01*
G01X23648Y26478D01*
G01X23684Y26524D01*
G01X23717Y26571D01*
G01X23749Y26620D01*
G01X23780Y26669D01*
G01X23808Y26720D01*
G01X23835Y26772D01*
G01X23860Y26824D01*
G01X23883Y26877D01*
G01X23904Y26931D01*
G01X23924Y26986D01*
G01X23940Y27041D01*
G01X23956Y27097D01*
G01X23969Y27154D01*
G01X23980Y27211D01*
G01X23990Y27268D01*
G01X23997Y27326D01*
G01X24002Y27384D01*
G01X24005Y27442D01*
G01X24006Y27499D01*
G01X24005Y27558D01*
G01X24002Y27616D01*
G01X23997Y27674D01*
G01X23989Y27732D01*
G01X23980Y27790D01*
G01X23969Y27847D01*
G01X23955Y27904D01*
G01X23940Y27961D01*
G01X23922Y28016D01*
G01X23903Y28071D01*
G01X23881Y28126D01*
G01X23858Y28179D01*
G01X23833Y28232D01*
G01X23806Y28284D01*
G01X23777Y28335D01*
G01X23746Y28384D01*
G01X23714Y28433D01*
G01X23680Y28480D01*
G01X23644Y28526D01*
G01X23606Y28571D01*
G01X23567Y28615D01*
G01X23527Y28657D01*
G01X23485Y28697D01*
G01X23441Y28736D01*
G01X23396Y28774D01*
G01X23350Y28810D01*
G01X23303Y28844D01*
G01X23255Y28876D01*
G01X23205Y28907D01*
G01X23154Y28936D01*
G01X23102Y28963D01*
G01X23049Y28988D01*
G01X22996Y29011D01*
G01X22942Y29033D01*
G01X22886Y29052D01*
G01X22830Y29070D01*
G01X22774Y29085D01*
G01X22718Y29099D01*
G01X22660Y29110D01*
G01X22602Y29119D01*
G01X22544Y29127D01*
G01X22486Y29132D01*
G01X22428Y29135D01*
G37*
G36*
G01X156834Y28060D02*
G01X156800Y28061D01*
G01X156766Y28060D01*
G01X156732Y28057D01*
G01X156699Y28052D01*
G01X156666Y28045D01*
G01X156632Y28035D01*
G01X156600Y28024D01*
G01X156569Y28012D01*
G01X156509Y27980D01*
G01X156481Y27961D01*
G01X156454Y27941D01*
G01X156427Y27920D01*
G01X156403Y27896D01*
G01X156380Y27872D01*
G01X156358Y27845D01*
G01X156338Y27818D01*
G01X156319Y27790D01*
G01X156303Y27761D01*
G01X156288Y27730D01*
G01X156275Y27699D01*
G01X156264Y27667D01*
G01X156255Y27634D01*
G01X156247Y27601D01*
G01X156242Y27567D01*
G01X156239Y27534D01*
G01X156238Y27499D01*
G01X156239Y27465D01*
G01X156242Y27430D01*
G01X156248Y27396D01*
G01X156255Y27363D01*
G01X156265Y27329D01*
G01X156276Y27297D01*
G01X156290Y27265D01*
G01X156305Y27234D01*
G01X156322Y27204D01*
G01X156341Y27175D01*
G01X156362Y27147D01*
G01X156385Y27122D01*
G01X156409Y27097D01*
G01X156434Y27073D01*
G01X156461Y27051D01*
G01X156489Y27032D01*
G01X156519Y27013D01*
G01X156549Y26997D01*
G01X156581Y26983D01*
G01X156613Y26970D01*
G01X156646Y26959D01*
G01X156679Y26951D01*
G01X156713Y26945D01*
G01X156748Y26941D01*
G01X156782Y26939D01*
G01X156798Y26937D01*
G01X156812Y26933D01*
G01X156826Y26927D01*
G01X156839Y26919D01*
G01X156851Y26909D01*
G01X156900Y26859D01*
G01X156911Y26847D01*
G01X156919Y26833D01*
G01X156925Y26819D01*
G01X156929Y26803D01*
G01X156930Y26787D01*
G01X156929Y26769D01*
G01X156924Y26752D01*
G01X156916Y26736D01*
G01X156891Y26691D01*
G01X156868Y26646D01*
G01X156846Y26599D01*
G01X156827Y26551D01*
G01X156809Y26503D01*
G01X156794Y26454D01*
G01X156780Y26404D01*
G01X156769Y26354D01*
G01X156759Y26304D01*
G01X156752Y26253D01*
G01X156747Y26202D01*
G01X156744Y26151D01*
G01X156743Y26099D01*
G01X156744Y26049D01*
G01X156747Y25998D01*
G01X156752Y25948D01*
G01X156759Y25898D01*
G01X156769Y25848D01*
G01X156779Y25799D01*
G01X156793Y25750D01*
G01X156808Y25702D01*
G01X156825Y25654D01*
G01X156843Y25607D01*
G01X156864Y25561D01*
G01X156887Y25516D01*
G01X156911Y25471D01*
G01X156937Y25428D01*
G01X156965Y25386D01*
G01X156995Y25345D01*
G01X157026Y25305D01*
G01X157059Y25266D01*
G01X157093Y25229D01*
G01X157129Y25193D01*
G01X157166Y25159D01*
G01X157205Y25126D01*
G01X157245Y25095D01*
G01X157286Y25066D01*
G01X157328Y25038D01*
G01X157371Y25011D01*
G01X157416Y24987D01*
G01X157461Y24965D01*
G01X157507Y24944D01*
G01X157554Y24924D01*
G01X157650Y24892D01*
G01X157699Y24880D01*
G01X157748Y24869D01*
G01X157798Y24859D01*
G01X157848Y24852D01*
G01X157898Y24847D01*
G01X157949Y24844D01*
G01X158000Y24843D01*
G01X158050Y24844D01*
G01X158101Y24847D01*
G01X158151Y24852D01*
G01X158201Y24859D01*
G01X158251Y24869D01*
G01X158300Y24880D01*
G01X158349Y24892D01*
G01X158445Y24924D01*
G01X158492Y24944D01*
G01X158538Y24965D01*
G01X158584Y24987D01*
G01X158628Y25011D01*
G01X158671Y25038D01*
G01X158713Y25066D01*
G01X158754Y25095D01*
G01X158794Y25126D01*
G01X158833Y25159D01*
G01X158870Y25193D01*
G01X158906Y25229D01*
G01X158940Y25266D01*
G01X158973Y25305D01*
G01X159004Y25345D01*
G01X159034Y25386D01*
G01X159062Y25428D01*
G01X159088Y25471D01*
G01X159112Y25516D01*
G01X159135Y25561D01*
G01X159156Y25607D01*
G01X159175Y25654D01*
G01X159207Y25750D01*
G01X159220Y25799D01*
G01X159231Y25848D01*
G01X159240Y25898D01*
G01X159247Y25948D01*
G01X159252Y25998D01*
G01X159255Y26049D01*
G01X159256Y26099D01*
G01X159255Y26150D01*
G01X159252Y26201D01*
G01X159247Y26251D01*
G01X159240Y26301D01*
G01X159231Y26351D01*
G01X159220Y26400D01*
G01X159207Y26449D01*
G01X159175Y26545D01*
G01X159156Y26592D01*
G01X159135Y26638D01*
G01X159112Y26684D01*
G01X159088Y26728D01*
G01X159062Y26771D01*
G01X159034Y26813D01*
G01X159004Y26854D01*
G01X158973Y26894D01*
G01X158940Y26933D01*
G01X158906Y26970D01*
G01X158870Y27006D01*
G01X158833Y27040D01*
G01X158794Y27073D01*
G01X158754Y27104D01*
G01X158713Y27134D01*
G01X158671Y27162D01*
G01X158628Y27188D01*
G01X158584Y27212D01*
G01X158538Y27235D01*
G01X158492Y27256D01*
G01X158445Y27274D01*
G01X158397Y27291D01*
G01X158349Y27306D01*
G01X158300Y27320D01*
G01X158251Y27331D01*
G01X158201Y27340D01*
G01X158151Y27347D01*
G01X158101Y27352D01*
G01X158050Y27355D01*
G01X158000Y27356D01*
G01X157944Y27355D01*
G01X157889Y27351D01*
G01X157834Y27345D01*
G01X157780Y27337D01*
G01X157726Y27326D01*
G01X157672Y27313D01*
G01X157619Y27297D01*
G01X157604Y27294D01*
G01X157589Y27292D01*
G01X157572Y27294D01*
G01X157557Y27297D01*
G01X157542Y27303D01*
G01X157529Y27312D01*
G01X157516Y27322D01*
G01X157390Y27448D01*
G01X157380Y27460D01*
G01X157372Y27473D01*
G01X157366Y27487D01*
G01X157362Y27502D01*
G01X157360Y27517D01*
G01X157358Y27551D01*
G01X157354Y27586D01*
G01X157348Y27620D01*
G01X157340Y27653D01*
G01X157329Y27686D01*
G01X157316Y27718D01*
G01X157302Y27750D01*
G01X157286Y27780D01*
G01X157267Y27810D01*
G01X157248Y27838D01*
G01X157226Y27865D01*
G01X157178Y27915D01*
G01X157152Y27937D01*
G01X157124Y27958D01*
G01X157095Y27977D01*
G01X157065Y27994D01*
G01X157034Y28010D01*
G01X157002Y28023D01*
G01X156970Y28034D01*
G01X156936Y28044D01*
G01X156903Y28051D01*
G01X156869Y28057D01*
G01X156834Y28060D01*
G37*
G36*
G01X98000Y38381D02*
G01X65100Y38381D01*
G01X65070Y38380D01*
G01X65040Y38376D01*
G01X65011Y38371D01*
G01X64982Y38363D01*
G01X64954Y38352D01*
G01X64926Y38340D01*
G01X64900Y38325D01*
G01X64875Y38308D01*
G01X64852Y38290D01*
G01X64830Y38269D01*
G01X54430Y27869D01*
G01X54409Y27847D01*
G01X54391Y27824D01*
G01X54374Y27799D01*
G01X54359Y27773D01*
G01X54347Y27745D01*
G01X54337Y27717D01*
G01X54328Y27688D01*
G01X54323Y27659D01*
G01X54319Y27630D01*
G01X54318Y27600D01*
G01X54318Y27008D01*
G01X54317Y26994D01*
G01X54314Y26980D01*
G01X54309Y26966D01*
G01X54302Y26953D01*
G01X54293Y26942D01*
G01X54283Y26932D01*
G01X54272Y26923D01*
G01X54259Y26916D01*
G01X54245Y26911D01*
G01X54231Y26908D01*
G01X54217Y26907D01*
G01X54200Y26907D01*
G01X54177Y26906D01*
G01X54154Y26902D01*
G01X54130Y26897D01*
G01X54108Y26889D01*
G01X54086Y26880D01*
G01X54066Y26868D01*
G01X54046Y26855D01*
G01X54028Y26840D01*
G01X54011Y26823D01*
G01X53996Y26805D01*
G01X53982Y26785D01*
G01X53971Y26764D01*
G01X53961Y26743D01*
G01X53954Y26720D01*
G01X53948Y26697D01*
G01X53945Y26674D01*
G01X53944Y26650D01*
G01X53944Y25149D01*
G01X53945Y25125D01*
G01X53948Y25102D01*
G01X53954Y25079D01*
G01X53961Y25056D01*
G01X53971Y25035D01*
G01X53982Y25014D01*
G01X53996Y24995D01*
G01X54011Y24976D01*
G01X54028Y24959D01*
G01X54046Y24944D01*
G01X54066Y24931D01*
G01X54086Y24919D01*
G01X54108Y24910D01*
G01X54130Y24902D01*
G01X54154Y24897D01*
G01X54177Y24893D01*
G01X54200Y24892D01*
G01X55199Y24892D01*
G01X55222Y24893D01*
G01X55246Y24897D01*
G01X55269Y24902D01*
G01X55292Y24910D01*
G01X55313Y24919D01*
G01X55334Y24931D01*
G01X55354Y24944D01*
G01X55372Y24959D01*
G01X55389Y24976D01*
G01X55417Y25014D01*
G01X55428Y25035D01*
G01X55438Y25056D01*
G01X55445Y25079D01*
G01X55451Y25102D01*
G01X55454Y25125D01*
G01X55455Y25149D01*
G01X55455Y26650D01*
G01X55454Y26674D01*
G01X55451Y26697D01*
G01X55445Y26720D01*
G01X55438Y26743D01*
G01X55428Y26764D01*
G01X55417Y26785D01*
G01X55403Y26805D01*
G01X55389Y26823D01*
G01X55372Y26840D01*
G01X55354Y26855D01*
G01X55334Y26868D01*
G01X55313Y26880D01*
G01X55292Y26889D01*
G01X55269Y26897D01*
G01X55246Y26902D01*
G01X55222Y26906D01*
G01X55199Y26907D01*
G01X55183Y26907D01*
G01X55168Y26908D01*
G01X55154Y26911D01*
G01X55141Y26916D01*
G01X55128Y26923D01*
G01X55116Y26932D01*
G01X55106Y26942D01*
G01X55098Y26953D01*
G01X55090Y26966D01*
G01X55085Y26980D01*
G01X55082Y26994D01*
G01X55081Y27008D01*
G01X55081Y27399D01*
G01X55082Y27415D01*
G01X55086Y27431D01*
G01X55092Y27446D01*
G01X55101Y27459D01*
G01X55111Y27471D01*
G01X65228Y37588D01*
G01X65240Y37599D01*
G01X65253Y37607D01*
G01X65268Y37613D01*
G01X65284Y37617D01*
G01X65300Y37618D01*
G01X97799Y37618D01*
G01X97815Y37617D01*
G01X97831Y37613D01*
G01X97846Y37607D01*
G01X97859Y37599D01*
G01X97871Y37588D01*
G01X107430Y28030D01*
G01X107452Y28010D01*
G01X107475Y27991D01*
G01X107500Y27974D01*
G01X107526Y27960D01*
G01X107554Y27947D01*
G01X107582Y27937D01*
G01X107610Y27929D01*
G01X107640Y27923D01*
G01X107669Y27919D01*
G01X107699Y27918D01*
G01X131400Y27918D01*
G01X131430Y27919D01*
G01X131459Y27923D01*
G01X131489Y27929D01*
G01X131517Y27937D01*
G01X131545Y27947D01*
G01X131573Y27960D01*
G01X131599Y27974D01*
G01X131624Y27991D01*
G01X131648Y28010D01*
G01X131669Y28030D01*
G01X132469Y28829D01*
G01X132490Y28852D01*
G01X132508Y28875D01*
G01X132525Y28900D01*
G01X132540Y28926D01*
G01X132552Y28953D01*
G01X132562Y28981D01*
G01X132571Y29010D01*
G01X132576Y29040D01*
G01X132580Y29070D01*
G01X132581Y29100D01*
G01X132581Y29189D01*
G01X132582Y29205D01*
G01X132586Y29221D01*
G01X132592Y29236D01*
G01X132601Y29250D01*
G01X132612Y29262D01*
G01X132625Y29272D01*
G01X132639Y29281D01*
G01X132681Y29302D01*
G01X132723Y29326D01*
G01X132764Y29351D01*
G01X132803Y29379D01*
G01X132841Y29408D01*
G01X132877Y29439D01*
G01X132912Y29472D01*
G01X132945Y29506D01*
G01X132977Y29542D01*
G01X133007Y29579D01*
G01X133035Y29617D01*
G01X133062Y29657D01*
G01X133086Y29699D01*
G01X133109Y29741D01*
G01X133117Y29754D01*
G01X133127Y29767D01*
G01X133140Y29777D01*
G01X133153Y29785D01*
G01X133168Y29792D01*
G01X133184Y29795D01*
G01X133199Y29797D01*
G01X133216Y29795D01*
G01X133231Y29792D01*
G01X133246Y29785D01*
G01X133259Y29777D01*
G01X133272Y29767D01*
G01X133282Y29754D01*
G01X133290Y29741D01*
G01X133312Y29699D01*
G01X133336Y29659D01*
G01X133362Y29620D01*
G01X133389Y29582D01*
G01X133449Y29510D01*
G01X133482Y29477D01*
G01X133516Y29445D01*
G01X133552Y29414D01*
G01X133588Y29385D01*
G01X133626Y29358D01*
G01X133666Y29332D01*
G01X133706Y29308D01*
G01X133748Y29287D01*
G01X133790Y29267D01*
G01X133833Y29249D01*
G01X133878Y29233D01*
G01X133922Y29220D01*
G01X133968Y29208D01*
G01X134013Y29198D01*
G01X134060Y29191D01*
G01X134106Y29186D01*
G01X134153Y29182D01*
G01X134200Y29181D01*
G01X134249Y29182D01*
G01X134298Y29186D01*
G01X134347Y29192D01*
G01X134396Y29200D01*
G01X134444Y29211D01*
G01X134492Y29224D01*
G01X134539Y29239D01*
G01X134555Y29243D01*
G01X134573Y29245D01*
G01X134588Y29243D01*
G01X134604Y29240D01*
G01X134619Y29234D01*
G01X134632Y29226D01*
G01X134644Y29215D01*
G01X137630Y26229D01*
G01X137652Y26209D01*
G01X137675Y26191D01*
G01X137700Y26174D01*
G01X137726Y26159D01*
G01X137754Y26147D01*
G01X137782Y26137D01*
G01X137811Y26128D01*
G01X137840Y26123D01*
G01X137870Y26119D01*
G01X137899Y26118D01*
G01X140824Y26118D01*
G01X140838Y26117D01*
G01X140852Y26114D01*
G01X140866Y26109D01*
G01X140878Y26102D01*
G01X140890Y26093D01*
G01X140900Y26083D01*
G01X140909Y26071D01*
G01X140916Y26059D01*
G01X140921Y26045D01*
G01X140924Y26031D01*
G01X140925Y26016D01*
G01X140925Y25399D01*
G01X140926Y25376D01*
G01X140929Y25352D01*
G01X140935Y25329D01*
G01X140942Y25307D01*
G01X140952Y25285D01*
G01X140963Y25264D01*
G01X140977Y25245D01*
G01X140992Y25227D01*
G01X141009Y25210D01*
G01X141027Y25195D01*
G01X141047Y25181D01*
G01X141067Y25170D01*
G01X141089Y25160D01*
G01X141112Y25153D01*
G01X141134Y25147D01*
G01X141158Y25144D01*
G01X141182Y25143D01*
G01X143382Y25143D01*
G01X143405Y25144D01*
G01X143429Y25147D01*
G01X143452Y25153D01*
G01X143474Y25160D01*
G01X143496Y25170D01*
G01X143516Y25181D01*
G01X143536Y25195D01*
G01X143555Y25210D01*
G01X143571Y25227D01*
G01X143587Y25245D01*
G01X143600Y25264D01*
G01X143611Y25285D01*
G01X143621Y25307D01*
G01X143628Y25329D01*
G01X143634Y25352D01*
G01X143637Y25376D01*
G01X143638Y25399D01*
G01X143638Y27600D01*
G01X143637Y27623D01*
G01X143634Y27647D01*
G01X143628Y27670D01*
G01X143621Y27692D01*
G01X143611Y27714D01*
G01X143600Y27735D01*
G01X143587Y27754D01*
G01X143571Y27772D01*
G01X143555Y27789D01*
G01X143536Y27804D01*
G01X143516Y27817D01*
G01X143496Y27829D01*
G01X143474Y27839D01*
G01X143452Y27846D01*
G01X143429Y27852D01*
G01X143405Y27855D01*
G01X143382Y27856D01*
G01X141182Y27856D01*
G01X141158Y27855D01*
G01X141134Y27852D01*
G01X141112Y27846D01*
G01X141089Y27839D01*
G01X141067Y27829D01*
G01X141047Y27817D01*
G01X141027Y27804D01*
G01X141009Y27789D01*
G01X140992Y27772D01*
G01X140977Y27754D01*
G01X140963Y27735D01*
G01X140952Y27714D01*
G01X140942Y27692D01*
G01X140935Y27670D01*
G01X140929Y27647D01*
G01X140926Y27623D01*
G01X140925Y27600D01*
G01X140925Y26983D01*
G01X140924Y26968D01*
G01X140921Y26954D01*
G01X140916Y26940D01*
G01X140909Y26927D01*
G01X140900Y26916D01*
G01X140890Y26906D01*
G01X140878Y26897D01*
G01X140866Y26890D01*
G01X140852Y26885D01*
G01X140838Y26882D01*
G01X140824Y26881D01*
G01X138100Y26881D01*
G01X138084Y26882D01*
G01X138068Y26886D01*
G01X138053Y26892D01*
G01X138040Y26901D01*
G01X138028Y26911D01*
G01X135910Y29029D01*
G01X135899Y29041D01*
G01X135891Y29054D01*
G01X135885Y29069D01*
G01X135881Y29085D01*
G01X135880Y29101D01*
G01X135881Y29115D01*
G01X135884Y29130D01*
G01X135889Y29143D01*
G01X135896Y29156D01*
G01X135905Y29167D01*
G01X135915Y29177D01*
G01X135926Y29187D01*
G01X135939Y29193D01*
G01X135953Y29198D01*
G01X135967Y29201D01*
G01X135981Y29202D01*
G01X136001Y29200D01*
G01X136050Y29192D01*
G01X136100Y29186D01*
G01X136150Y29182D01*
G01X136200Y29181D01*
G01X136247Y29182D01*
G01X136294Y29186D01*
G01X136341Y29191D01*
G01X136388Y29199D01*
G01X136434Y29208D01*
G01X136480Y29221D01*
G01X136525Y29234D01*
G01X136570Y29251D01*
G01X136614Y29269D01*
G01X136656Y29289D01*
G01X136698Y29312D01*
G01X136739Y29335D01*
G01X136778Y29361D01*
G01X136817Y29389D01*
G01X136854Y29419D01*
G01X136890Y29450D01*
G01X136924Y29483D01*
G01X136956Y29518D01*
G01X136987Y29553D01*
G01X137016Y29591D01*
G01X137043Y29630D01*
G01X137069Y29669D01*
G01X137093Y29710D01*
G01X137115Y29752D01*
G01X137123Y29766D01*
G01X137133Y29778D01*
G01X137146Y29789D01*
G01X137159Y29798D01*
G01X137174Y29804D01*
G01X137190Y29808D01*
G01X137206Y29809D01*
G01X158506Y29818D01*
G01X158522Y29817D01*
G01X158537Y29813D01*
G01X158551Y29807D01*
G01X158564Y29800D01*
G01X158577Y29790D01*
G01X161818Y26699D01*
G01X161829Y26687D01*
G01X161837Y26673D01*
G01X161844Y26658D01*
G01X161848Y26642D01*
G01X161849Y26626D01*
G01X161847Y26606D01*
G01X161841Y26587D01*
G01X161821Y26535D01*
G01X161803Y26482D01*
G01X161787Y26429D01*
G01X161773Y26375D01*
G01X161763Y26320D01*
G01X161754Y26266D01*
G01X161748Y26211D01*
G01X161744Y26155D01*
G01X161743Y26099D01*
G01X161744Y26049D01*
G01X161747Y25998D01*
G01X161752Y25948D01*
G01X161759Y25898D01*
G01X161768Y25848D01*
G01X161780Y25799D01*
G01X161793Y25750D01*
G01X161807Y25702D01*
G01X161825Y25654D01*
G01X161844Y25607D01*
G01X161864Y25561D01*
G01X161887Y25516D01*
G01X161912Y25471D01*
G01X161938Y25428D01*
G01X161965Y25386D01*
G01X161995Y25345D01*
G01X162026Y25305D01*
G01X162059Y25266D01*
G01X162093Y25229D01*
G01X162129Y25193D01*
G01X162166Y25159D01*
G01X162205Y25126D01*
G01X162245Y25095D01*
G01X162286Y25066D01*
G01X162328Y25038D01*
G01X162371Y25011D01*
G01X162416Y24987D01*
G01X162461Y24965D01*
G01X162507Y24944D01*
G01X162554Y24924D01*
G01X162601Y24908D01*
G01X162650Y24892D01*
G01X162699Y24880D01*
G01X162748Y24869D01*
G01X162798Y24859D01*
G01X162848Y24852D01*
G01X162899Y24847D01*
G01X162949Y24844D01*
G01X163000Y24843D01*
G01X163050Y24844D01*
G01X163101Y24847D01*
G01X163151Y24852D01*
G01X163201Y24859D01*
G01X163251Y24869D01*
G01X163300Y24880D01*
G01X163349Y24892D01*
G01X163398Y24908D01*
G01X163445Y24924D01*
G01X163492Y24944D01*
G01X163538Y24965D01*
G01X163583Y24987D01*
G01X163628Y25011D01*
G01X163671Y25038D01*
G01X163713Y25066D01*
G01X163755Y25095D01*
G01X163794Y25126D01*
G01X163833Y25159D01*
G01X163870Y25193D01*
G01X163906Y25229D01*
G01X163940Y25266D01*
G01X163973Y25305D01*
G01X164004Y25345D01*
G01X164034Y25386D01*
G01X164061Y25428D01*
G01X164088Y25471D01*
G01X164112Y25516D01*
G01X164135Y25561D01*
G01X164155Y25607D01*
G01X164174Y25654D01*
G01X164192Y25702D01*
G01X164206Y25750D01*
G01X164219Y25799D01*
G01X164231Y25848D01*
G01X164240Y25898D01*
G01X164247Y25948D01*
G01X164252Y25998D01*
G01X164255Y26049D01*
G01X164256Y26099D01*
G01X164255Y26150D01*
G01X164252Y26201D01*
G01X164247Y26251D01*
G01X164240Y26301D01*
G01X164231Y26351D01*
G01X164219Y26400D01*
G01X164206Y26449D01*
G01X164192Y26497D01*
G01X164174Y26545D01*
G01X164155Y26592D01*
G01X164135Y26638D01*
G01X164112Y26684D01*
G01X164088Y26728D01*
G01X164061Y26771D01*
G01X164034Y26813D01*
G01X164004Y26854D01*
G01X163973Y26894D01*
G01X163940Y26933D01*
G01X163906Y26970D01*
G01X163870Y27006D01*
G01X163833Y27040D01*
G01X163794Y27073D01*
G01X163755Y27104D01*
G01X163713Y27134D01*
G01X163671Y27162D01*
G01X163628Y27188D01*
G01X163583Y27212D01*
G01X163538Y27235D01*
G01X163492Y27256D01*
G01X163445Y27274D01*
G01X163398Y27291D01*
G01X163349Y27306D01*
G01X163300Y27320D01*
G01X163251Y27331D01*
G01X163201Y27340D01*
G01X163151Y27347D01*
G01X163101Y27352D01*
G01X163050Y27355D01*
G01X163000Y27356D01*
G01X162949Y27355D01*
G01X162898Y27352D01*
G01X162847Y27347D01*
G01X162797Y27339D01*
G01X162747Y27330D01*
G01X162697Y27319D01*
G01X162648Y27306D01*
G01X162599Y27291D01*
G01X162552Y27273D01*
G01X162504Y27255D01*
G01X162458Y27233D01*
G01X162444Y27228D01*
G01X162429Y27225D01*
G01X162415Y27224D01*
G01X162399Y27225D01*
G01X162384Y27228D01*
G01X162369Y27234D01*
G01X162356Y27242D01*
G01X162344Y27252D01*
G01X158963Y30476D01*
G01X158941Y30495D01*
G01X158918Y30512D01*
G01X158894Y30528D01*
G01X158868Y30542D01*
G01X158841Y30554D01*
G01X158814Y30564D01*
G01X158786Y30571D01*
G01X158757Y30576D01*
G01X158728Y30580D01*
G01X158700Y30581D01*
G01X137214Y30572D01*
G01X137200Y30573D01*
G01X137186Y30576D01*
G01X137160Y30588D01*
G01X137148Y30597D01*
G01X137138Y30607D01*
G01X137129Y30618D01*
G01X137122Y30631D01*
G01X137102Y30672D01*
G01X137080Y30713D01*
G01X137055Y30752D01*
G01X137029Y30790D01*
G01X137002Y30827D01*
G01X136972Y30863D01*
G01X136941Y30897D01*
G01X136909Y30930D01*
G01X136875Y30961D01*
G01X136840Y30991D01*
G01X136804Y31020D01*
G01X136766Y31046D01*
G01X136727Y31071D01*
G01X136687Y31094D01*
G01X136646Y31115D01*
G01X136604Y31134D01*
G01X136561Y31152D01*
G01X136517Y31167D01*
G01X136473Y31180D01*
G01X136428Y31192D01*
G01X136383Y31201D01*
G01X136338Y31209D01*
G01X136292Y31214D01*
G01X136246Y31217D01*
G01X136200Y31218D01*
G01X136153Y31217D01*
G01X136106Y31214D01*
G01X136060Y31208D01*
G01X136013Y31201D01*
G01X135968Y31191D01*
G01X135922Y31179D01*
G01X135878Y31166D01*
G01X135833Y31150D01*
G01X135790Y31132D01*
G01X135748Y31112D01*
G01X135706Y31091D01*
G01X135666Y31067D01*
G01X135626Y31042D01*
G01X135588Y31014D01*
G01X135552Y30985D01*
G01X135516Y30955D01*
G01X135482Y30922D01*
G01X135449Y30889D01*
G01X135419Y30854D01*
G01X135389Y30817D01*
G01X135362Y30779D01*
G01X135336Y30740D01*
G01X135312Y30700D01*
G01X135290Y30658D01*
G01X135282Y30645D01*
G01X135272Y30633D01*
G01X135259Y30622D01*
G01X135246Y30614D01*
G01X135231Y30607D01*
G01X135216Y30604D01*
G01X135199Y30603D01*
G01X135184Y30604D01*
G01X135168Y30607D01*
G01X135153Y30614D01*
G01X135140Y30622D01*
G01X135127Y30633D01*
G01X135117Y30645D01*
G01X135109Y30658D01*
G01X135087Y30700D01*
G01X135063Y30740D01*
G01X135037Y30779D01*
G01X135009Y30817D01*
G01X134981Y30854D01*
G01X134950Y30889D01*
G01X134917Y30922D01*
G01X134883Y30955D01*
G01X134847Y30985D01*
G01X134811Y31014D01*
G01X134773Y31042D01*
G01X134734Y31067D01*
G01X134693Y31091D01*
G01X134651Y31112D01*
G01X134609Y31132D01*
G01X134566Y31150D01*
G01X134522Y31166D01*
G01X134477Y31179D01*
G01X134432Y31191D01*
G01X134386Y31201D01*
G01X134339Y31208D01*
G01X134293Y31214D01*
G01X134246Y31217D01*
G01X134200Y31218D01*
G01X134153Y31217D01*
G01X134106Y31214D01*
G01X134060Y31208D01*
G01X134013Y31201D01*
G01X133968Y31191D01*
G01X133922Y31179D01*
G01X133878Y31166D01*
G01X133833Y31150D01*
G01X133790Y31132D01*
G01X133748Y31112D01*
G01X133706Y31091D01*
G01X133666Y31067D01*
G01X133626Y31042D01*
G01X133588Y31014D01*
G01X133552Y30985D01*
G01X133516Y30955D01*
G01X133482Y30922D01*
G01X133449Y30889D01*
G01X133419Y30854D01*
G01X133389Y30817D01*
G01X133362Y30779D01*
G01X133336Y30740D01*
G01X133312Y30700D01*
G01X133290Y30658D01*
G01X133282Y30645D01*
G01X133272Y30633D01*
G01X133259Y30622D01*
G01X133246Y30614D01*
G01X133231Y30607D01*
G01X133216Y30604D01*
G01X133199Y30603D01*
G01X133184Y30604D01*
G01X133168Y30607D01*
G01X133153Y30614D01*
G01X133140Y30622D01*
G01X133127Y30633D01*
G01X133117Y30645D01*
G01X133109Y30658D01*
G01X133087Y30700D01*
G01X133063Y30740D01*
G01X133037Y30779D01*
G01X133009Y30817D01*
G01X132981Y30854D01*
G01X132950Y30889D01*
G01X132917Y30922D01*
G01X132883Y30955D01*
G01X132847Y30985D01*
G01X132811Y31014D01*
G01X132773Y31042D01*
G01X132734Y31067D01*
G01X132693Y31091D01*
G01X132651Y31112D01*
G01X132609Y31132D01*
G01X132566Y31150D01*
G01X132522Y31166D01*
G01X132477Y31179D01*
G01X132432Y31191D01*
G01X132386Y31201D01*
G01X132339Y31208D01*
G01X132293Y31214D01*
G01X132246Y31217D01*
G01X132200Y31218D01*
G01X132153Y31217D01*
G01X132106Y31214D01*
G01X132060Y31208D01*
G01X132013Y31201D01*
G01X131968Y31191D01*
G01X131922Y31179D01*
G01X131878Y31166D01*
G01X131833Y31150D01*
G01X131790Y31132D01*
G01X131748Y31112D01*
G01X131706Y31091D01*
G01X131666Y31067D01*
G01X131626Y31042D01*
G01X131588Y31014D01*
G01X131552Y30985D01*
G01X131516Y30955D01*
G01X131482Y30922D01*
G01X131449Y30889D01*
G01X131419Y30854D01*
G01X131389Y30817D01*
G01X131362Y30779D01*
G01X131336Y30740D01*
G01X131312Y30700D01*
G01X131290Y30658D01*
G01X131282Y30645D01*
G01X131272Y30633D01*
G01X131259Y30622D01*
G01X131246Y30614D01*
G01X131231Y30607D01*
G01X131216Y30604D01*
G01X131199Y30603D01*
G01X131184Y30604D01*
G01X131168Y30607D01*
G01X131153Y30614D01*
G01X131140Y30622D01*
G01X131127Y30633D01*
G01X131117Y30645D01*
G01X131109Y30658D01*
G01X131087Y30700D01*
G01X131063Y30740D01*
G01X131037Y30779D01*
G01X131009Y30817D01*
G01X130981Y30854D01*
G01X130950Y30889D01*
G01X130917Y30922D01*
G01X130883Y30955D01*
G01X130847Y30985D01*
G01X130811Y31014D01*
G01X130773Y31042D01*
G01X130734Y31067D01*
G01X130693Y31091D01*
G01X130651Y31112D01*
G01X130609Y31132D01*
G01X130566Y31150D01*
G01X130522Y31166D01*
G01X130477Y31179D01*
G01X130432Y31191D01*
G01X130386Y31201D01*
G01X130339Y31208D01*
G01X130293Y31214D01*
G01X130246Y31217D01*
G01X130200Y31218D01*
G01X130153Y31217D01*
G01X130108Y31214D01*
G01X130062Y31209D01*
G01X130016Y31201D01*
G01X129972Y31192D01*
G01X129927Y31181D01*
G01X129883Y31168D01*
G01X129840Y31152D01*
G01X129797Y31135D01*
G01X129755Y31116D01*
G01X129714Y31095D01*
G01X129674Y31072D01*
G01X129635Y31047D01*
G01X129598Y31021D01*
G01X129561Y30993D01*
G01X129526Y30964D01*
G01X129492Y30932D01*
G01X129460Y30900D01*
G01X129429Y30865D01*
G01X129400Y30830D01*
G01X129389Y30819D01*
G01X129377Y30809D01*
G01X129364Y30801D01*
G01X129350Y30796D01*
G01X129335Y30792D01*
G01X129320Y30791D01*
G01X129305Y30792D01*
G01X129291Y30795D01*
G01X129278Y30800D01*
G01X129265Y30807D01*
G01X129253Y30816D01*
G01X129243Y30826D01*
G01X129234Y30838D01*
G01X129227Y30851D01*
G01X129222Y30864D01*
G01X129219Y30878D01*
G01X129218Y30893D01*
G01X129218Y30961D01*
G01X129217Y30985D01*
G01X129214Y31009D01*
G01X129208Y31032D01*
G01X129201Y31054D01*
G01X129191Y31076D01*
G01X129180Y31097D01*
G01X129166Y31116D01*
G01X129151Y31134D01*
G01X129134Y31151D01*
G01X129116Y31166D01*
G01X129097Y31179D01*
G01X129076Y31191D01*
G01X129054Y31201D01*
G01X129032Y31208D01*
G01X129008Y31214D01*
G01X128985Y31217D01*
G01X128962Y31218D01*
G01X128644Y31218D01*
G01X128644Y30644D01*
G01X129133Y30644D01*
G01X129148Y30643D01*
G01X129162Y30640D01*
G01X129176Y30635D01*
G01X129188Y30628D01*
G01X129200Y30619D01*
G01X129210Y30609D01*
G01X129219Y30597D01*
G01X129225Y30585D01*
G01X129230Y30571D01*
G01X129234Y30557D01*
G01X129235Y30542D01*
G01X129234Y30527D01*
G01X129230Y30511D01*
G01X129215Y30461D01*
G01X129203Y30409D01*
G01X129193Y30357D01*
G01X129186Y30305D01*
G01X129182Y30252D01*
G01X129181Y30199D01*
G01X129182Y30147D01*
G01X129186Y30094D01*
G01X129193Y30042D01*
G01X129203Y29990D01*
G01X129215Y29938D01*
G01X129230Y29888D01*
G01X129234Y29872D01*
G01X129235Y29857D01*
G01X129234Y29842D01*
G01X129230Y29828D01*
G01X129225Y29814D01*
G01X129219Y29802D01*
G01X129210Y29790D01*
G01X129200Y29780D01*
G01X129188Y29771D01*
G01X129176Y29764D01*
G01X129162Y29759D01*
G01X129148Y29756D01*
G01X129133Y29755D01*
G01X128644Y29755D01*
G01X128644Y29181D01*
G01X128962Y29181D01*
G01X128985Y29182D01*
G01X129008Y29186D01*
G01X129032Y29191D01*
G01X129054Y29198D01*
G01X129076Y29208D01*
G01X129097Y29220D01*
G01X129116Y29233D01*
G01X129134Y29248D01*
G01X129151Y29265D01*
G01X129166Y29283D01*
G01X129180Y29302D01*
G01X129191Y29323D01*
G01X129201Y29345D01*
G01X129208Y29367D01*
G01X129214Y29390D01*
G01X129217Y29414D01*
G01X129218Y29437D01*
G01X129218Y29506D01*
G01X129219Y29521D01*
G01X129222Y29535D01*
G01X129227Y29549D01*
G01X129234Y29561D01*
G01X129243Y29573D01*
G01X129253Y29583D01*
G01X129265Y29592D01*
G01X129278Y29599D01*
G01X129291Y29604D01*
G01X129305Y29607D01*
G01X129320Y29608D01*
G01X129335Y29607D01*
G01X129350Y29603D01*
G01X129364Y29598D01*
G01X129377Y29590D01*
G01X129389Y29580D01*
G01X129400Y29569D01*
G01X129429Y29534D01*
G01X129460Y29499D01*
G01X129492Y29467D01*
G01X129526Y29435D01*
G01X129561Y29406D01*
G01X129598Y29378D01*
G01X129635Y29352D01*
G01X129674Y29327D01*
G01X129714Y29304D01*
G01X129755Y29283D01*
G01X129797Y29264D01*
G01X129840Y29247D01*
G01X129883Y29232D01*
G01X129927Y29218D01*
G01X129972Y29207D01*
G01X130016Y29198D01*
G01X130062Y29190D01*
G01X130108Y29185D01*
G01X130153Y29182D01*
G01X130200Y29181D01*
G01X130246Y29182D01*
G01X130293Y29186D01*
G01X130339Y29191D01*
G01X130386Y29198D01*
G01X130432Y29208D01*
G01X130477Y29220D01*
G01X130522Y29233D01*
G01X130566Y29249D01*
G01X130609Y29267D01*
G01X130651Y29287D01*
G01X130693Y29308D01*
G01X130734Y29332D01*
G01X130773Y29358D01*
G01X130811Y29385D01*
G01X130847Y29414D01*
G01X130883Y29445D01*
G01X130917Y29477D01*
G01X130950Y29510D01*
G01X130981Y29546D01*
G01X131009Y29582D01*
G01X131037Y29620D01*
G01X131063Y29659D01*
G01X131087Y29699D01*
G01X131109Y29741D01*
G01X131117Y29754D01*
G01X131127Y29767D01*
G01X131140Y29777D01*
G01X131153Y29785D01*
G01X131168Y29792D01*
G01X131184Y29795D01*
G01X131199Y29797D01*
G01X131216Y29795D01*
G01X131231Y29792D01*
G01X131246Y29785D01*
G01X131259Y29777D01*
G01X131272Y29767D01*
G01X131282Y29754D01*
G01X131290Y29741D01*
G01X131312Y29700D01*
G01X131335Y29661D01*
G01X131360Y29622D01*
G01X131387Y29585D01*
G01X131415Y29550D01*
G01X131445Y29515D01*
G01X131477Y29482D01*
G01X131510Y29450D01*
G01X131544Y29420D01*
G01X131580Y29391D01*
G01X131617Y29364D01*
G01X131655Y29339D01*
G01X131707Y29307D01*
G01X131718Y29296D01*
G01X131728Y29285D01*
G01X131735Y29271D01*
G01X131741Y29257D01*
G01X131744Y29242D01*
G01X131746Y29227D01*
G01X131744Y29211D01*
G01X131740Y29196D01*
G01X131734Y29181D01*
G01X131726Y29167D01*
G01X131716Y29155D01*
G01X131271Y28711D01*
G01X131259Y28700D01*
G01X131246Y28692D01*
G01X131231Y28686D01*
G01X131215Y28682D01*
G01X131199Y28681D01*
G01X107900Y28681D01*
G01X107884Y28682D01*
G01X107868Y28686D01*
G01X107853Y28692D01*
G01X107840Y28700D01*
G01X107828Y28711D01*
G01X98269Y38269D01*
G01X98248Y38290D01*
G01X98224Y38308D01*
G01X98199Y38325D01*
G01X98173Y38340D01*
G01X98145Y38352D01*
G01X98117Y38363D01*
G01X98089Y38371D01*
G01X98059Y38376D01*
G01X98030Y38380D01*
G01X98000Y38381D01*
G37*
G36*
G01X57734Y27659D02*
G01X57699Y27661D01*
G01X57665Y27659D01*
G01X57632Y27656D01*
G01X57598Y27651D01*
G01X57565Y27644D01*
G01X57532Y27635D01*
G01X57500Y27624D01*
G01X57469Y27611D01*
G01X57438Y27596D01*
G01X57409Y27580D01*
G01X57380Y27561D01*
G01X57354Y27541D01*
G01X57327Y27520D01*
G01X57279Y27472D01*
G01X57258Y27446D01*
G01X57238Y27418D01*
G01X57219Y27390D01*
G01X57187Y27330D01*
G01X57175Y27298D01*
G01X57164Y27266D01*
G01X57154Y27234D01*
G01X57147Y27201D01*
G01X57142Y27167D01*
G01X57139Y27133D01*
G01X57138Y27100D01*
G01X57139Y27064D01*
G01X57143Y27029D01*
G01X57148Y26994D01*
G01X57150Y26974D01*
G01X57149Y26960D01*
G01X57146Y26946D01*
G01X57141Y26933D01*
G01X57134Y26920D01*
G01X57125Y26908D01*
G01X57115Y26898D01*
G01X57104Y26889D01*
G01X57091Y26882D01*
G01X57070Y26871D01*
G01X57050Y26858D01*
G01X57031Y26843D01*
G01X57014Y26826D01*
G01X56998Y26808D01*
G01X56984Y26788D01*
G01X56972Y26767D01*
G01X56962Y26745D01*
G01X56954Y26722D01*
G01X56948Y26698D01*
G01X56945Y26674D01*
G01X56944Y26650D01*
G01X56944Y25149D01*
G01X56945Y25125D01*
G01X56948Y25102D01*
G01X56954Y25079D01*
G01X56961Y25056D01*
G01X56971Y25035D01*
G01X56982Y25014D01*
G01X56995Y24995D01*
G01X57011Y24976D01*
G01X57027Y24959D01*
G01X57046Y24944D01*
G01X57066Y24931D01*
G01X57086Y24919D01*
G01X57108Y24910D01*
G01X57130Y24902D01*
G01X57153Y24897D01*
G01X57177Y24893D01*
G01X57200Y24892D01*
G01X58198Y24892D01*
G01X58222Y24893D01*
G01X58246Y24897D01*
G01X58269Y24902D01*
G01X58291Y24910D01*
G01X58313Y24919D01*
G01X58333Y24931D01*
G01X58353Y24944D01*
G01X58372Y24959D01*
G01X58388Y24976D01*
G01X58403Y24995D01*
G01X58417Y25014D01*
G01X58428Y25035D01*
G01X58438Y25056D01*
G01X58445Y25079D01*
G01X58451Y25102D01*
G01X58454Y25125D01*
G01X58455Y25149D01*
G01X58455Y26650D01*
G01X58454Y26674D01*
G01X58450Y26698D01*
G01X58445Y26722D01*
G01X58437Y26745D01*
G01X58427Y26767D01*
G01X58415Y26788D01*
G01X58401Y26808D01*
G01X58385Y26826D01*
G01X58368Y26843D01*
G01X58349Y26858D01*
G01X58329Y26871D01*
G01X58308Y26882D01*
G01X58295Y26889D01*
G01X58283Y26898D01*
G01X58274Y26908D01*
G01X58265Y26920D01*
G01X58258Y26933D01*
G01X58253Y26946D01*
G01X58250Y26960D01*
G01X58249Y26974D01*
G01X58251Y26994D01*
G01X58256Y27029D01*
G01X58260Y27064D01*
G01X58261Y27099D01*
G01X58260Y27133D01*
G01X58257Y27167D01*
G01X58252Y27201D01*
G01X58245Y27234D01*
G01X58235Y27266D01*
G01X58224Y27298D01*
G01X58212Y27330D01*
G01X58180Y27390D01*
G01X58161Y27418D01*
G01X58141Y27446D01*
G01X58120Y27472D01*
G01X58072Y27520D01*
G01X58045Y27541D01*
G01X58019Y27561D01*
G01X57990Y27580D01*
G01X57961Y27596D01*
G01X57930Y27611D01*
G01X57899Y27624D01*
G01X57867Y27635D01*
G01X57834Y27644D01*
G01X57801Y27651D01*
G01X57767Y27656D01*
G01X57734Y27659D01*
G37*
G36*
G01X74233Y27760D02*
G01X74199Y27761D01*
G01X74165Y27760D01*
G01X74132Y27757D01*
G01X74098Y27751D01*
G01X74065Y27744D01*
G01X74032Y27735D01*
G01X74000Y27725D01*
G01X73938Y27697D01*
G01X73909Y27680D01*
G01X73880Y27662D01*
G01X73853Y27641D01*
G01X73827Y27620D01*
G01X73779Y27572D01*
G01X73757Y27546D01*
G01X73719Y27490D01*
G01X73687Y27430D01*
G01X73663Y27366D01*
G01X73654Y27334D01*
G01X73647Y27301D01*
G01X73642Y27267D01*
G01X73639Y27233D01*
G01X73638Y27200D01*
G01X73639Y27163D01*
G01X73643Y27126D01*
G01X73649Y27089D01*
G01X73657Y27053D01*
G01X73668Y27017D01*
G01X73673Y27001D01*
G01X73674Y26984D01*
G01X73673Y26969D01*
G01X73669Y26954D01*
G01X73663Y26940D01*
G01X73656Y26927D01*
G01X73646Y26915D01*
G01X73635Y26905D01*
G01X73622Y26896D01*
G01X73609Y26890D01*
G01X73587Y26880D01*
G01X73566Y26869D01*
G01X73546Y26855D01*
G01X73528Y26840D01*
G01X73511Y26823D01*
G01X73496Y26805D01*
G01X73483Y26786D01*
G01X73471Y26765D01*
G01X73461Y26743D01*
G01X73454Y26721D01*
G01X73448Y26697D01*
G01X73445Y26674D01*
G01X73444Y26650D01*
G01X73444Y25149D01*
G01X73445Y25125D01*
G01X73448Y25102D01*
G01X73454Y25079D01*
G01X73461Y25056D01*
G01X73471Y25035D01*
G01X73482Y25014D01*
G01X73510Y24976D01*
G01X73527Y24959D01*
G01X73546Y24944D01*
G01X73565Y24931D01*
G01X73586Y24919D01*
G01X73608Y24910D01*
G01X73630Y24902D01*
G01X73653Y24897D01*
G01X73677Y24893D01*
G01X73700Y24892D01*
G01X74699Y24892D01*
G01X74722Y24893D01*
G01X74745Y24897D01*
G01X74769Y24902D01*
G01X74791Y24910D01*
G01X74813Y24919D01*
G01X74833Y24931D01*
G01X74853Y24944D01*
G01X74871Y24959D01*
G01X74888Y24976D01*
G01X74903Y24995D01*
G01X74917Y25014D01*
G01X74928Y25035D01*
G01X74937Y25056D01*
G01X74945Y25079D01*
G01X74951Y25102D01*
G01X74954Y25125D01*
G01X74955Y25149D01*
G01X74955Y26650D01*
G01X74954Y26674D01*
G01X74951Y26697D01*
G01X74945Y26721D01*
G01X74937Y26743D01*
G01X74928Y26765D01*
G01X74916Y26786D01*
G01X74903Y26805D01*
G01X74888Y26823D01*
G01X74871Y26840D01*
G01X74853Y26855D01*
G01X74833Y26869D01*
G01X74812Y26880D01*
G01X74790Y26890D01*
G01X74776Y26896D01*
G01X74764Y26905D01*
G01X74753Y26915D01*
G01X74743Y26927D01*
G01X74735Y26940D01*
G01X74730Y26954D01*
G01X74726Y26969D01*
G01X74725Y26984D01*
G01X74726Y27001D01*
G01X74730Y27017D01*
G01X74741Y27053D01*
G01X74749Y27089D01*
G01X74756Y27126D01*
G01X74760Y27163D01*
G01X74761Y27199D01*
G01X74760Y27233D01*
G01X74757Y27267D01*
G01X74752Y27301D01*
G01X74744Y27334D01*
G01X74735Y27366D01*
G01X74724Y27398D01*
G01X74711Y27430D01*
G01X74696Y27460D01*
G01X74680Y27490D01*
G01X74661Y27518D01*
G01X74641Y27546D01*
G01X74619Y27572D01*
G01X74596Y27596D01*
G01X74572Y27620D01*
G01X74518Y27662D01*
G01X74490Y27680D01*
G01X74460Y27697D01*
G01X74430Y27711D01*
G01X74398Y27725D01*
G01X74366Y27735D01*
G01X74333Y27744D01*
G01X74300Y27751D01*
G01X74267Y27757D01*
G01X74233Y27760D01*
G37*
G36*
G01X167436Y25536D02*
G01X166876Y25536D01*
G01X166902Y25489D01*
G01X166929Y25442D01*
G01X166958Y25397D01*
G01X166989Y25353D01*
G01X167022Y25311D01*
G01X167056Y25270D01*
G01X167092Y25230D01*
G01X167130Y25192D01*
G01X167170Y25156D01*
G01X167211Y25122D01*
G01X167253Y25089D01*
G01X167297Y25058D01*
G01X167342Y25029D01*
G01X167389Y25002D01*
G01X167436Y24976D01*
G01X167436Y25536D01*
G37*
G36*
G01X169123Y25536D02*
G01X168563Y25536D01*
G01X168563Y24976D01*
G01X168611Y25002D01*
G01X168657Y25029D01*
G01X168702Y25058D01*
G01X168746Y25089D01*
G01X168788Y25122D01*
G01X168830Y25156D01*
G01X168869Y25192D01*
G01X168907Y25230D01*
G01X168943Y25270D01*
G01X168978Y25311D01*
G01X169010Y25353D01*
G01X169041Y25397D01*
G01X169070Y25442D01*
G01X169098Y25489D01*
G01X169123Y25536D01*
G37*
G36*
G01X146653Y27855D02*
G01X146599Y27856D01*
G01X146546Y27855D01*
G01X146493Y27852D01*
G01X146440Y27846D01*
G01X146387Y27839D01*
G01X146335Y27830D01*
G01X146283Y27818D01*
G01X146231Y27805D01*
G01X146180Y27790D01*
G01X146130Y27772D01*
G01X146080Y27753D01*
G01X146032Y27732D01*
G01X145984Y27708D01*
G01X145937Y27683D01*
G01X145891Y27656D01*
G01X145846Y27627D01*
G01X145802Y27597D01*
G01X145760Y27565D01*
G01X145719Y27531D01*
G01X145679Y27495D01*
G01X145640Y27459D01*
G01X145603Y27420D01*
G01X145568Y27381D01*
G01X145534Y27339D01*
G01X145502Y27297D01*
G01X145472Y27253D01*
G01X145443Y27208D01*
G01X145416Y27162D01*
G01X145391Y27115D01*
G01X145368Y27068D01*
G01X145346Y27018D01*
G01X145327Y26969D01*
G01X145310Y26919D01*
G01X145294Y26868D01*
G01X145281Y26816D01*
G01X145269Y26764D01*
G01X145260Y26712D01*
G01X145252Y26659D01*
G01X145247Y26606D01*
G01X145244Y26553D01*
G01X145243Y26500D01*
G01X145244Y26446D01*
G01X145247Y26393D01*
G01X145252Y26340D01*
G01X145260Y26287D01*
G01X145269Y26235D01*
G01X145281Y26183D01*
G01X145294Y26131D01*
G01X145310Y26080D01*
G01X145327Y26030D01*
G01X145346Y25981D01*
G01X145368Y25932D01*
G01X145391Y25884D01*
G01X145416Y25837D01*
G01X145443Y25791D01*
G01X145472Y25746D01*
G01X145502Y25702D01*
G01X145534Y25659D01*
G01X145568Y25618D01*
G01X145603Y25579D01*
G01X145640Y25540D01*
G01X145679Y25504D01*
G01X145719Y25468D01*
G01X145760Y25434D01*
G01X145802Y25402D01*
G01X145846Y25371D01*
G01X145891Y25343D01*
G01X145937Y25316D01*
G01X145984Y25291D01*
G01X146032Y25268D01*
G01X146080Y25246D01*
G01X146130Y25227D01*
G01X146180Y25209D01*
G01X146231Y25194D01*
G01X146283Y25180D01*
G01X146335Y25169D01*
G01X146387Y25160D01*
G01X146440Y25153D01*
G01X146493Y25147D01*
G01X146546Y25144D01*
G01X146599Y25143D01*
G01X146653Y25144D01*
G01X146706Y25147D01*
G01X146759Y25153D01*
G01X146812Y25160D01*
G01X146864Y25169D01*
G01X146916Y25180D01*
G01X146968Y25194D01*
G01X147019Y25209D01*
G01X147069Y25227D01*
G01X147119Y25246D01*
G01X147167Y25268D01*
G01X147216Y25291D01*
G01X147262Y25316D01*
G01X147308Y25343D01*
G01X147353Y25371D01*
G01X147397Y25402D01*
G01X147439Y25434D01*
G01X147480Y25468D01*
G01X147520Y25504D01*
G01X147559Y25540D01*
G01X147596Y25579D01*
G01X147631Y25618D01*
G01X147665Y25659D01*
G01X147697Y25702D01*
G01X147728Y25746D01*
G01X147756Y25791D01*
G01X147783Y25837D01*
G01X147808Y25884D01*
G01X147831Y25932D01*
G01X147853Y25981D01*
G01X147872Y26030D01*
G01X147890Y26080D01*
G01X147905Y26131D01*
G01X147919Y26183D01*
G01X147930Y26235D01*
G01X147940Y26287D01*
G01X147947Y26340D01*
G01X147952Y26393D01*
G01X147955Y26446D01*
G01X147956Y26500D01*
G01X147955Y26553D01*
G01X147952Y26606D01*
G01X147947Y26659D01*
G01X147940Y26712D01*
G01X147930Y26764D01*
G01X147919Y26816D01*
G01X147905Y26868D01*
G01X147890Y26919D01*
G01X147872Y26969D01*
G01X147853Y27018D01*
G01X147831Y27068D01*
G01X147808Y27115D01*
G01X147783Y27162D01*
G01X147756Y27208D01*
G01X147728Y27253D01*
G01X147697Y27297D01*
G01X147665Y27339D01*
G01X147631Y27381D01*
G01X147596Y27420D01*
G01X147559Y27459D01*
G01X147520Y27495D01*
G01X147480Y27531D01*
G01X147439Y27565D01*
G01X147397Y27597D01*
G01X147353Y27627D01*
G01X147308Y27656D01*
G01X147262Y27683D01*
G01X147216Y27708D01*
G01X147167Y27732D01*
G01X147119Y27753D01*
G01X147069Y27772D01*
G01X147019Y27790D01*
G01X146968Y27805D01*
G01X146916Y27818D01*
G01X146864Y27830D01*
G01X146812Y27839D01*
G01X146759Y27846D01*
G01X146706Y27852D01*
G01X146653Y27855D01*
G37*
G36*
G01X150304Y25886D02*
G01X149708Y25886D01*
G01X149733Y25839D01*
G01X149760Y25793D01*
G01X149789Y25747D01*
G01X149819Y25703D01*
G01X149852Y25661D01*
G01X149886Y25619D01*
G01X149921Y25579D01*
G01X149958Y25540D01*
G01X149997Y25503D01*
G01X150037Y25467D01*
G01X150079Y25433D01*
G01X150121Y25401D01*
G01X150165Y25370D01*
G01X150210Y25342D01*
G01X150257Y25315D01*
G01X150304Y25290D01*
G01X150304Y25886D01*
G37*
G36*
G01X152128Y25886D02*
G01X151531Y25886D01*
G01X151531Y25290D01*
G01X151578Y25315D01*
G01X151625Y25342D01*
G01X151670Y25370D01*
G01X151714Y25401D01*
G01X151757Y25433D01*
G01X151798Y25467D01*
G01X151838Y25503D01*
G01X151877Y25540D01*
G01X151914Y25579D01*
G01X151950Y25619D01*
G01X152016Y25703D01*
G01X152046Y25747D01*
G01X152075Y25793D01*
G01X152102Y25839D01*
G01X152128Y25886D01*
G37*
G36*
G01X167436Y26663D02*
G01X167436Y27223D01*
G01X167389Y27198D01*
G01X167342Y27170D01*
G01X167297Y27141D01*
G01X167253Y27110D01*
G01X167211Y27078D01*
G01X167170Y27043D01*
G01X167130Y27007D01*
G01X167092Y26969D01*
G01X167056Y26929D01*
G01X167022Y26888D01*
G01X166989Y26846D01*
G01X166958Y26802D01*
G01X166929Y26757D01*
G01X166902Y26711D01*
G01X166876Y26663D01*
G01X167436Y26663D01*
G37*
G36*
G01X168611Y27198D02*
G01X168563Y27223D01*
G01X168563Y26663D01*
G01X169123Y26663D01*
G01X169098Y26711D01*
G01X169070Y26757D01*
G01X169041Y26802D01*
G01X169010Y26846D01*
G01X168978Y26888D01*
G01X168943Y26929D01*
G01X168907Y26969D01*
G01X168869Y27007D01*
G01X168830Y27043D01*
G01X168788Y27078D01*
G01X168746Y27110D01*
G01X168702Y27141D01*
G01X168657Y27170D01*
G01X168611Y27198D01*
G37*
G36*
G01X150304Y27113D02*
G01X150304Y27709D01*
G01X150257Y27684D01*
G01X150210Y27657D01*
G01X150165Y27629D01*
G01X150121Y27598D01*
G01X150079Y27566D01*
G01X150037Y27531D01*
G01X149997Y27496D01*
G01X149958Y27459D01*
G01X149921Y27420D01*
G01X149886Y27380D01*
G01X149852Y27338D01*
G01X149819Y27296D01*
G01X149789Y27252D01*
G01X149760Y27207D01*
G01X149733Y27160D01*
G01X149708Y27113D01*
G01X150304Y27113D01*
G37*
G36*
G01X151578Y27684D02*
G01X151531Y27709D01*
G01X151531Y27113D01*
G01X152128Y27113D01*
G01X152102Y27160D01*
G01X152075Y27207D01*
G01X152046Y27252D01*
G01X152016Y27296D01*
G01X151950Y27380D01*
G01X151914Y27420D01*
G01X151877Y27459D01*
G01X151838Y27496D01*
G01X151798Y27531D01*
G01X151757Y27566D01*
G01X151714Y27598D01*
G01X151670Y27629D01*
G01X151625Y27657D01*
G01X151578Y27684D01*
G37*
G36*
G01X92987Y28761D02*
G01X92544Y28761D01*
G01X92544Y28450D01*
G01X92545Y28427D01*
G01X92548Y28403D01*
G01X92554Y28380D01*
G01X92561Y28357D01*
G01X92571Y28336D01*
G01X92582Y28315D01*
G01X92596Y28296D01*
G01X92611Y28277D01*
G01X92628Y28260D01*
G01X92646Y28246D01*
G01X92666Y28232D01*
G01X92686Y28221D01*
G01X92708Y28211D01*
G01X92730Y28204D01*
G01X92754Y28198D01*
G01X92777Y28195D01*
G01X92801Y28194D01*
G01X92987Y28194D01*
G01X92987Y28761D01*
G37*
G36*
G01X94056Y28761D02*
G01X93613Y28761D01*
G01X93613Y28194D01*
G01X93799Y28194D01*
G01X93822Y28195D01*
G01X93846Y28198D01*
G01X93869Y28204D01*
G01X93891Y28211D01*
G01X93913Y28221D01*
G01X93934Y28232D01*
G01X93972Y28260D01*
G01X93988Y28277D01*
G01X94004Y28296D01*
G01X94017Y28315D01*
G01X94029Y28336D01*
G01X94038Y28357D01*
G01X94045Y28380D01*
G01X94051Y28403D01*
G01X94054Y28427D01*
G01X94056Y28450D01*
G01X94056Y28761D01*
G37*
G36*
G01X127755Y29755D02*
G01X127181Y29755D01*
G01X127181Y29437D01*
G01X127182Y29414D01*
G01X127185Y29390D01*
G01X127191Y29367D01*
G01X127198Y29345D01*
G01X127208Y29323D01*
G01X127219Y29302D01*
G01X127233Y29283D01*
G01X127248Y29265D01*
G01X127264Y29248D01*
G01X127283Y29233D01*
G01X127303Y29220D01*
G01X127323Y29208D01*
G01X127345Y29198D01*
G01X127368Y29191D01*
G01X127390Y29186D01*
G01X127414Y29182D01*
G01X127438Y29181D01*
G01X127755Y29181D01*
G01X127755Y29755D01*
G37*
G36*
G01X93799Y30206D02*
G01X93613Y30206D01*
G01X93613Y29638D01*
G01X94056Y29638D01*
G01X94056Y29949D01*
G01X94054Y29972D01*
G01X94051Y29996D01*
G01X94045Y30019D01*
G01X94038Y30042D01*
G01X94029Y30063D01*
G01X94017Y30084D01*
G01X94004Y30103D01*
G01X93988Y30122D01*
G01X93972Y30139D01*
G01X93953Y30154D01*
G01X93934Y30167D01*
G01X93913Y30179D01*
G01X93891Y30188D01*
G01X93869Y30195D01*
G01X93846Y30201D01*
G01X93822Y30204D01*
G01X93799Y30206D01*
G37*
G36*
G01X92987Y30206D02*
G01X92801Y30206D01*
G01X92777Y30204D01*
G01X92754Y30201D01*
G01X92730Y30195D01*
G01X92708Y30188D01*
G01X92686Y30179D01*
G01X92666Y30167D01*
G01X92646Y30154D01*
G01X92628Y30139D01*
G01X92611Y30122D01*
G01X92596Y30103D01*
G01X92582Y30084D01*
G01X92571Y30063D01*
G01X92561Y30042D01*
G01X92554Y30019D01*
G01X92548Y29996D01*
G01X92545Y29972D01*
G01X92544Y29949D01*
G01X92544Y29638D01*
G01X92987Y29638D01*
G01X92987Y30206D01*
G37*
G36*
G01X127755Y31218D02*
G01X127438Y31218D01*
G01X127414Y31217D01*
G01X127390Y31214D01*
G01X127368Y31208D01*
G01X127345Y31201D01*
G01X127323Y31191D01*
G01X127303Y31179D01*
G01X127283Y31166D01*
G01X127264Y31151D01*
G01X127248Y31134D01*
G01X127233Y31116D01*
G01X127219Y31097D01*
G01X127208Y31076D01*
G01X127198Y31054D01*
G01X127191Y31032D01*
G01X127185Y31009D01*
G01X127182Y30985D01*
G01X127181Y30961D01*
G01X127181Y30644D01*
G01X127755Y30644D01*
G01X127755Y31218D01*
G37*
G36*
G01X96333Y35960D02*
G01X96299Y35961D01*
G01X96265Y35960D01*
G01X96232Y35957D01*
G01X96198Y35952D01*
G01X96165Y35944D01*
G01X96132Y35935D01*
G01X96100Y35925D01*
G01X96038Y35897D01*
G01X96009Y35880D01*
G01X95980Y35862D01*
G01X95953Y35841D01*
G01X95927Y35820D01*
G01X95903Y35797D01*
G01X95879Y35772D01*
G01X95857Y35746D01*
G01X95819Y35690D01*
G01X95787Y35630D01*
G01X95775Y35599D01*
G01X95763Y35567D01*
G01X95754Y35534D01*
G01X95747Y35501D01*
G01X95742Y35467D01*
G01X95739Y35433D01*
G01X95738Y35400D01*
G01X95739Y35364D01*
G01X95743Y35329D01*
G01X95748Y35294D01*
G01X95750Y35274D01*
G01X95749Y35260D01*
G01X95746Y35246D01*
G01X95741Y35233D01*
G01X95734Y35220D01*
G01X95725Y35208D01*
G01X95716Y35198D01*
G01X95704Y35190D01*
G01X95691Y35182D01*
G01X95670Y35171D01*
G01X95650Y35158D01*
G01X95631Y35143D01*
G01X95614Y35126D01*
G01X95598Y35107D01*
G01X95584Y35088D01*
G01X95572Y35067D01*
G01X95562Y35045D01*
G01X95554Y35022D01*
G01X95549Y34998D01*
G01X95545Y34974D01*
G01X95544Y34950D01*
G01X95544Y33449D01*
G01X95545Y33425D01*
G01X95548Y33402D01*
G01X95554Y33379D01*
G01X95561Y33356D01*
G01X95571Y33335D01*
G01X95582Y33314D01*
G01X95596Y33294D01*
G01X95611Y33276D01*
G01X95627Y33259D01*
G01X95646Y33244D01*
G01X95665Y33231D01*
G01X95686Y33220D01*
G01X95708Y33210D01*
G01X95730Y33202D01*
G01X95753Y33197D01*
G01X95777Y33194D01*
G01X95801Y33193D01*
G01X96799Y33193D01*
G01X96822Y33194D01*
G01X96845Y33197D01*
G01X96869Y33202D01*
G01X96891Y33210D01*
G01X96913Y33220D01*
G01X96933Y33231D01*
G01X96953Y33244D01*
G01X96971Y33259D01*
G01X96988Y33276D01*
G01X97003Y33294D01*
G01X97017Y33314D01*
G01X97028Y33335D01*
G01X97038Y33356D01*
G01X97045Y33379D01*
G01X97051Y33402D01*
G01X97054Y33425D01*
G01X97055Y33449D01*
G01X97055Y34950D01*
G01X97054Y34974D01*
G01X97051Y34998D01*
G01X97045Y35022D01*
G01X97037Y35045D01*
G01X97027Y35067D01*
G01X97015Y35088D01*
G01X97001Y35108D01*
G01X96985Y35126D01*
G01X96968Y35143D01*
G01X96949Y35158D01*
G01X96929Y35171D01*
G01X96907Y35182D01*
G01X96883Y35198D01*
G01X96873Y35208D01*
G01X96865Y35220D01*
G01X96858Y35233D01*
G01X96853Y35246D01*
G01X96850Y35260D01*
G01X96849Y35274D01*
G01X96851Y35294D01*
G01X96856Y35329D01*
G01X96860Y35364D01*
G01X96861Y35399D01*
G01X96860Y35433D01*
G01X96857Y35467D01*
G01X96852Y35501D01*
G01X96844Y35534D01*
G01X96835Y35567D01*
G01X96824Y35599D01*
G01X96811Y35630D01*
G01X96796Y35660D01*
G01X96780Y35690D01*
G01X96761Y35718D01*
G01X96741Y35746D01*
G01X96719Y35772D01*
G01X96696Y35797D01*
G01X96672Y35820D01*
G01X96618Y35862D01*
G01X96590Y35880D01*
G01X96560Y35897D01*
G01X96530Y35911D01*
G01X96498Y35925D01*
G01X96466Y35935D01*
G01X96433Y35944D01*
G01X96400Y35952D01*
G01X96367Y35957D01*
G01X96333Y35960D01*
G37*
G36*
G01X33578Y51505D02*
G01X33499Y51506D01*
G01X33421Y51505D01*
G01X33342Y51502D01*
G01X33264Y51497D01*
G01X33185Y51490D01*
G01X33107Y51480D01*
G01X33029Y51469D01*
G01X32952Y51456D01*
G01X32875Y51440D01*
G01X32798Y51423D01*
G01X32721Y51403D01*
G01X32645Y51382D01*
G01X32570Y51359D01*
G01X32496Y51334D01*
G01X32422Y51306D01*
G01X32349Y51277D01*
G01X32277Y51246D01*
G01X32205Y51213D01*
G01X32134Y51178D01*
G01X32065Y51142D01*
G01X31996Y51103D01*
G01X31929Y51063D01*
G01X31862Y51021D01*
G01X31797Y50977D01*
G01X31733Y50932D01*
G01X31669Y50885D01*
G01X31608Y50836D01*
G01X31547Y50786D01*
G01X31488Y50734D01*
G01X31430Y50681D01*
G01X31373Y50626D01*
G01X31319Y50569D01*
G01X31265Y50511D01*
G01X31213Y50452D01*
G01X31163Y50391D01*
G01X31114Y50330D01*
G01X31067Y50267D01*
G01X31022Y50202D01*
G01X30978Y50137D01*
G01X30936Y50070D01*
G01X30896Y50003D01*
G01X30857Y49934D01*
G01X30821Y49865D01*
G01X30786Y49794D01*
G01X30753Y49722D01*
G01X30722Y49650D01*
G01X30693Y49577D01*
G01X30665Y49503D01*
G01X30640Y49429D01*
G01X30617Y49354D01*
G01X30596Y49278D01*
G01X30576Y49201D01*
G01X30559Y49125D01*
G01X30543Y49047D01*
G01X30530Y48970D01*
G01X30519Y48892D01*
G01X30509Y48814D01*
G01X30502Y48735D01*
G01X30497Y48657D01*
G01X30494Y48578D01*
G01X30493Y48500D01*
G01X30494Y48421D01*
G01X30497Y48342D01*
G01X30502Y48263D01*
G01X30509Y48185D01*
G01X30519Y48107D01*
G01X30530Y48029D01*
G01X30543Y47952D01*
G01X30559Y47874D01*
G01X30576Y47798D01*
G01X30596Y47721D01*
G01X30617Y47646D01*
G01X30640Y47571D01*
G01X30665Y47496D01*
G01X30693Y47422D01*
G01X30722Y47349D01*
G01X30753Y47277D01*
G01X30786Y47205D01*
G01X30821Y47135D01*
G01X30857Y47065D01*
G01X30896Y46997D01*
G01X30936Y46928D01*
G01X30978Y46862D01*
G01X31022Y46797D01*
G01X31067Y46732D01*
G01X31114Y46669D01*
G01X31163Y46607D01*
G01X31213Y46547D01*
G01X31265Y46488D01*
G01X31319Y46430D01*
G01X31373Y46374D01*
G01X31430Y46319D01*
G01X31488Y46265D01*
G01X31547Y46213D01*
G01X31608Y46163D01*
G01X31669Y46114D01*
G01X31733Y46067D01*
G01X31797Y46022D01*
G01X31862Y45978D01*
G01X31929Y45936D01*
G01X31996Y45896D01*
G01X32134Y45820D01*
G01X32205Y45786D01*
G01X32277Y45753D01*
G01X32349Y45722D01*
G01X32422Y45692D01*
G01X32570Y45640D01*
G01X32645Y45617D01*
G01X32721Y45595D01*
G01X32798Y45576D01*
G01X32875Y45559D01*
G01X32952Y45543D01*
G01X33029Y45530D01*
G01X33107Y45519D01*
G01X33185Y45510D01*
G01X33264Y45502D01*
G01X33342Y45497D01*
G01X33421Y45494D01*
G01X33499Y45493D01*
G01X33578Y45494D01*
G01X33657Y45497D01*
G01X33736Y45502D01*
G01X33814Y45510D01*
G01X33892Y45519D01*
G01X33970Y45530D01*
G01X34048Y45543D01*
G01X34125Y45559D01*
G01X34201Y45576D01*
G01X34278Y45595D01*
G01X34353Y45617D01*
G01X34429Y45640D01*
G01X34577Y45692D01*
G01X34650Y45722D01*
G01X34722Y45753D01*
G01X34794Y45786D01*
G01X34864Y45820D01*
G01X34934Y45858D01*
G01X35003Y45896D01*
G01X35071Y45936D01*
G01X35137Y45978D01*
G01X35202Y46022D01*
G01X35267Y46067D01*
G01X35330Y46114D01*
G01X35392Y46163D01*
G01X35452Y46213D01*
G01X35511Y46265D01*
G01X35569Y46319D01*
G01X35625Y46374D01*
G01X35680Y46430D01*
G01X35734Y46488D01*
G01X35786Y46547D01*
G01X35836Y46607D01*
G01X35885Y46669D01*
G01X35932Y46732D01*
G01X35977Y46797D01*
G01X36021Y46862D01*
G01X36063Y46928D01*
G01X36103Y46997D01*
G01X36141Y47065D01*
G01X36179Y47135D01*
G01X36213Y47205D01*
G01X36246Y47277D01*
G01X36277Y47349D01*
G01X36307Y47422D01*
G01X36334Y47496D01*
G01X36359Y47571D01*
G01X36382Y47646D01*
G01X36404Y47721D01*
G01X36423Y47798D01*
G01X36440Y47874D01*
G01X36456Y47952D01*
G01X36469Y48029D01*
G01X36480Y48107D01*
G01X36489Y48185D01*
G01X36497Y48263D01*
G01X36502Y48342D01*
G01X36505Y48421D01*
G01X36506Y48500D01*
G01X36505Y48578D01*
G01X36502Y48657D01*
G01X36497Y48735D01*
G01X36489Y48814D01*
G01X36480Y48892D01*
G01X36469Y48970D01*
G01X36456Y49047D01*
G01X36440Y49125D01*
G01X36423Y49201D01*
G01X36404Y49278D01*
G01X36382Y49354D01*
G01X36359Y49429D01*
G01X36334Y49503D01*
G01X36307Y49577D01*
G01X36277Y49650D01*
G01X36246Y49722D01*
G01X36213Y49794D01*
G01X36179Y49865D01*
G01X36103Y50003D01*
G01X36063Y50070D01*
G01X36021Y50137D01*
G01X35977Y50202D01*
G01X35932Y50267D01*
G01X35885Y50330D01*
G01X35836Y50391D01*
G01X35786Y50452D01*
G01X35734Y50511D01*
G01X35680Y50569D01*
G01X35625Y50626D01*
G01X35569Y50681D01*
G01X35511Y50734D01*
G01X35452Y50786D01*
G01X35392Y50836D01*
G01X35330Y50885D01*
G01X35267Y50932D01*
G01X35202Y50977D01*
G01X35137Y51021D01*
G01X35071Y51063D01*
G01X35003Y51103D01*
G01X34934Y51142D01*
G01X34864Y51178D01*
G01X34794Y51213D01*
G01X34722Y51246D01*
G01X34650Y51277D01*
G01X34577Y51306D01*
G01X34503Y51334D01*
G01X34429Y51359D01*
G01X34353Y51382D01*
G01X34278Y51403D01*
G01X34201Y51423D01*
G01X34125Y51440D01*
G01X34048Y51456D01*
G01X33970Y51469D01*
G01X33892Y51480D01*
G01X33814Y51490D01*
G01X33736Y51497D01*
G01X33657Y51502D01*
G01X33578Y51505D01*
G37*
G36*
G01X117578Y51505D02*
G01X117500Y51506D01*
G01X117421Y51505D01*
G01X117342Y51502D01*
G01X117264Y51497D01*
G01X117185Y51490D01*
G01X117107Y51480D01*
G01X117029Y51469D01*
G01X116952Y51456D01*
G01X116874Y51440D01*
G01X116798Y51423D01*
G01X116721Y51403D01*
G01X116646Y51382D01*
G01X116571Y51359D01*
G01X116496Y51334D01*
G01X116422Y51306D01*
G01X116349Y51277D01*
G01X116276Y51246D01*
G01X116205Y51213D01*
G01X116135Y51178D01*
G01X116065Y51142D01*
G01X115997Y51103D01*
G01X115928Y51063D01*
G01X115862Y51021D01*
G01X115796Y50977D01*
G01X115732Y50932D01*
G01X115669Y50885D01*
G01X115607Y50836D01*
G01X115547Y50786D01*
G01X115488Y50734D01*
G01X115430Y50681D01*
G01X115374Y50626D01*
G01X115319Y50569D01*
G01X115265Y50511D01*
G01X115213Y50452D01*
G01X115163Y50391D01*
G01X115114Y50330D01*
G01X115067Y50267D01*
G01X115022Y50202D01*
G01X114978Y50137D01*
G01X114936Y50070D01*
G01X114896Y50003D01*
G01X114858Y49934D01*
G01X114821Y49865D01*
G01X114786Y49794D01*
G01X114753Y49722D01*
G01X114722Y49650D01*
G01X114693Y49577D01*
G01X114666Y49503D01*
G01X114640Y49429D01*
G01X114617Y49354D01*
G01X114595Y49278D01*
G01X114576Y49201D01*
G01X114559Y49125D01*
G01X114543Y49047D01*
G01X114530Y48970D01*
G01X114519Y48892D01*
G01X114510Y48814D01*
G01X114503Y48735D01*
G01X114497Y48657D01*
G01X114494Y48578D01*
G01X114493Y48500D01*
G01X114494Y48421D01*
G01X114497Y48342D01*
G01X114503Y48263D01*
G01X114510Y48185D01*
G01X114519Y48107D01*
G01X114530Y48029D01*
G01X114543Y47952D01*
G01X114559Y47874D01*
G01X114576Y47798D01*
G01X114595Y47721D01*
G01X114617Y47646D01*
G01X114640Y47571D01*
G01X114666Y47496D01*
G01X114693Y47422D01*
G01X114722Y47349D01*
G01X114753Y47277D01*
G01X114786Y47205D01*
G01X114821Y47135D01*
G01X114858Y47065D01*
G01X114896Y46997D01*
G01X114936Y46928D01*
G01X114978Y46862D01*
G01X115022Y46797D01*
G01X115067Y46732D01*
G01X115114Y46669D01*
G01X115163Y46607D01*
G01X115213Y46547D01*
G01X115265Y46488D01*
G01X115319Y46430D01*
G01X115374Y46374D01*
G01X115430Y46319D01*
G01X115488Y46265D01*
G01X115547Y46213D01*
G01X115607Y46163D01*
G01X115669Y46114D01*
G01X115732Y46067D01*
G01X115796Y46022D01*
G01X115862Y45978D01*
G01X115928Y45936D01*
G01X115997Y45896D01*
G01X116065Y45858D01*
G01X116135Y45820D01*
G01X116205Y45786D01*
G01X116276Y45753D01*
G01X116349Y45722D01*
G01X116422Y45692D01*
G01X116496Y45666D01*
G01X116571Y45640D01*
G01X116646Y45617D01*
G01X116721Y45595D01*
G01X116798Y45576D01*
G01X116874Y45559D01*
G01X116952Y45543D01*
G01X117029Y45530D01*
G01X117107Y45519D01*
G01X117185Y45510D01*
G01X117264Y45502D01*
G01X117342Y45497D01*
G01X117421Y45494D01*
G01X117500Y45493D01*
G01X117578Y45494D01*
G01X117657Y45497D01*
G01X117735Y45502D01*
G01X117814Y45510D01*
G01X117892Y45519D01*
G01X117970Y45530D01*
G01X118047Y45543D01*
G01X118125Y45559D01*
G01X118201Y45576D01*
G01X118277Y45595D01*
G01X118354Y45617D01*
G01X118429Y45640D01*
G01X118577Y45692D01*
G01X118650Y45722D01*
G01X118722Y45753D01*
G01X118794Y45786D01*
G01X118865Y45820D01*
G01X119003Y45896D01*
G01X119070Y45936D01*
G01X119137Y45978D01*
G01X119203Y46022D01*
G01X119267Y46067D01*
G01X119330Y46114D01*
G01X119392Y46163D01*
G01X119452Y46213D01*
G01X119511Y46265D01*
G01X119569Y46319D01*
G01X119626Y46374D01*
G01X119681Y46430D01*
G01X119734Y46488D01*
G01X119786Y46547D01*
G01X119836Y46607D01*
G01X119885Y46669D01*
G01X119932Y46732D01*
G01X119977Y46797D01*
G01X120021Y46862D01*
G01X120063Y46928D01*
G01X120103Y46997D01*
G01X120142Y47065D01*
G01X120178Y47135D01*
G01X120213Y47205D01*
G01X120246Y47277D01*
G01X120277Y47349D01*
G01X120306Y47422D01*
G01X120334Y47496D01*
G01X120359Y47571D01*
G01X120382Y47646D01*
G01X120403Y47721D01*
G01X120423Y47798D01*
G01X120441Y47874D01*
G01X120456Y47952D01*
G01X120469Y48029D01*
G01X120480Y48107D01*
G01X120490Y48185D01*
G01X120497Y48263D01*
G01X120502Y48342D01*
G01X120505Y48421D01*
G01X120506Y48500D01*
G01X120505Y48578D01*
G01X120502Y48657D01*
G01X120497Y48735D01*
G01X120490Y48814D01*
G01X120480Y48892D01*
G01X120469Y48970D01*
G01X120456Y49047D01*
G01X120441Y49125D01*
G01X120423Y49201D01*
G01X120403Y49278D01*
G01X120382Y49354D01*
G01X120359Y49429D01*
G01X120334Y49503D01*
G01X120306Y49577D01*
G01X120277Y49650D01*
G01X120246Y49722D01*
G01X120213Y49794D01*
G01X120178Y49865D01*
G01X120142Y49934D01*
G01X120103Y50003D01*
G01X120063Y50070D01*
G01X120021Y50137D01*
G01X119977Y50202D01*
G01X119932Y50267D01*
G01X119885Y50330D01*
G01X119836Y50391D01*
G01X119786Y50452D01*
G01X119734Y50511D01*
G01X119681Y50569D01*
G01X119626Y50626D01*
G01X119569Y50681D01*
G01X119511Y50734D01*
G01X119452Y50786D01*
G01X119392Y50836D01*
G01X119330Y50885D01*
G01X119267Y50932D01*
G01X119203Y50977D01*
G01X119137Y51021D01*
G01X119070Y51063D01*
G01X119003Y51103D01*
G01X118934Y51142D01*
G01X118865Y51178D01*
G01X118794Y51213D01*
G01X118722Y51246D01*
G01X118650Y51277D01*
G01X118577Y51306D01*
G01X118503Y51334D01*
G01X118429Y51359D01*
G01X118354Y51382D01*
G01X118277Y51403D01*
G01X118201Y51423D01*
G01X118125Y51440D01*
G01X118047Y51456D01*
G01X117970Y51469D01*
G01X117892Y51480D01*
G01X117814Y51490D01*
G01X117735Y51497D01*
G01X117657Y51502D01*
G01X117578Y51505D01*
G37*

%LPD*%
G54D11*
G01X132199Y30199D02*
G01X132199Y29099D01*
G01X131400Y28300D01*
G01X107700Y28300D01*
G01X98000Y38000D01*
G01X65100Y38000D01*
G01X54700Y27600D01*
G01X54700Y25900D01*
G01X158000Y26099D02*
G01X158000Y26299D01*
G01X156800Y27499D01*
G01X96299Y17600D02*
G01X96299Y19200D01*
G01X96299Y34199D02*
G01X96299Y35400D01*
G01X74199Y25900D02*
G01X74199Y27200D01*
G01X57699Y25900D02*
G01X57699Y27100D01*
G01X96299Y29199D02*
G01X93300Y26200D01*
G01X93300Y17600D01*
G54D12*
G01X22370Y27499D02*
G01X22370Y26370D01*
G01X19699Y23700D01*
G01X6881Y23700D01*
G01X4081Y26499D01*
G54D11*
G01X74199Y20900D02*
G01X77200Y20900D01*
G01X90499Y34199D01*
G01X93300Y34199D01*
G01X57699Y20900D02*
G01X58300Y20900D01*
G01X63300Y25900D01*
G01X71200Y25900D01*
G01X136200Y30190D02*
G01X158700Y30200D01*
G01X163000Y26099D01*
G01X134200Y30200D02*
G01X137900Y26499D01*
G01X142281Y26499D01*
G54D12*
G01X12717Y26499D02*
G01X18830Y26499D01*
G01X19830Y27499D01*
G36*
G01X54201Y20150D02*
G01X54201Y21649D01*
G01X55199Y21649D01*
G01X55199Y20150D01*
G01X54201Y20150D01*
G37*
G36*
G01X57200Y20150D02*
G01X57200Y21649D01*
G01X58199Y21649D01*
G01X58199Y20150D01*
G01X57200Y20150D01*
G37*
G36*
G01X57200Y25149D02*
G01X57200Y26650D01*
G01X58199Y26650D01*
G01X58199Y25149D01*
G01X57200Y25149D01*
G37*
G36*
G01X54201Y25149D02*
G01X54201Y26650D01*
G01X55199Y26650D01*
G01X55199Y25149D01*
G01X54201Y25149D01*
G37*
G36*
G01X70701Y20150D02*
G01X70701Y21649D01*
G01X71699Y21649D01*
G01X71699Y20150D01*
G01X70701Y20150D01*
G37*
G36*
G01X73700Y20150D02*
G01X73700Y21649D01*
G01X74698Y21649D01*
G01X74698Y20150D01*
G01X73700Y20150D01*
G37*
G36*
G01X73700Y25149D02*
G01X73700Y26650D01*
G01X74698Y26650D01*
G01X74698Y25149D01*
G01X73700Y25149D01*
G37*
G36*
G01X70701Y25149D02*
G01X70701Y26650D01*
G01X71699Y26650D01*
G01X71699Y25149D01*
G01X70701Y25149D01*
G37*
G36*
G01X92801Y28450D02*
G01X92801Y29949D01*
G01X93799Y29949D01*
G01X93799Y28450D01*
G01X92801Y28450D01*
G37*
G36*
G01X95800Y28450D02*
G01X95800Y29949D01*
G01X96799Y29949D01*
G01X96799Y28450D01*
G01X95800Y28450D01*
G37*
G36*
G01X95800Y33449D02*
G01X95800Y34950D01*
G01X96799Y34950D01*
G01X96799Y33449D01*
G01X95800Y33449D01*
G37*
G36*
G01X92801Y33449D02*
G01X92801Y34950D01*
G01X93799Y34950D01*
G01X93799Y33449D01*
G01X92801Y33449D01*
G37*
G36*
G01X92801Y11850D02*
G01X92801Y13349D01*
G01X93799Y13349D01*
G01X93799Y11850D01*
G01X92801Y11850D01*
G37*
G36*
G01X95800Y11850D02*
G01X95800Y13349D01*
G01X96799Y13349D01*
G01X96799Y11850D01*
G01X95800Y11850D01*
G37*
G36*
G01X95800Y16849D02*
G01X95800Y18350D01*
G01X96799Y18350D01*
G01X96799Y16849D01*
G01X95800Y16849D01*
G37*
G36*
G01X92801Y16849D02*
G01X92801Y18350D01*
G01X93799Y18350D01*
G01X93799Y16849D01*
G01X92801Y16849D01*
G37*
G54D13*
G75*
G01X22370Y26370D02*
G03X21490Y28208I0J1130D01*
G01*
G75*
G01X20600Y28300D02*
G03X19045Y26715I-770J-800D01*
G01*
G75*
G01X13545Y27437D02*
G03X13555Y27428I-825J-939D01*
G01*
G36*
G01X2700Y27900D02*
G01X5500Y27900D01*
G01X5500Y25099D01*
G01X2700Y25099D01*
G01X2700Y27900D01*
G37*
G36*
G01X12700Y28000D02*
G01X19100Y28000D01*
G01X19100Y26499D01*
G01X12700Y26499D01*
G01X12700Y28000D01*
G37*
G54D16*
G01X33500Y48499D03*
G01X117499Y48499D03*
G01X33500Y4500D03*
G01X117499Y4500D03*
G54D17*
G01X142281Y26499D03*
G54D18*
G01X146599Y26499D03*
G01X150917Y26499D03*
G54D17*
G01X4082Y26499D03*
G54D18*
G01X8399Y26499D03*
G01X12717Y26499D03*
G54D12*
G01X168000Y26099D03*
G01X163000Y26099D03*
G01X158000Y26099D03*
G54D19*
G01X128199Y30199D03*
G54D20*
G01X130199Y30199D03*
G01X132199Y30199D03*
G01X134199Y30199D03*
G01X136199Y30199D03*
G54D21*
G01X22370Y27499D03*
G01X19830Y27499D03*
G54D14*
G01X57699Y27099D03*
G01X74199Y27199D03*
G01X96299Y35400D03*
G01X96299Y19200D03*
G01X156800Y27499D03*
M00*
M02*
