;Layer: Drill PTH
;EasyEDA v6.3.39, 2020-04-24T10:39:31-10:00
;0f25efb224964ab9abe88dfcb523e386,a4d28be01f944deba2cf7c63a1f3ff09,10
;Gerber Generator version 0.2
M48
METRIC,LZ,000.000
;Holesize 1 = 0.305 METRIC
T01C0.305
;Holesize 2 = 0.915 METRIC
T02C0.915
;Holesize 3 = 1.200 METRIC
T03C1.200
;Holesize 4 = 1.301 METRIC
T04C1.301
;Holesize 5 = 3.000 METRIC
T05C3.000
%
G05
G90
T01
X+057699Y+027099
X+074199Y+027199
X+096299Y+035400
X+096299Y+019200
X+156800Y+027499
T02
X+128200Y+030200
X+130200Y+030200
X+132200Y+030200
X+134200Y+030200
X+136200Y+030200
T03
X+142282Y+026500
X+146600Y+026500
X+150918Y+026500
X+004082Y+026500
X+008400Y+026500
X+012718Y+026500
X+022370Y+027500
X+019830Y+027500
T04
X+168000Y+026100
X+163000Y+026100
X+158000Y+026100
T05
X+033500Y+048500
X+117500Y+048500
X+033500Y+004500
X+117500Y+004500
M30
