G04 Layer: BottomLayer*
G04 EasyEDA v6.3.39, 2020-04-24T10:39:31-10:00*
G04 0f25efb224964ab9abe88dfcb523e386,a4d28be01f944deba2cf7c63a1f3ff09,10*
G04 Gerber Generator version 0.2*
G04 Scale: 100 percent, Rotated: No, Reflected: No *
G04 Dimensions in millimeters *
G04 leading zeros omitted , absolute positions ,3 integer and 3 decimal *
%FSLAX33Y33*%
%MOMM*%
G90*
G71D02*

%ADD12C,1.999996*%
%ADD14C,0.609600*%
%ADD16C,5.499989*%
%ADD17R,2.199996X2.199996*%
%ADD18C,2.199996*%
%ADD19R,1.524000X1.524000*%
%ADD20C,1.524000*%
%ADD21C,1.799996*%

%LPD*%
G36*
G01X121641Y52743D02*
G01X29358Y52743D01*
G01X29343Y52742D01*
G01X29329Y52739D01*
G01X29315Y52734D01*
G01X29303Y52727D01*
G01X29291Y52718D01*
G01X29281Y52708D01*
G01X29272Y52696D01*
G01X29265Y52684D01*
G01X29260Y52670D01*
G01X29257Y52656D01*
G01X29256Y52641D01*
G01X29256Y31800D01*
G01X29255Y31776D01*
G01X29251Y31752D01*
G01X29246Y31730D01*
G01X29239Y31707D01*
G01X29229Y31685D01*
G01X29217Y31665D01*
G01X29204Y31645D01*
G01X29189Y31626D01*
G01X29172Y31610D01*
G01X29154Y31595D01*
G01X29135Y31581D01*
G01X29114Y31570D01*
G01X29092Y31560D01*
G01X29070Y31553D01*
G01X29047Y31547D01*
G01X29023Y31544D01*
G01X29000Y31543D01*
G01X357Y31543D01*
G01X343Y31542D01*
G01X329Y31539D01*
G01X315Y31534D01*
G01X303Y31527D01*
G01X291Y31518D01*
G01X281Y31508D01*
G01X272Y31496D01*
G01X265Y31484D01*
G01X260Y31470D01*
G01X257Y31456D01*
G01X256Y31442D01*
G01X256Y21558D01*
G01X257Y21543D01*
G01X260Y21529D01*
G01X265Y21515D01*
G01X272Y21503D01*
G01X281Y21491D01*
G01X291Y21481D01*
G01X303Y21472D01*
G01X315Y21465D01*
G01X329Y21460D01*
G01X343Y21457D01*
G01X357Y21456D01*
G01X29000Y21455D01*
G01X29023Y21454D01*
G01X29047Y21451D01*
G01X29070Y21446D01*
G01X29092Y21438D01*
G01X29114Y21428D01*
G01X29135Y21417D01*
G01X29154Y21403D01*
G01X29172Y21388D01*
G01X29189Y21371D01*
G01X29204Y21353D01*
G01X29217Y21334D01*
G01X29229Y21313D01*
G01X29239Y21291D01*
G01X29246Y21269D01*
G01X29251Y21246D01*
G01X29255Y21223D01*
G01X29256Y21199D01*
G01X29256Y358D01*
G01X29257Y343D01*
G01X29260Y329D01*
G01X29265Y315D01*
G01X29272Y303D01*
G01X29281Y291D01*
G01X29291Y281D01*
G01X29303Y272D01*
G01X29315Y265D01*
G01X29329Y260D01*
G01X29343Y257D01*
G01X29358Y256D01*
G01X121641Y256D01*
G01X121655Y257D01*
G01X121669Y260D01*
G01X121683Y265D01*
G01X121696Y272D01*
G01X121707Y281D01*
G01X121718Y291D01*
G01X121726Y303D01*
G01X121733Y315D01*
G01X121738Y329D01*
G01X121742Y343D01*
G01X121743Y358D01*
G01X121743Y21199D01*
G01X121744Y21223D01*
G01X121747Y21246D01*
G01X121752Y21269D01*
G01X121760Y21291D01*
G01X121769Y21313D01*
G01X121781Y21334D01*
G01X121794Y21353D01*
G01X121810Y21371D01*
G01X121826Y21388D01*
G01X121845Y21403D01*
G01X121864Y21417D01*
G01X121885Y21428D01*
G01X121907Y21438D01*
G01X121929Y21446D01*
G01X121952Y21451D01*
G01X121975Y21454D01*
G01X121999Y21455D01*
G01X172642Y21456D01*
G01X172656Y21457D01*
G01X172670Y21460D01*
G01X172684Y21465D01*
G01X172696Y21472D01*
G01X172708Y21481D01*
G01X172718Y21491D01*
G01X172727Y21503D01*
G01X172734Y21515D01*
G01X172739Y21529D01*
G01X172742Y21543D01*
G01X172743Y21558D01*
G01X172743Y31342D01*
G01X172742Y31357D01*
G01X172739Y31371D01*
G01X172734Y31384D01*
G01X172727Y31397D01*
G01X172718Y31409D01*
G01X172708Y31419D01*
G01X172696Y31427D01*
G01X172684Y31434D01*
G01X172670Y31440D01*
G01X172656Y31443D01*
G01X172642Y31444D01*
G01X121999Y31544D01*
G01X121975Y31545D01*
G01X121951Y31549D01*
G01X121928Y31554D01*
G01X121906Y31561D01*
G01X121884Y31571D01*
G01X121864Y31583D01*
G01X121844Y31596D01*
G01X121826Y31611D01*
G01X121809Y31628D01*
G01X121794Y31646D01*
G01X121781Y31666D01*
G01X121769Y31686D01*
G01X121760Y31708D01*
G01X121752Y31731D01*
G01X121747Y31753D01*
G01X121744Y31777D01*
G01X121743Y31801D01*
G01X121743Y52641D01*
G01X121742Y52656D01*
G01X121738Y52670D01*
G01X121733Y52684D01*
G01X121726Y52696D01*
G01X121718Y52708D01*
G01X121707Y52718D01*
G01X121696Y52727D01*
G01X121683Y52734D01*
G01X121669Y52739D01*
G01X121655Y52742D01*
G01X121641Y52743D01*
G37*

%LPC*%
G36*
G01X33578Y7505D02*
G01X33499Y7506D01*
G01X33421Y7505D01*
G01X33342Y7502D01*
G01X33264Y7497D01*
G01X33185Y7489D01*
G01X33107Y7480D01*
G01X33029Y7469D01*
G01X32952Y7456D01*
G01X32875Y7441D01*
G01X32798Y7423D01*
G01X32721Y7403D01*
G01X32645Y7382D01*
G01X32570Y7359D01*
G01X32496Y7333D01*
G01X32422Y7306D01*
G01X32349Y7277D01*
G01X32277Y7246D01*
G01X32205Y7213D01*
G01X32134Y7178D01*
G01X32065Y7142D01*
G01X31996Y7103D01*
G01X31929Y7063D01*
G01X31862Y7021D01*
G01X31797Y6977D01*
G01X31733Y6932D01*
G01X31669Y6885D01*
G01X31608Y6836D01*
G01X31547Y6786D01*
G01X31488Y6734D01*
G01X31430Y6681D01*
G01X31373Y6625D01*
G01X31319Y6569D01*
G01X31265Y6511D01*
G01X31213Y6452D01*
G01X31163Y6392D01*
G01X31114Y6330D01*
G01X31067Y6267D01*
G01X31022Y6203D01*
G01X30978Y6137D01*
G01X30936Y6071D01*
G01X30896Y6003D01*
G01X30857Y5934D01*
G01X30821Y5864D01*
G01X30786Y5794D01*
G01X30753Y5723D01*
G01X30722Y5650D01*
G01X30693Y5577D01*
G01X30665Y5503D01*
G01X30640Y5428D01*
G01X30617Y5353D01*
G01X30596Y5278D01*
G01X30576Y5201D01*
G01X30559Y5125D01*
G01X30543Y5047D01*
G01X30530Y4970D01*
G01X30519Y4892D01*
G01X30509Y4814D01*
G01X30502Y4735D01*
G01X30497Y4657D01*
G01X30494Y4578D01*
G01X30493Y4499D01*
G01X30494Y4421D01*
G01X30497Y4342D01*
G01X30502Y4264D01*
G01X30509Y4185D01*
G01X30519Y4107D01*
G01X30530Y4029D01*
G01X30543Y3952D01*
G01X30559Y3874D01*
G01X30576Y3798D01*
G01X30596Y3722D01*
G01X30617Y3646D01*
G01X30640Y3571D01*
G01X30665Y3496D01*
G01X30693Y3422D01*
G01X30722Y3349D01*
G01X30753Y3277D01*
G01X30786Y3205D01*
G01X30821Y3135D01*
G01X30857Y3065D01*
G01X30896Y2996D01*
G01X30936Y2929D01*
G01X30978Y2862D01*
G01X31022Y2796D01*
G01X31067Y2732D01*
G01X31114Y2669D01*
G01X31163Y2607D01*
G01X31213Y2547D01*
G01X31265Y2488D01*
G01X31319Y2430D01*
G01X31373Y2374D01*
G01X31430Y2318D01*
G01X31488Y2265D01*
G01X31547Y2213D01*
G01X31608Y2163D01*
G01X31669Y2114D01*
G01X31733Y2067D01*
G01X31797Y2022D01*
G01X31862Y1978D01*
G01X31929Y1936D01*
G01X31996Y1896D01*
G01X32065Y1857D01*
G01X32134Y1821D01*
G01X32205Y1786D01*
G01X32277Y1753D01*
G01X32349Y1722D01*
G01X32422Y1693D01*
G01X32496Y1666D01*
G01X32570Y1640D01*
G01X32645Y1617D01*
G01X32721Y1596D01*
G01X32798Y1576D01*
G01X32875Y1558D01*
G01X32952Y1543D01*
G01X33029Y1530D01*
G01X33107Y1519D01*
G01X33185Y1510D01*
G01X33264Y1502D01*
G01X33342Y1497D01*
G01X33421Y1494D01*
G01X33499Y1493D01*
G01X33578Y1494D01*
G01X33657Y1497D01*
G01X33736Y1502D01*
G01X33814Y1510D01*
G01X33892Y1519D01*
G01X33970Y1530D01*
G01X34048Y1543D01*
G01X34125Y1558D01*
G01X34201Y1576D01*
G01X34278Y1596D01*
G01X34353Y1617D01*
G01X34429Y1640D01*
G01X34503Y1666D01*
G01X34577Y1693D01*
G01X34650Y1722D01*
G01X34722Y1753D01*
G01X34794Y1786D01*
G01X34864Y1821D01*
G01X34934Y1857D01*
G01X35003Y1896D01*
G01X35071Y1936D01*
G01X35137Y1978D01*
G01X35202Y2022D01*
G01X35267Y2067D01*
G01X35330Y2114D01*
G01X35392Y2163D01*
G01X35452Y2213D01*
G01X35511Y2265D01*
G01X35569Y2318D01*
G01X35625Y2374D01*
G01X35680Y2430D01*
G01X35734Y2488D01*
G01X35786Y2547D01*
G01X35836Y2607D01*
G01X35885Y2669D01*
G01X35932Y2732D01*
G01X35977Y2796D01*
G01X36021Y2862D01*
G01X36063Y2929D01*
G01X36103Y2996D01*
G01X36141Y3065D01*
G01X36179Y3135D01*
G01X36213Y3205D01*
G01X36246Y3277D01*
G01X36277Y3349D01*
G01X36307Y3422D01*
G01X36334Y3496D01*
G01X36359Y3571D01*
G01X36382Y3646D01*
G01X36404Y3722D01*
G01X36423Y3798D01*
G01X36440Y3874D01*
G01X36456Y3952D01*
G01X36469Y4029D01*
G01X36480Y4107D01*
G01X36489Y4185D01*
G01X36497Y4264D01*
G01X36502Y4342D01*
G01X36505Y4421D01*
G01X36506Y4499D01*
G01X36505Y4578D01*
G01X36502Y4657D01*
G01X36497Y4735D01*
G01X36489Y4814D01*
G01X36480Y4892D01*
G01X36469Y4970D01*
G01X36456Y5047D01*
G01X36440Y5125D01*
G01X36423Y5201D01*
G01X36404Y5278D01*
G01X36382Y5353D01*
G01X36359Y5428D01*
G01X36334Y5503D01*
G01X36307Y5577D01*
G01X36277Y5650D01*
G01X36246Y5723D01*
G01X36213Y5794D01*
G01X36179Y5864D01*
G01X36141Y5934D01*
G01X36103Y6003D01*
G01X36063Y6071D01*
G01X36021Y6137D01*
G01X35977Y6203D01*
G01X35932Y6267D01*
G01X35885Y6330D01*
G01X35836Y6392D01*
G01X35786Y6452D01*
G01X35734Y6511D01*
G01X35680Y6569D01*
G01X35625Y6625D01*
G01X35569Y6681D01*
G01X35511Y6734D01*
G01X35452Y6786D01*
G01X35392Y6836D01*
G01X35330Y6885D01*
G01X35267Y6932D01*
G01X35202Y6977D01*
G01X35137Y7021D01*
G01X35071Y7063D01*
G01X35003Y7103D01*
G01X34934Y7142D01*
G01X34864Y7178D01*
G01X34794Y7213D01*
G01X34722Y7246D01*
G01X34650Y7277D01*
G01X34577Y7306D01*
G01X34503Y7333D01*
G01X34429Y7359D01*
G01X34353Y7382D01*
G01X34278Y7403D01*
G01X34201Y7423D01*
G01X34125Y7441D01*
G01X34048Y7456D01*
G01X33970Y7469D01*
G01X33892Y7480D01*
G01X33814Y7489D01*
G01X33736Y7497D01*
G01X33657Y7502D01*
G01X33578Y7505D01*
G37*
G36*
G01X117578Y7505D02*
G01X117500Y7506D01*
G01X117421Y7505D01*
G01X117342Y7502D01*
G01X117264Y7497D01*
G01X117185Y7489D01*
G01X117107Y7480D01*
G01X117029Y7469D01*
G01X116952Y7456D01*
G01X116874Y7441D01*
G01X116798Y7423D01*
G01X116721Y7403D01*
G01X116646Y7382D01*
G01X116571Y7359D01*
G01X116496Y7333D01*
G01X116422Y7306D01*
G01X116349Y7277D01*
G01X116276Y7246D01*
G01X116205Y7213D01*
G01X116135Y7178D01*
G01X116065Y7142D01*
G01X115997Y7103D01*
G01X115928Y7063D01*
G01X115862Y7021D01*
G01X115796Y6977D01*
G01X115732Y6932D01*
G01X115669Y6885D01*
G01X115607Y6836D01*
G01X115547Y6786D01*
G01X115488Y6734D01*
G01X115430Y6681D01*
G01X115374Y6625D01*
G01X115319Y6569D01*
G01X115265Y6511D01*
G01X115213Y6452D01*
G01X115163Y6392D01*
G01X115114Y6330D01*
G01X115067Y6267D01*
G01X115022Y6203D01*
G01X114978Y6137D01*
G01X114936Y6071D01*
G01X114896Y6003D01*
G01X114858Y5934D01*
G01X114821Y5864D01*
G01X114786Y5794D01*
G01X114753Y5723D01*
G01X114722Y5650D01*
G01X114693Y5577D01*
G01X114666Y5503D01*
G01X114640Y5428D01*
G01X114617Y5353D01*
G01X114595Y5278D01*
G01X114576Y5201D01*
G01X114559Y5125D01*
G01X114543Y5047D01*
G01X114530Y4970D01*
G01X114519Y4892D01*
G01X114510Y4814D01*
G01X114503Y4735D01*
G01X114497Y4657D01*
G01X114494Y4578D01*
G01X114493Y4499D01*
G01X114494Y4421D01*
G01X114497Y4342D01*
G01X114503Y4264D01*
G01X114510Y4185D01*
G01X114519Y4107D01*
G01X114530Y4029D01*
G01X114543Y3952D01*
G01X114559Y3874D01*
G01X114576Y3798D01*
G01X114595Y3722D01*
G01X114617Y3646D01*
G01X114640Y3571D01*
G01X114666Y3496D01*
G01X114693Y3422D01*
G01X114722Y3349D01*
G01X114753Y3277D01*
G01X114786Y3205D01*
G01X114821Y3135D01*
G01X114858Y3065D01*
G01X114896Y2996D01*
G01X114936Y2929D01*
G01X114978Y2862D01*
G01X115022Y2796D01*
G01X115067Y2732D01*
G01X115114Y2669D01*
G01X115163Y2607D01*
G01X115213Y2547D01*
G01X115265Y2488D01*
G01X115319Y2430D01*
G01X115374Y2374D01*
G01X115430Y2318D01*
G01X115488Y2265D01*
G01X115547Y2213D01*
G01X115607Y2163D01*
G01X115669Y2114D01*
G01X115732Y2067D01*
G01X115796Y2022D01*
G01X115862Y1978D01*
G01X115928Y1936D01*
G01X115997Y1896D01*
G01X116065Y1857D01*
G01X116135Y1821D01*
G01X116205Y1786D01*
G01X116276Y1753D01*
G01X116349Y1722D01*
G01X116422Y1693D01*
G01X116496Y1666D01*
G01X116571Y1640D01*
G01X116646Y1617D01*
G01X116721Y1596D01*
G01X116798Y1576D01*
G01X116874Y1558D01*
G01X116952Y1543D01*
G01X117029Y1530D01*
G01X117107Y1519D01*
G01X117185Y1510D01*
G01X117264Y1502D01*
G01X117342Y1497D01*
G01X117421Y1494D01*
G01X117500Y1493D01*
G01X117578Y1494D01*
G01X117657Y1497D01*
G01X117735Y1502D01*
G01X117814Y1510D01*
G01X117892Y1519D01*
G01X117970Y1530D01*
G01X118047Y1543D01*
G01X118125Y1558D01*
G01X118201Y1576D01*
G01X118277Y1596D01*
G01X118354Y1617D01*
G01X118429Y1640D01*
G01X118503Y1666D01*
G01X118577Y1693D01*
G01X118650Y1722D01*
G01X118722Y1753D01*
G01X118794Y1786D01*
G01X118865Y1821D01*
G01X118934Y1857D01*
G01X119003Y1896D01*
G01X119070Y1936D01*
G01X119137Y1978D01*
G01X119203Y2022D01*
G01X119267Y2067D01*
G01X119330Y2114D01*
G01X119392Y2163D01*
G01X119452Y2213D01*
G01X119511Y2265D01*
G01X119569Y2318D01*
G01X119626Y2374D01*
G01X119681Y2430D01*
G01X119734Y2488D01*
G01X119786Y2547D01*
G01X119836Y2607D01*
G01X119885Y2669D01*
G01X119932Y2732D01*
G01X119977Y2796D01*
G01X120021Y2862D01*
G01X120063Y2929D01*
G01X120103Y2996D01*
G01X120142Y3065D01*
G01X120178Y3135D01*
G01X120213Y3205D01*
G01X120246Y3277D01*
G01X120277Y3349D01*
G01X120306Y3422D01*
G01X120334Y3496D01*
G01X120359Y3571D01*
G01X120382Y3646D01*
G01X120403Y3722D01*
G01X120423Y3798D01*
G01X120441Y3874D01*
G01X120456Y3952D01*
G01X120469Y4029D01*
G01X120480Y4107D01*
G01X120490Y4185D01*
G01X120497Y4264D01*
G01X120502Y4342D01*
G01X120505Y4421D01*
G01X120506Y4499D01*
G01X120505Y4578D01*
G01X120502Y4657D01*
G01X120497Y4735D01*
G01X120490Y4814D01*
G01X120480Y4892D01*
G01X120469Y4970D01*
G01X120456Y5047D01*
G01X120441Y5125D01*
G01X120423Y5201D01*
G01X120403Y5278D01*
G01X120382Y5353D01*
G01X120359Y5428D01*
G01X120334Y5503D01*
G01X120306Y5577D01*
G01X120277Y5650D01*
G01X120246Y5723D01*
G01X120213Y5794D01*
G01X120178Y5864D01*
G01X120142Y5934D01*
G01X120103Y6003D01*
G01X120063Y6071D01*
G01X120021Y6137D01*
G01X119977Y6203D01*
G01X119932Y6267D01*
G01X119885Y6330D01*
G01X119836Y6392D01*
G01X119786Y6452D01*
G01X119734Y6511D01*
G01X119681Y6569D01*
G01X119626Y6625D01*
G01X119569Y6681D01*
G01X119511Y6734D01*
G01X119452Y6786D01*
G01X119392Y6836D01*
G01X119330Y6885D01*
G01X119267Y6932D01*
G01X119203Y6977D01*
G01X119137Y7021D01*
G01X119070Y7063D01*
G01X119003Y7103D01*
G01X118934Y7142D01*
G01X118865Y7178D01*
G01X118794Y7213D01*
G01X118722Y7246D01*
G01X118650Y7277D01*
G01X118577Y7306D01*
G01X118503Y7333D01*
G01X118429Y7359D01*
G01X118354Y7382D01*
G01X118277Y7403D01*
G01X118201Y7423D01*
G01X118125Y7441D01*
G01X118047Y7456D01*
G01X117970Y7469D01*
G01X117892Y7480D01*
G01X117814Y7489D01*
G01X117735Y7497D01*
G01X117657Y7502D01*
G01X117578Y7505D01*
G37*
G36*
G01X163050Y27355D02*
G01X163000Y27356D01*
G01X162949Y27355D01*
G01X162899Y27352D01*
G01X162848Y27347D01*
G01X162798Y27340D01*
G01X162748Y27331D01*
G01X162699Y27320D01*
G01X162650Y27306D01*
G01X162601Y27291D01*
G01X162554Y27274D01*
G01X162507Y27256D01*
G01X162461Y27235D01*
G01X162416Y27212D01*
G01X162371Y27188D01*
G01X162328Y27162D01*
G01X162286Y27134D01*
G01X162245Y27104D01*
G01X162205Y27073D01*
G01X162166Y27040D01*
G01X162129Y27006D01*
G01X162093Y26970D01*
G01X162059Y26933D01*
G01X162026Y26894D01*
G01X161995Y26854D01*
G01X161965Y26813D01*
G01X161938Y26771D01*
G01X161912Y26728D01*
G01X161887Y26684D01*
G01X161864Y26638D01*
G01X161844Y26592D01*
G01X161825Y26545D01*
G01X161807Y26497D01*
G01X161793Y26449D01*
G01X161780Y26400D01*
G01X161768Y26351D01*
G01X161759Y26301D01*
G01X161752Y26251D01*
G01X161747Y26201D01*
G01X161744Y26150D01*
G01X161743Y26099D01*
G01X161744Y26049D01*
G01X161747Y25998D01*
G01X161752Y25948D01*
G01X161759Y25898D01*
G01X161768Y25848D01*
G01X161780Y25799D01*
G01X161793Y25750D01*
G01X161807Y25702D01*
G01X161825Y25654D01*
G01X161844Y25607D01*
G01X161864Y25561D01*
G01X161887Y25516D01*
G01X161912Y25471D01*
G01X161938Y25428D01*
G01X161965Y25386D01*
G01X161995Y25345D01*
G01X162026Y25305D01*
G01X162059Y25266D01*
G01X162093Y25229D01*
G01X162129Y25193D01*
G01X162166Y25159D01*
G01X162205Y25126D01*
G01X162245Y25095D01*
G01X162286Y25066D01*
G01X162328Y25038D01*
G01X162371Y25011D01*
G01X162416Y24987D01*
G01X162461Y24965D01*
G01X162507Y24944D01*
G01X162554Y24924D01*
G01X162601Y24908D01*
G01X162650Y24892D01*
G01X162699Y24880D01*
G01X162748Y24869D01*
G01X162798Y24859D01*
G01X162848Y24852D01*
G01X162899Y24847D01*
G01X162949Y24844D01*
G01X163000Y24843D01*
G01X163050Y24844D01*
G01X163101Y24847D01*
G01X163151Y24852D01*
G01X163201Y24859D01*
G01X163251Y24869D01*
G01X163300Y24880D01*
G01X163349Y24892D01*
G01X163398Y24908D01*
G01X163445Y24924D01*
G01X163492Y24944D01*
G01X163538Y24965D01*
G01X163583Y24987D01*
G01X163628Y25011D01*
G01X163671Y25038D01*
G01X163713Y25066D01*
G01X163755Y25095D01*
G01X163794Y25126D01*
G01X163833Y25159D01*
G01X163870Y25193D01*
G01X163906Y25229D01*
G01X163940Y25266D01*
G01X163973Y25305D01*
G01X164004Y25345D01*
G01X164034Y25386D01*
G01X164061Y25428D01*
G01X164088Y25471D01*
G01X164112Y25516D01*
G01X164135Y25561D01*
G01X164155Y25607D01*
G01X164174Y25654D01*
G01X164192Y25702D01*
G01X164206Y25750D01*
G01X164219Y25799D01*
G01X164231Y25848D01*
G01X164240Y25898D01*
G01X164247Y25948D01*
G01X164252Y25998D01*
G01X164255Y26049D01*
G01X164256Y26099D01*
G01X164255Y26150D01*
G01X164252Y26201D01*
G01X164247Y26251D01*
G01X164240Y26301D01*
G01X164231Y26351D01*
G01X164219Y26400D01*
G01X164206Y26449D01*
G01X164192Y26497D01*
G01X164174Y26545D01*
G01X164155Y26592D01*
G01X164135Y26638D01*
G01X164112Y26684D01*
G01X164088Y26728D01*
G01X164061Y26771D01*
G01X164034Y26813D01*
G01X164004Y26854D01*
G01X163973Y26894D01*
G01X163940Y26933D01*
G01X163906Y26970D01*
G01X163870Y27006D01*
G01X163833Y27040D01*
G01X163794Y27073D01*
G01X163755Y27104D01*
G01X163713Y27134D01*
G01X163671Y27162D01*
G01X163628Y27188D01*
G01X163583Y27212D01*
G01X163538Y27235D01*
G01X163492Y27256D01*
G01X163445Y27274D01*
G01X163398Y27291D01*
G01X163349Y27306D01*
G01X163300Y27320D01*
G01X163251Y27331D01*
G01X163201Y27340D01*
G01X163151Y27347D01*
G01X163101Y27352D01*
G01X163050Y27355D01*
G37*
G36*
G01X168050Y27355D02*
G01X167999Y27356D01*
G01X167949Y27355D01*
G01X167898Y27352D01*
G01X167848Y27347D01*
G01X167798Y27340D01*
G01X167748Y27331D01*
G01X167699Y27320D01*
G01X167650Y27306D01*
G01X167602Y27291D01*
G01X167554Y27274D01*
G01X167507Y27256D01*
G01X167461Y27235D01*
G01X167416Y27212D01*
G01X167371Y27188D01*
G01X167328Y27162D01*
G01X167286Y27134D01*
G01X167245Y27104D01*
G01X167205Y27073D01*
G01X167166Y27040D01*
G01X167129Y27006D01*
G01X167093Y26970D01*
G01X167059Y26933D01*
G01X167026Y26894D01*
G01X166995Y26854D01*
G01X166966Y26813D01*
G01X166938Y26771D01*
G01X166911Y26728D01*
G01X166887Y26684D01*
G01X166865Y26638D01*
G01X166844Y26592D01*
G01X166824Y26545D01*
G01X166792Y26449D01*
G01X166780Y26400D01*
G01X166769Y26351D01*
G01X166759Y26301D01*
G01X166752Y26251D01*
G01X166747Y26201D01*
G01X166744Y26150D01*
G01X166743Y26099D01*
G01X166744Y26049D01*
G01X166747Y25998D01*
G01X166752Y25948D01*
G01X166759Y25898D01*
G01X166769Y25848D01*
G01X166780Y25799D01*
G01X166792Y25750D01*
G01X166824Y25654D01*
G01X166844Y25607D01*
G01X166865Y25561D01*
G01X166887Y25516D01*
G01X166911Y25471D01*
G01X166938Y25428D01*
G01X166966Y25386D01*
G01X166995Y25345D01*
G01X167026Y25305D01*
G01X167059Y25266D01*
G01X167093Y25229D01*
G01X167129Y25193D01*
G01X167166Y25159D01*
G01X167205Y25126D01*
G01X167245Y25095D01*
G01X167286Y25066D01*
G01X167328Y25038D01*
G01X167371Y25011D01*
G01X167416Y24987D01*
G01X167461Y24965D01*
G01X167507Y24944D01*
G01X167554Y24924D01*
G01X167650Y24892D01*
G01X167699Y24880D01*
G01X167748Y24869D01*
G01X167798Y24859D01*
G01X167848Y24852D01*
G01X167898Y24847D01*
G01X167949Y24844D01*
G01X167999Y24843D01*
G01X168050Y24844D01*
G01X168101Y24847D01*
G01X168151Y24852D01*
G01X168201Y24859D01*
G01X168251Y24869D01*
G01X168300Y24880D01*
G01X168349Y24892D01*
G01X168445Y24924D01*
G01X168492Y24944D01*
G01X168538Y24965D01*
G01X168584Y24987D01*
G01X168628Y25011D01*
G01X168671Y25038D01*
G01X168713Y25066D01*
G01X168754Y25095D01*
G01X168795Y25126D01*
G01X168833Y25159D01*
G01X168870Y25193D01*
G01X168906Y25229D01*
G01X168940Y25266D01*
G01X168973Y25305D01*
G01X169004Y25345D01*
G01X169034Y25386D01*
G01X169062Y25428D01*
G01X169088Y25471D01*
G01X169112Y25516D01*
G01X169135Y25561D01*
G01X169156Y25607D01*
G01X169174Y25654D01*
G01X169191Y25702D01*
G01X169207Y25750D01*
G01X169220Y25799D01*
G01X169231Y25848D01*
G01X169240Y25898D01*
G01X169247Y25948D01*
G01X169252Y25998D01*
G01X169255Y26049D01*
G01X169256Y26099D01*
G01X169255Y26150D01*
G01X169252Y26201D01*
G01X169247Y26251D01*
G01X169240Y26301D01*
G01X169231Y26351D01*
G01X169220Y26400D01*
G01X169207Y26449D01*
G01X169191Y26497D01*
G01X169174Y26545D01*
G01X169156Y26592D01*
G01X169135Y26638D01*
G01X169112Y26684D01*
G01X169088Y26728D01*
G01X169062Y26771D01*
G01X169034Y26813D01*
G01X169004Y26854D01*
G01X168973Y26894D01*
G01X168940Y26933D01*
G01X168906Y26970D01*
G01X168870Y27006D01*
G01X168833Y27040D01*
G01X168795Y27073D01*
G01X168754Y27104D01*
G01X168713Y27134D01*
G01X168671Y27162D01*
G01X168628Y27188D01*
G01X168584Y27212D01*
G01X168538Y27235D01*
G01X168492Y27256D01*
G01X168445Y27274D01*
G01X168397Y27291D01*
G01X168349Y27306D01*
G01X168300Y27320D01*
G01X168251Y27331D01*
G01X168201Y27340D01*
G01X168151Y27347D01*
G01X168101Y27352D01*
G01X168050Y27355D01*
G37*
G36*
G01X157436Y25536D02*
G01X156876Y25536D01*
G01X156902Y25489D01*
G01X156929Y25442D01*
G01X156958Y25397D01*
G01X156989Y25353D01*
G01X157022Y25311D01*
G01X157056Y25270D01*
G01X157092Y25230D01*
G01X157130Y25192D01*
G01X157170Y25156D01*
G01X157211Y25122D01*
G01X157253Y25089D01*
G01X157297Y25058D01*
G01X157342Y25029D01*
G01X157388Y25002D01*
G01X157436Y24976D01*
G01X157436Y25536D01*
G37*
G36*
G01X159123Y25536D02*
G01X158563Y25536D01*
G01X158563Y24976D01*
G01X158611Y25002D01*
G01X158657Y25029D01*
G01X158702Y25058D01*
G01X158746Y25089D01*
G01X158788Y25122D01*
G01X158830Y25156D01*
G01X158869Y25192D01*
G01X158907Y25230D01*
G01X158943Y25270D01*
G01X158978Y25311D01*
G01X159010Y25353D01*
G01X159041Y25397D01*
G01X159070Y25442D01*
G01X159097Y25489D01*
G01X159123Y25536D01*
G37*
G36*
G01X150971Y27855D02*
G01X150917Y27856D01*
G01X150864Y27855D01*
G01X150811Y27852D01*
G01X150758Y27846D01*
G01X150705Y27839D01*
G01X150653Y27830D01*
G01X150601Y27818D01*
G01X150549Y27805D01*
G01X150498Y27790D01*
G01X150448Y27772D01*
G01X150398Y27753D01*
G01X150350Y27732D01*
G01X150302Y27708D01*
G01X150255Y27683D01*
G01X150209Y27656D01*
G01X150164Y27627D01*
G01X150120Y27597D01*
G01X150078Y27565D01*
G01X150037Y27531D01*
G01X149997Y27495D01*
G01X149958Y27459D01*
G01X149921Y27420D01*
G01X149886Y27381D01*
G01X149852Y27339D01*
G01X149820Y27297D01*
G01X149790Y27253D01*
G01X149761Y27208D01*
G01X149734Y27162D01*
G01X149709Y27115D01*
G01X149686Y27068D01*
G01X149664Y27018D01*
G01X149645Y26969D01*
G01X149628Y26919D01*
G01X149612Y26868D01*
G01X149599Y26816D01*
G01X149587Y26764D01*
G01X149578Y26712D01*
G01X149570Y26659D01*
G01X149565Y26606D01*
G01X149562Y26553D01*
G01X149561Y26500D01*
G01X149562Y26446D01*
G01X149565Y26393D01*
G01X149570Y26340D01*
G01X149578Y26287D01*
G01X149587Y26235D01*
G01X149599Y26183D01*
G01X149612Y26131D01*
G01X149628Y26080D01*
G01X149645Y26030D01*
G01X149664Y25981D01*
G01X149686Y25932D01*
G01X149709Y25884D01*
G01X149734Y25837D01*
G01X149761Y25791D01*
G01X149790Y25746D01*
G01X149820Y25702D01*
G01X149852Y25659D01*
G01X149886Y25618D01*
G01X149921Y25579D01*
G01X149958Y25540D01*
G01X149997Y25504D01*
G01X150037Y25468D01*
G01X150078Y25434D01*
G01X150120Y25402D01*
G01X150164Y25371D01*
G01X150209Y25343D01*
G01X150255Y25316D01*
G01X150302Y25291D01*
G01X150350Y25268D01*
G01X150398Y25246D01*
G01X150448Y25227D01*
G01X150498Y25209D01*
G01X150549Y25194D01*
G01X150601Y25180D01*
G01X150653Y25169D01*
G01X150705Y25160D01*
G01X150758Y25153D01*
G01X150811Y25147D01*
G01X150864Y25144D01*
G01X150917Y25143D01*
G01X150971Y25144D01*
G01X151024Y25147D01*
G01X151077Y25153D01*
G01X151130Y25160D01*
G01X151182Y25169D01*
G01X151234Y25180D01*
G01X151286Y25194D01*
G01X151337Y25209D01*
G01X151387Y25227D01*
G01X151437Y25246D01*
G01X151485Y25268D01*
G01X151534Y25291D01*
G01X151580Y25316D01*
G01X151626Y25343D01*
G01X151671Y25371D01*
G01X151715Y25402D01*
G01X151757Y25434D01*
G01X151798Y25468D01*
G01X151838Y25504D01*
G01X151877Y25540D01*
G01X151914Y25579D01*
G01X151949Y25618D01*
G01X151983Y25659D01*
G01X152015Y25702D01*
G01X152046Y25746D01*
G01X152074Y25791D01*
G01X152101Y25837D01*
G01X152126Y25884D01*
G01X152149Y25932D01*
G01X152171Y25981D01*
G01X152190Y26030D01*
G01X152208Y26080D01*
G01X152223Y26131D01*
G01X152237Y26183D01*
G01X152248Y26235D01*
G01X152258Y26287D01*
G01X152265Y26340D01*
G01X152270Y26393D01*
G01X152273Y26446D01*
G01X152274Y26500D01*
G01X152273Y26553D01*
G01X152270Y26606D01*
G01X152265Y26659D01*
G01X152258Y26712D01*
G01X152248Y26764D01*
G01X152237Y26816D01*
G01X152223Y26868D01*
G01X152208Y26919D01*
G01X152190Y26969D01*
G01X152171Y27018D01*
G01X152149Y27068D01*
G01X152126Y27115D01*
G01X152101Y27162D01*
G01X152074Y27208D01*
G01X152046Y27253D01*
G01X152015Y27297D01*
G01X151983Y27339D01*
G01X151949Y27381D01*
G01X151914Y27420D01*
G01X151877Y27459D01*
G01X151838Y27495D01*
G01X151798Y27531D01*
G01X151757Y27565D01*
G01X151715Y27597D01*
G01X151671Y27627D01*
G01X151626Y27656D01*
G01X151580Y27683D01*
G01X151534Y27708D01*
G01X151485Y27732D01*
G01X151437Y27753D01*
G01X151387Y27772D01*
G01X151337Y27790D01*
G01X151286Y27805D01*
G01X151234Y27818D01*
G01X151182Y27830D01*
G01X151130Y27839D01*
G01X151077Y27846D01*
G01X151024Y27852D01*
G01X150971Y27855D01*
G37*
G36*
G01X146653Y27855D02*
G01X146599Y27856D01*
G01X146546Y27855D01*
G01X146493Y27852D01*
G01X146440Y27846D01*
G01X146387Y27839D01*
G01X146335Y27830D01*
G01X146283Y27818D01*
G01X146231Y27805D01*
G01X146180Y27790D01*
G01X146130Y27772D01*
G01X146080Y27753D01*
G01X146032Y27732D01*
G01X145984Y27708D01*
G01X145937Y27683D01*
G01X145891Y27656D01*
G01X145846Y27627D01*
G01X145802Y27597D01*
G01X145760Y27565D01*
G01X145719Y27531D01*
G01X145679Y27495D01*
G01X145640Y27459D01*
G01X145603Y27420D01*
G01X145568Y27381D01*
G01X145534Y27339D01*
G01X145502Y27297D01*
G01X145472Y27253D01*
G01X145443Y27208D01*
G01X145416Y27162D01*
G01X145391Y27115D01*
G01X145368Y27068D01*
G01X145346Y27018D01*
G01X145327Y26969D01*
G01X145310Y26919D01*
G01X145294Y26868D01*
G01X145281Y26816D01*
G01X145269Y26764D01*
G01X145260Y26712D01*
G01X145252Y26659D01*
G01X145247Y26606D01*
G01X145244Y26553D01*
G01X145243Y26500D01*
G01X145244Y26446D01*
G01X145247Y26393D01*
G01X145252Y26340D01*
G01X145260Y26287D01*
G01X145269Y26235D01*
G01X145281Y26183D01*
G01X145294Y26131D01*
G01X145310Y26080D01*
G01X145327Y26030D01*
G01X145346Y25981D01*
G01X145368Y25932D01*
G01X145391Y25884D01*
G01X145416Y25837D01*
G01X145443Y25791D01*
G01X145472Y25746D01*
G01X145502Y25702D01*
G01X145534Y25659D01*
G01X145568Y25618D01*
G01X145603Y25579D01*
G01X145640Y25540D01*
G01X145679Y25504D01*
G01X145719Y25468D01*
G01X145760Y25434D01*
G01X145802Y25402D01*
G01X145846Y25371D01*
G01X145891Y25343D01*
G01X145937Y25316D01*
G01X145984Y25291D01*
G01X146032Y25268D01*
G01X146080Y25246D01*
G01X146130Y25227D01*
G01X146180Y25209D01*
G01X146231Y25194D01*
G01X146283Y25180D01*
G01X146335Y25169D01*
G01X146387Y25160D01*
G01X146440Y25153D01*
G01X146493Y25147D01*
G01X146546Y25144D01*
G01X146599Y25143D01*
G01X146653Y25144D01*
G01X146706Y25147D01*
G01X146759Y25153D01*
G01X146812Y25160D01*
G01X146864Y25169D01*
G01X146916Y25180D01*
G01X146968Y25194D01*
G01X147019Y25209D01*
G01X147069Y25227D01*
G01X147119Y25246D01*
G01X147167Y25268D01*
G01X147216Y25291D01*
G01X147262Y25316D01*
G01X147308Y25343D01*
G01X147353Y25371D01*
G01X147397Y25402D01*
G01X147439Y25434D01*
G01X147480Y25468D01*
G01X147520Y25504D01*
G01X147559Y25540D01*
G01X147596Y25579D01*
G01X147631Y25618D01*
G01X147665Y25659D01*
G01X147697Y25702D01*
G01X147728Y25746D01*
G01X147756Y25791D01*
G01X147783Y25837D01*
G01X147808Y25884D01*
G01X147831Y25932D01*
G01X147853Y25981D01*
G01X147872Y26030D01*
G01X147890Y26080D01*
G01X147905Y26131D01*
G01X147919Y26183D01*
G01X147930Y26235D01*
G01X147940Y26287D01*
G01X147947Y26340D01*
G01X147952Y26393D01*
G01X147955Y26446D01*
G01X147956Y26500D01*
G01X147955Y26553D01*
G01X147952Y26606D01*
G01X147947Y26659D01*
G01X147940Y26712D01*
G01X147930Y26764D01*
G01X147919Y26816D01*
G01X147905Y26868D01*
G01X147890Y26919D01*
G01X147872Y26969D01*
G01X147853Y27018D01*
G01X147831Y27068D01*
G01X147808Y27115D01*
G01X147783Y27162D01*
G01X147756Y27208D01*
G01X147728Y27253D01*
G01X147697Y27297D01*
G01X147665Y27339D01*
G01X147631Y27381D01*
G01X147596Y27420D01*
G01X147559Y27459D01*
G01X147520Y27495D01*
G01X147480Y27531D01*
G01X147439Y27565D01*
G01X147397Y27597D01*
G01X147353Y27627D01*
G01X147308Y27656D01*
G01X147262Y27683D01*
G01X147216Y27708D01*
G01X147167Y27732D01*
G01X147119Y27753D01*
G01X147069Y27772D01*
G01X147019Y27790D01*
G01X146968Y27805D01*
G01X146916Y27818D01*
G01X146864Y27830D01*
G01X146812Y27839D01*
G01X146759Y27846D01*
G01X146706Y27852D01*
G01X146653Y27855D01*
G37*
G36*
G01X12771Y27855D02*
G01X12718Y27856D01*
G01X12664Y27855D01*
G01X12611Y27852D01*
G01X12558Y27846D01*
G01X12505Y27839D01*
G01X12453Y27830D01*
G01X12401Y27818D01*
G01X12349Y27805D01*
G01X12299Y27790D01*
G01X12248Y27772D01*
G01X12198Y27753D01*
G01X12150Y27732D01*
G01X12101Y27708D01*
G01X12055Y27683D01*
G01X12009Y27656D01*
G01X11964Y27627D01*
G01X11920Y27597D01*
G01X11878Y27565D01*
G01X11837Y27531D01*
G01X11797Y27495D01*
G01X11759Y27459D01*
G01X11721Y27420D01*
G01X11686Y27381D01*
G01X11652Y27339D01*
G01X11620Y27297D01*
G01X11589Y27253D01*
G01X11561Y27208D01*
G01X11534Y27162D01*
G01X11509Y27115D01*
G01X11486Y27068D01*
G01X11464Y27018D01*
G01X11445Y26969D01*
G01X11427Y26919D01*
G01X11412Y26868D01*
G01X11398Y26816D01*
G01X11387Y26764D01*
G01X11378Y26712D01*
G01X11370Y26659D01*
G01X11365Y26606D01*
G01X11362Y26553D01*
G01X11361Y26500D01*
G01X11362Y26446D01*
G01X11365Y26393D01*
G01X11370Y26340D01*
G01X11378Y26287D01*
G01X11387Y26235D01*
G01X11398Y26183D01*
G01X11412Y26131D01*
G01X11427Y26080D01*
G01X11445Y26030D01*
G01X11464Y25981D01*
G01X11486Y25932D01*
G01X11509Y25884D01*
G01X11534Y25837D01*
G01X11561Y25791D01*
G01X11589Y25746D01*
G01X11620Y25702D01*
G01X11652Y25659D01*
G01X11686Y25618D01*
G01X11721Y25579D01*
G01X11759Y25540D01*
G01X11797Y25504D01*
G01X11837Y25468D01*
G01X11878Y25434D01*
G01X11920Y25402D01*
G01X11964Y25371D01*
G01X12009Y25343D01*
G01X12055Y25316D01*
G01X12101Y25291D01*
G01X12150Y25268D01*
G01X12198Y25246D01*
G01X12248Y25227D01*
G01X12299Y25209D01*
G01X12349Y25194D01*
G01X12401Y25180D01*
G01X12453Y25169D01*
G01X12505Y25160D01*
G01X12558Y25153D01*
G01X12611Y25147D01*
G01X12664Y25144D01*
G01X12718Y25143D01*
G01X12771Y25144D01*
G01X12824Y25147D01*
G01X12877Y25153D01*
G01X12930Y25160D01*
G01X12982Y25169D01*
G01X13034Y25180D01*
G01X13086Y25194D01*
G01X13137Y25209D01*
G01X13187Y25227D01*
G01X13237Y25246D01*
G01X13286Y25268D01*
G01X13333Y25291D01*
G01X13381Y25316D01*
G01X13426Y25343D01*
G01X13471Y25371D01*
G01X13515Y25402D01*
G01X13557Y25434D01*
G01X13598Y25468D01*
G01X13638Y25504D01*
G01X13677Y25540D01*
G01X13714Y25579D01*
G01X13749Y25618D01*
G01X13783Y25659D01*
G01X13815Y25702D01*
G01X13845Y25746D01*
G01X13874Y25791D01*
G01X13901Y25837D01*
G01X13926Y25884D01*
G01X13950Y25932D01*
G01X13971Y25981D01*
G01X13990Y26030D01*
G01X14007Y26080D01*
G01X14023Y26131D01*
G01X14036Y26183D01*
G01X14048Y26235D01*
G01X14057Y26287D01*
G01X14065Y26340D01*
G01X14070Y26393D01*
G01X14073Y26446D01*
G01X14074Y26500D01*
G01X14073Y26553D01*
G01X14070Y26606D01*
G01X14065Y26659D01*
G01X14057Y26712D01*
G01X14048Y26764D01*
G01X14036Y26816D01*
G01X14023Y26868D01*
G01X14007Y26919D01*
G01X13990Y26969D01*
G01X13971Y27018D01*
G01X13950Y27068D01*
G01X13926Y27115D01*
G01X13901Y27162D01*
G01X13874Y27208D01*
G01X13845Y27253D01*
G01X13815Y27297D01*
G01X13783Y27339D01*
G01X13749Y27381D01*
G01X13714Y27420D01*
G01X13677Y27459D01*
G01X13638Y27495D01*
G01X13598Y27531D01*
G01X13557Y27565D01*
G01X13515Y27597D01*
G01X13471Y27627D01*
G01X13426Y27656D01*
G01X13381Y27683D01*
G01X13333Y27708D01*
G01X13286Y27732D01*
G01X13237Y27753D01*
G01X13187Y27772D01*
G01X13137Y27790D01*
G01X13086Y27805D01*
G01X13034Y27818D01*
G01X12982Y27830D01*
G01X12930Y27839D01*
G01X12877Y27846D01*
G01X12824Y27852D01*
G01X12771Y27855D01*
G37*
G36*
G01X5181Y27856D02*
G01X2981Y27856D01*
G01X2958Y27855D01*
G01X2935Y27852D01*
G01X2911Y27846D01*
G01X2889Y27839D01*
G01X2867Y27829D01*
G01X2847Y27817D01*
G01X2827Y27804D01*
G01X2809Y27789D01*
G01X2792Y27772D01*
G01X2777Y27754D01*
G01X2763Y27735D01*
G01X2752Y27714D01*
G01X2743Y27692D01*
G01X2735Y27670D01*
G01X2729Y27647D01*
G01X2726Y27623D01*
G01X2725Y27600D01*
G01X2725Y25399D01*
G01X2726Y25376D01*
G01X2729Y25352D01*
G01X2735Y25329D01*
G01X2743Y25307D01*
G01X2752Y25285D01*
G01X2763Y25264D01*
G01X2777Y25245D01*
G01X2792Y25227D01*
G01X2809Y25210D01*
G01X2827Y25195D01*
G01X2847Y25181D01*
G01X2867Y25170D01*
G01X2889Y25160D01*
G01X2911Y25153D01*
G01X2935Y25147D01*
G01X2958Y25144D01*
G01X2981Y25143D01*
G01X5181Y25143D01*
G01X5205Y25144D01*
G01X5229Y25147D01*
G01X5252Y25153D01*
G01X5274Y25160D01*
G01X5296Y25170D01*
G01X5317Y25181D01*
G01X5336Y25195D01*
G01X5354Y25210D01*
G01X5371Y25227D01*
G01X5386Y25245D01*
G01X5400Y25264D01*
G01X5411Y25285D01*
G01X5421Y25307D01*
G01X5428Y25329D01*
G01X5434Y25352D01*
G01X5437Y25376D01*
G01X5438Y25399D01*
G01X5438Y27600D01*
G01X5437Y27623D01*
G01X5434Y27647D01*
G01X5428Y27670D01*
G01X5421Y27692D01*
G01X5411Y27714D01*
G01X5400Y27735D01*
G01X5386Y27754D01*
G01X5371Y27772D01*
G01X5354Y27789D01*
G01X5336Y27804D01*
G01X5317Y27817D01*
G01X5296Y27829D01*
G01X5274Y27839D01*
G01X5252Y27846D01*
G01X5229Y27852D01*
G01X5205Y27855D01*
G01X5181Y27856D01*
G37*
G36*
G01X8453Y27855D02*
G01X8400Y27856D01*
G01X8346Y27855D01*
G01X8293Y27852D01*
G01X8240Y27846D01*
G01X8187Y27839D01*
G01X8135Y27830D01*
G01X8083Y27818D01*
G01X8031Y27805D01*
G01X7981Y27790D01*
G01X7930Y27772D01*
G01X7880Y27753D01*
G01X7832Y27732D01*
G01X7783Y27708D01*
G01X7737Y27683D01*
G01X7691Y27656D01*
G01X7646Y27627D01*
G01X7602Y27597D01*
G01X7560Y27565D01*
G01X7519Y27531D01*
G01X7479Y27495D01*
G01X7441Y27459D01*
G01X7403Y27420D01*
G01X7368Y27381D01*
G01X7334Y27339D01*
G01X7302Y27297D01*
G01X7271Y27253D01*
G01X7243Y27208D01*
G01X7216Y27162D01*
G01X7191Y27115D01*
G01X7168Y27068D01*
G01X7146Y27018D01*
G01X7127Y26969D01*
G01X7109Y26919D01*
G01X7094Y26868D01*
G01X7080Y26816D01*
G01X7069Y26764D01*
G01X7060Y26712D01*
G01X7052Y26659D01*
G01X7047Y26606D01*
G01X7044Y26553D01*
G01X7043Y26500D01*
G01X7044Y26446D01*
G01X7047Y26393D01*
G01X7052Y26340D01*
G01X7060Y26287D01*
G01X7069Y26235D01*
G01X7080Y26183D01*
G01X7094Y26131D01*
G01X7109Y26080D01*
G01X7127Y26030D01*
G01X7146Y25981D01*
G01X7168Y25932D01*
G01X7191Y25884D01*
G01X7216Y25837D01*
G01X7243Y25791D01*
G01X7271Y25746D01*
G01X7302Y25702D01*
G01X7334Y25659D01*
G01X7368Y25618D01*
G01X7403Y25579D01*
G01X7441Y25540D01*
G01X7479Y25504D01*
G01X7519Y25468D01*
G01X7560Y25434D01*
G01X7602Y25402D01*
G01X7646Y25371D01*
G01X7691Y25343D01*
G01X7737Y25316D01*
G01X7783Y25291D01*
G01X7832Y25268D01*
G01X7880Y25246D01*
G01X7930Y25227D01*
G01X7981Y25209D01*
G01X8031Y25194D01*
G01X8083Y25180D01*
G01X8135Y25169D01*
G01X8187Y25160D01*
G01X8240Y25153D01*
G01X8293Y25147D01*
G01X8346Y25144D01*
G01X8400Y25143D01*
G01X8453Y25144D01*
G01X8506Y25147D01*
G01X8559Y25153D01*
G01X8612Y25160D01*
G01X8664Y25169D01*
G01X8716Y25180D01*
G01X8768Y25194D01*
G01X8819Y25209D01*
G01X8869Y25227D01*
G01X8919Y25246D01*
G01X8968Y25268D01*
G01X9015Y25291D01*
G01X9063Y25316D01*
G01X9108Y25343D01*
G01X9153Y25371D01*
G01X9197Y25402D01*
G01X9239Y25434D01*
G01X9280Y25468D01*
G01X9320Y25504D01*
G01X9359Y25540D01*
G01X9396Y25579D01*
G01X9431Y25618D01*
G01X9465Y25659D01*
G01X9497Y25702D01*
G01X9527Y25746D01*
G01X9556Y25791D01*
G01X9583Y25837D01*
G01X9608Y25884D01*
G01X9632Y25932D01*
G01X9653Y25981D01*
G01X9672Y26030D01*
G01X9689Y26080D01*
G01X9705Y26131D01*
G01X9718Y26183D01*
G01X9730Y26235D01*
G01X9739Y26287D01*
G01X9747Y26340D01*
G01X9752Y26393D01*
G01X9755Y26446D01*
G01X9756Y26500D01*
G01X9755Y26553D01*
G01X9752Y26606D01*
G01X9747Y26659D01*
G01X9739Y26712D01*
G01X9730Y26764D01*
G01X9718Y26816D01*
G01X9705Y26868D01*
G01X9689Y26919D01*
G01X9672Y26969D01*
G01X9653Y27018D01*
G01X9632Y27068D01*
G01X9608Y27115D01*
G01X9583Y27162D01*
G01X9556Y27208D01*
G01X9527Y27253D01*
G01X9497Y27297D01*
G01X9465Y27339D01*
G01X9431Y27381D01*
G01X9396Y27420D01*
G01X9359Y27459D01*
G01X9320Y27495D01*
G01X9280Y27531D01*
G01X9239Y27565D01*
G01X9197Y27597D01*
G01X9153Y27627D01*
G01X9108Y27656D01*
G01X9063Y27683D01*
G01X9015Y27708D01*
G01X8968Y27732D01*
G01X8919Y27753D01*
G01X8869Y27772D01*
G01X8819Y27790D01*
G01X8768Y27805D01*
G01X8716Y27818D01*
G01X8664Y27830D01*
G01X8612Y27839D01*
G01X8559Y27846D01*
G01X8506Y27852D01*
G01X8453Y27855D01*
G37*
G36*
G01X143382Y27856D02*
G01X141182Y27856D01*
G01X141158Y27855D01*
G01X141134Y27852D01*
G01X141112Y27846D01*
G01X141089Y27839D01*
G01X141067Y27829D01*
G01X141047Y27817D01*
G01X141027Y27804D01*
G01X141009Y27789D01*
G01X140992Y27772D01*
G01X140977Y27754D01*
G01X140963Y27735D01*
G01X140952Y27714D01*
G01X140942Y27692D01*
G01X140935Y27670D01*
G01X140929Y27647D01*
G01X140926Y27623D01*
G01X140925Y27600D01*
G01X140925Y25399D01*
G01X140926Y25376D01*
G01X140929Y25352D01*
G01X140935Y25329D01*
G01X140942Y25307D01*
G01X140952Y25285D01*
G01X140963Y25264D01*
G01X140977Y25245D01*
G01X140992Y25227D01*
G01X141009Y25210D01*
G01X141027Y25195D01*
G01X141047Y25181D01*
G01X141067Y25170D01*
G01X141089Y25160D01*
G01X141112Y25153D01*
G01X141134Y25147D01*
G01X141158Y25144D01*
G01X141182Y25143D01*
G01X143382Y25143D01*
G01X143405Y25144D01*
G01X143429Y25147D01*
G01X143452Y25153D01*
G01X143474Y25160D01*
G01X143496Y25170D01*
G01X143516Y25181D01*
G01X143536Y25195D01*
G01X143555Y25210D01*
G01X143571Y25227D01*
G01X143587Y25245D01*
G01X143600Y25264D01*
G01X143611Y25285D01*
G01X143621Y25307D01*
G01X143628Y25329D01*
G01X143634Y25352D01*
G01X143637Y25376D01*
G01X143638Y25399D01*
G01X143638Y27600D01*
G01X143637Y27623D01*
G01X143634Y27647D01*
G01X143628Y27670D01*
G01X143621Y27692D01*
G01X143611Y27714D01*
G01X143600Y27735D01*
G01X143587Y27754D01*
G01X143571Y27772D01*
G01X143555Y27789D01*
G01X143536Y27804D01*
G01X143516Y27817D01*
G01X143496Y27829D01*
G01X143474Y27839D01*
G01X143452Y27846D01*
G01X143429Y27852D01*
G01X143405Y27855D01*
G01X143382Y27856D01*
G37*
G36*
G01X19878Y28655D02*
G01X19830Y28656D01*
G01X19780Y28655D01*
G01X19732Y28652D01*
G01X19683Y28647D01*
G01X19634Y28639D01*
G01X19586Y28630D01*
G01X19538Y28619D01*
G01X19491Y28605D01*
G01X19444Y28590D01*
G01X19398Y28573D01*
G01X19353Y28554D01*
G01X19309Y28532D01*
G01X19265Y28509D01*
G01X19223Y28484D01*
G01X19182Y28458D01*
G01X19142Y28430D01*
G01X19103Y28399D01*
G01X19066Y28368D01*
G01X19029Y28335D01*
G01X18994Y28300D01*
G01X18961Y28264D01*
G01X18929Y28226D01*
G01X18899Y28187D01*
G01X18872Y28147D01*
G01X18845Y28106D01*
G01X18820Y28063D01*
G01X18797Y28020D01*
G01X18776Y27976D01*
G01X18756Y27931D01*
G01X18739Y27885D01*
G01X18724Y27838D01*
G01X18710Y27791D01*
G01X18699Y27743D01*
G01X18690Y27695D01*
G01X18683Y27646D01*
G01X18677Y27598D01*
G01X18674Y27549D01*
G01X18673Y27499D01*
G01X18674Y27450D01*
G01X18677Y27401D01*
G01X18683Y27353D01*
G01X18690Y27304D01*
G01X18699Y27256D01*
G01X18710Y27208D01*
G01X18724Y27161D01*
G01X18739Y27114D01*
G01X18756Y27068D01*
G01X18776Y27023D01*
G01X18797Y26979D01*
G01X18820Y26936D01*
G01X18845Y26893D01*
G01X18872Y26852D01*
G01X18899Y26812D01*
G01X18929Y26773D01*
G01X18961Y26735D01*
G01X18994Y26699D01*
G01X19029Y26664D01*
G01X19066Y26631D01*
G01X19103Y26600D01*
G01X19142Y26570D01*
G01X19182Y26541D01*
G01X19223Y26514D01*
G01X19265Y26490D01*
G01X19309Y26467D01*
G01X19353Y26446D01*
G01X19398Y26427D01*
G01X19444Y26409D01*
G01X19491Y26394D01*
G01X19538Y26380D01*
G01X19586Y26369D01*
G01X19634Y26360D01*
G01X19683Y26352D01*
G01X19732Y26347D01*
G01X19780Y26344D01*
G01X19830Y26343D01*
G01X19878Y26344D01*
G01X19928Y26347D01*
G01X19976Y26352D01*
G01X20025Y26360D01*
G01X20073Y26369D01*
G01X20121Y26380D01*
G01X20168Y26394D01*
G01X20215Y26409D01*
G01X20261Y26427D01*
G01X20306Y26446D01*
G01X20350Y26467D01*
G01X20393Y26490D01*
G01X20436Y26514D01*
G01X20477Y26541D01*
G01X20517Y26570D01*
G01X20556Y26600D01*
G01X20594Y26631D01*
G01X20630Y26664D01*
G01X20664Y26699D01*
G01X20698Y26735D01*
G01X20729Y26773D01*
G01X20759Y26812D01*
G01X20788Y26852D01*
G01X20814Y26893D01*
G01X20839Y26936D01*
G01X20862Y26979D01*
G01X20883Y27023D01*
G01X20903Y27068D01*
G01X20920Y27114D01*
G01X20936Y27161D01*
G01X20949Y27208D01*
G01X20960Y27256D01*
G01X20970Y27304D01*
G01X20977Y27353D01*
G01X20982Y27401D01*
G01X20985Y27450D01*
G01X20986Y27499D01*
G01X20985Y27549D01*
G01X20982Y27598D01*
G01X20977Y27646D01*
G01X20970Y27695D01*
G01X20960Y27743D01*
G01X20949Y27791D01*
G01X20936Y27838D01*
G01X20920Y27885D01*
G01X20903Y27931D01*
G01X20883Y27976D01*
G01X20862Y28020D01*
G01X20839Y28063D01*
G01X20814Y28106D01*
G01X20788Y28147D01*
G01X20759Y28187D01*
G01X20729Y28226D01*
G01X20698Y28264D01*
G01X20664Y28300D01*
G01X20630Y28335D01*
G01X20594Y28368D01*
G01X20556Y28399D01*
G01X20517Y28430D01*
G01X20477Y28458D01*
G01X20436Y28484D01*
G01X20393Y28509D01*
G01X20350Y28532D01*
G01X20306Y28554D01*
G01X20261Y28573D01*
G01X20215Y28590D01*
G01X20168Y28605D01*
G01X20121Y28619D01*
G01X20073Y28630D01*
G01X20025Y28639D01*
G01X19976Y28647D01*
G01X19928Y28652D01*
G01X19878Y28655D01*
G37*
G36*
G01X22418Y28655D02*
G01X22370Y28656D01*
G01X22320Y28655D01*
G01X22272Y28652D01*
G01X22223Y28647D01*
G01X22174Y28639D01*
G01X22126Y28630D01*
G01X22078Y28619D01*
G01X22031Y28605D01*
G01X21984Y28590D01*
G01X21938Y28573D01*
G01X21893Y28554D01*
G01X21849Y28532D01*
G01X21805Y28509D01*
G01X21763Y28484D01*
G01X21722Y28458D01*
G01X21682Y28430D01*
G01X21643Y28399D01*
G01X21606Y28368D01*
G01X21569Y28335D01*
G01X21534Y28300D01*
G01X21501Y28264D01*
G01X21469Y28226D01*
G01X21439Y28187D01*
G01X21412Y28147D01*
G01X21385Y28106D01*
G01X21360Y28063D01*
G01X21337Y28020D01*
G01X21316Y27976D01*
G01X21296Y27931D01*
G01X21279Y27885D01*
G01X21264Y27838D01*
G01X21250Y27791D01*
G01X21239Y27743D01*
G01X21230Y27695D01*
G01X21223Y27646D01*
G01X21217Y27598D01*
G01X21214Y27549D01*
G01X21213Y27499D01*
G01X21214Y27450D01*
G01X21217Y27401D01*
G01X21223Y27353D01*
G01X21230Y27304D01*
G01X21239Y27256D01*
G01X21250Y27208D01*
G01X21264Y27161D01*
G01X21279Y27114D01*
G01X21296Y27068D01*
G01X21316Y27023D01*
G01X21337Y26979D01*
G01X21360Y26936D01*
G01X21385Y26893D01*
G01X21412Y26852D01*
G01X21439Y26812D01*
G01X21469Y26773D01*
G01X21501Y26735D01*
G01X21534Y26699D01*
G01X21569Y26664D01*
G01X21606Y26631D01*
G01X21643Y26600D01*
G01X21682Y26570D01*
G01X21722Y26541D01*
G01X21763Y26514D01*
G01X21805Y26490D01*
G01X21849Y26467D01*
G01X21893Y26446D01*
G01X21938Y26427D01*
G01X21984Y26409D01*
G01X22031Y26394D01*
G01X22078Y26380D01*
G01X22126Y26369D01*
G01X22174Y26360D01*
G01X22223Y26352D01*
G01X22272Y26347D01*
G01X22320Y26344D01*
G01X22370Y26343D01*
G01X22418Y26344D01*
G01X22468Y26347D01*
G01X22516Y26352D01*
G01X22565Y26360D01*
G01X22613Y26369D01*
G01X22661Y26380D01*
G01X22708Y26394D01*
G01X22755Y26409D01*
G01X22801Y26427D01*
G01X22846Y26446D01*
G01X22890Y26467D01*
G01X22933Y26490D01*
G01X22976Y26514D01*
G01X23017Y26541D01*
G01X23057Y26570D01*
G01X23096Y26600D01*
G01X23134Y26631D01*
G01X23170Y26664D01*
G01X23204Y26699D01*
G01X23238Y26735D01*
G01X23269Y26773D01*
G01X23299Y26812D01*
G01X23328Y26852D01*
G01X23354Y26893D01*
G01X23379Y26936D01*
G01X23402Y26979D01*
G01X23423Y27023D01*
G01X23443Y27068D01*
G01X23460Y27114D01*
G01X23476Y27161D01*
G01X23489Y27208D01*
G01X23500Y27256D01*
G01X23510Y27304D01*
G01X23517Y27353D01*
G01X23522Y27401D01*
G01X23525Y27450D01*
G01X23526Y27499D01*
G01X23525Y27549D01*
G01X23522Y27598D01*
G01X23517Y27646D01*
G01X23510Y27695D01*
G01X23500Y27743D01*
G01X23489Y27791D01*
G01X23476Y27838D01*
G01X23460Y27885D01*
G01X23443Y27931D01*
G01X23423Y27976D01*
G01X23402Y28020D01*
G01X23379Y28063D01*
G01X23354Y28106D01*
G01X23328Y28147D01*
G01X23299Y28187D01*
G01X23269Y28226D01*
G01X23238Y28264D01*
G01X23204Y28300D01*
G01X23170Y28335D01*
G01X23134Y28368D01*
G01X23096Y28399D01*
G01X23057Y28430D01*
G01X23017Y28458D01*
G01X22976Y28484D01*
G01X22933Y28509D01*
G01X22890Y28532D01*
G01X22846Y28554D01*
G01X22801Y28573D01*
G01X22755Y28590D01*
G01X22708Y28605D01*
G01X22661Y28619D01*
G01X22613Y28630D01*
G01X22565Y28639D01*
G01X22516Y28647D01*
G01X22468Y28652D01*
G01X22418Y28655D01*
G37*
G36*
G01X158611Y27198D02*
G01X158563Y27223D01*
G01X158563Y26663D01*
G01X159123Y26663D01*
G01X159097Y26711D01*
G01X159070Y26757D01*
G01X159041Y26802D01*
G01X159010Y26846D01*
G01X158978Y26888D01*
G01X158943Y26929D01*
G01X158907Y26969D01*
G01X158869Y27007D01*
G01X158830Y27043D01*
G01X158788Y27078D01*
G01X158746Y27110D01*
G01X158702Y27141D01*
G01X158657Y27170D01*
G01X158611Y27198D01*
G37*
G36*
G01X157436Y26663D02*
G01X157436Y27223D01*
G01X157388Y27198D01*
G01X157342Y27170D01*
G01X157297Y27141D01*
G01X157253Y27110D01*
G01X157211Y27078D01*
G01X157170Y27043D01*
G01X157130Y27007D01*
G01X157092Y26969D01*
G01X157056Y26929D01*
G01X157022Y26888D01*
G01X156989Y26846D01*
G01X156958Y26802D01*
G01X156929Y26757D01*
G01X156902Y26711D01*
G01X156876Y26663D01*
G01X157436Y26663D01*
G37*
G36*
G01X128962Y31218D02*
G01X127438Y31218D01*
G01X127414Y31217D01*
G01X127390Y31214D01*
G01X127368Y31208D01*
G01X127345Y31201D01*
G01X127323Y31191D01*
G01X127303Y31179D01*
G01X127283Y31166D01*
G01X127264Y31151D01*
G01X127248Y31134D01*
G01X127233Y31116D01*
G01X127219Y31097D01*
G01X127208Y31076D01*
G01X127198Y31054D01*
G01X127191Y31032D01*
G01X127185Y31009D01*
G01X127182Y30985D01*
G01X127181Y30961D01*
G01X127181Y29437D01*
G01X127182Y29414D01*
G01X127185Y29390D01*
G01X127191Y29367D01*
G01X127198Y29345D01*
G01X127208Y29323D01*
G01X127219Y29302D01*
G01X127233Y29283D01*
G01X127248Y29265D01*
G01X127264Y29248D01*
G01X127283Y29233D01*
G01X127303Y29220D01*
G01X127323Y29208D01*
G01X127345Y29198D01*
G01X127368Y29191D01*
G01X127390Y29186D01*
G01X127414Y29182D01*
G01X127438Y29181D01*
G01X128962Y29181D01*
G01X128985Y29182D01*
G01X129008Y29186D01*
G01X129032Y29191D01*
G01X129054Y29198D01*
G01X129076Y29208D01*
G01X129097Y29220D01*
G01X129116Y29233D01*
G01X129134Y29248D01*
G01X129151Y29265D01*
G01X129166Y29283D01*
G01X129180Y29302D01*
G01X129191Y29323D01*
G01X129201Y29345D01*
G01X129208Y29367D01*
G01X129214Y29390D01*
G01X129217Y29414D01*
G01X129218Y29437D01*
G01X129218Y29506D01*
G01X129219Y29521D01*
G01X129222Y29535D01*
G01X129227Y29549D01*
G01X129234Y29561D01*
G01X129243Y29573D01*
G01X129253Y29583D01*
G01X129265Y29592D01*
G01X129278Y29599D01*
G01X129291Y29604D01*
G01X129305Y29607D01*
G01X129320Y29608D01*
G01X129335Y29607D01*
G01X129350Y29603D01*
G01X129364Y29598D01*
G01X129377Y29590D01*
G01X129389Y29580D01*
G01X129400Y29569D01*
G01X129429Y29534D01*
G01X129460Y29499D01*
G01X129492Y29467D01*
G01X129526Y29435D01*
G01X129561Y29406D01*
G01X129598Y29378D01*
G01X129635Y29352D01*
G01X129674Y29327D01*
G01X129714Y29304D01*
G01X129755Y29283D01*
G01X129755Y29755D01*
G01X129320Y29755D01*
G01X129305Y29756D01*
G01X129291Y29759D01*
G01X129278Y29764D01*
G01X129265Y29771D01*
G01X129253Y29780D01*
G01X129243Y29790D01*
G01X129234Y29802D01*
G01X129227Y29814D01*
G01X129222Y29828D01*
G01X129219Y29842D01*
G01X129218Y29857D01*
G01X129218Y30542D01*
G01X129219Y30557D01*
G01X129222Y30571D01*
G01X129227Y30585D01*
G01X129234Y30597D01*
G01X129243Y30609D01*
G01X129253Y30619D01*
G01X129265Y30628D01*
G01X129278Y30635D01*
G01X129291Y30640D01*
G01X129305Y30643D01*
G01X129320Y30644D01*
G01X129755Y30644D01*
G01X129755Y31116D01*
G01X129714Y31095D01*
G01X129674Y31072D01*
G01X129635Y31047D01*
G01X129598Y31021D01*
G01X129561Y30993D01*
G01X129526Y30964D01*
G01X129492Y30932D01*
G01X129460Y30900D01*
G01X129429Y30865D01*
G01X129400Y30830D01*
G01X129389Y30819D01*
G01X129377Y30809D01*
G01X129364Y30801D01*
G01X129350Y30796D01*
G01X129335Y30792D01*
G01X129320Y30791D01*
G01X129305Y30792D01*
G01X129291Y30795D01*
G01X129278Y30800D01*
G01X129265Y30807D01*
G01X129253Y30816D01*
G01X129243Y30826D01*
G01X129234Y30838D01*
G01X129227Y30851D01*
G01X129222Y30864D01*
G01X129219Y30878D01*
G01X129218Y30893D01*
G01X129218Y30961D01*
G01X129217Y30985D01*
G01X129214Y31009D01*
G01X129208Y31032D01*
G01X129201Y31054D01*
G01X129191Y31076D01*
G01X129180Y31097D01*
G01X129166Y31116D01*
G01X129151Y31134D01*
G01X129134Y31151D01*
G01X129116Y31166D01*
G01X129097Y31179D01*
G01X129076Y31191D01*
G01X129054Y31201D01*
G01X129032Y31208D01*
G01X129008Y31214D01*
G01X128985Y31217D01*
G01X128962Y31218D01*
G37*
G36*
G01X132246Y31217D02*
G01X132200Y31218D01*
G01X132153Y31217D01*
G01X132106Y31214D01*
G01X132060Y31208D01*
G01X132013Y31201D01*
G01X131968Y31191D01*
G01X131922Y31179D01*
G01X131878Y31166D01*
G01X131833Y31150D01*
G01X131790Y31132D01*
G01X131748Y31112D01*
G01X131706Y31091D01*
G01X131666Y31067D01*
G01X131626Y31042D01*
G01X131588Y31014D01*
G01X131552Y30985D01*
G01X131516Y30955D01*
G01X131482Y30922D01*
G01X131449Y30889D01*
G01X131419Y30854D01*
G01X131389Y30817D01*
G01X131362Y30779D01*
G01X131336Y30740D01*
G01X131312Y30700D01*
G01X131290Y30658D01*
G01X131282Y30644D01*
G01X131271Y30632D01*
G01X131259Y30622D01*
G01X131245Y30614D01*
G01X131230Y30607D01*
G01X131214Y30604D01*
G01X131223Y30590D01*
G01X131229Y30575D01*
G01X131234Y30559D01*
G01X131235Y30542D01*
G01X131234Y30527D01*
G01X131230Y30511D01*
G01X131215Y30461D01*
G01X131203Y30409D01*
G01X131193Y30357D01*
G01X131186Y30305D01*
G01X131182Y30252D01*
G01X131181Y30199D01*
G01X131182Y30147D01*
G01X131186Y30094D01*
G01X131193Y30042D01*
G01X131203Y29990D01*
G01X131215Y29938D01*
G01X131230Y29888D01*
G01X131234Y29872D01*
G01X131235Y29857D01*
G01X131234Y29840D01*
G01X131229Y29825D01*
G01X131223Y29809D01*
G01X131214Y29796D01*
G01X131230Y29792D01*
G01X131245Y29785D01*
G01X131259Y29777D01*
G01X131271Y29767D01*
G01X131282Y29754D01*
G01X131290Y29741D01*
G01X131312Y29699D01*
G01X131336Y29659D01*
G01X131362Y29620D01*
G01X131389Y29582D01*
G01X131449Y29510D01*
G01X131482Y29477D01*
G01X131516Y29445D01*
G01X131552Y29414D01*
G01X131588Y29385D01*
G01X131626Y29358D01*
G01X131666Y29332D01*
G01X131706Y29308D01*
G01X131748Y29287D01*
G01X131790Y29267D01*
G01X131833Y29249D01*
G01X131878Y29233D01*
G01X131922Y29220D01*
G01X131968Y29208D01*
G01X132013Y29198D01*
G01X132060Y29191D01*
G01X132106Y29186D01*
G01X132153Y29182D01*
G01X132200Y29181D01*
G01X132246Y29182D01*
G01X132293Y29186D01*
G01X132339Y29191D01*
G01X132386Y29198D01*
G01X132432Y29208D01*
G01X132477Y29220D01*
G01X132522Y29233D01*
G01X132566Y29249D01*
G01X132609Y29267D01*
G01X132651Y29287D01*
G01X132693Y29308D01*
G01X132734Y29332D01*
G01X132773Y29358D01*
G01X132811Y29385D01*
G01X132847Y29414D01*
G01X132883Y29445D01*
G01X132917Y29477D01*
G01X132950Y29510D01*
G01X132981Y29546D01*
G01X133009Y29582D01*
G01X133037Y29620D01*
G01X133063Y29659D01*
G01X133087Y29699D01*
G01X133109Y29741D01*
G01X133117Y29754D01*
G01X133127Y29767D01*
G01X133140Y29777D01*
G01X133153Y29785D01*
G01X133168Y29792D01*
G01X133184Y29795D01*
G01X133199Y29797D01*
G01X133216Y29795D01*
G01X133231Y29792D01*
G01X133246Y29785D01*
G01X133259Y29777D01*
G01X133272Y29767D01*
G01X133282Y29754D01*
G01X133290Y29741D01*
G01X133312Y29699D01*
G01X133336Y29659D01*
G01X133362Y29620D01*
G01X133389Y29582D01*
G01X133449Y29510D01*
G01X133482Y29477D01*
G01X133516Y29445D01*
G01X133552Y29414D01*
G01X133588Y29385D01*
G01X133626Y29358D01*
G01X133666Y29332D01*
G01X133706Y29308D01*
G01X133748Y29287D01*
G01X133790Y29267D01*
G01X133833Y29249D01*
G01X133878Y29233D01*
G01X133922Y29220D01*
G01X133968Y29208D01*
G01X134013Y29198D01*
G01X134060Y29191D01*
G01X134106Y29186D01*
G01X134153Y29182D01*
G01X134200Y29181D01*
G01X134246Y29182D01*
G01X134293Y29186D01*
G01X134339Y29191D01*
G01X134386Y29198D01*
G01X134432Y29208D01*
G01X134477Y29220D01*
G01X134522Y29233D01*
G01X134566Y29249D01*
G01X134609Y29267D01*
G01X134651Y29287D01*
G01X134693Y29308D01*
G01X134734Y29332D01*
G01X134773Y29358D01*
G01X134811Y29385D01*
G01X134847Y29414D01*
G01X134883Y29445D01*
G01X134917Y29477D01*
G01X134950Y29510D01*
G01X134981Y29546D01*
G01X135009Y29582D01*
G01X135037Y29620D01*
G01X135063Y29659D01*
G01X135087Y29699D01*
G01X135109Y29741D01*
G01X135117Y29754D01*
G01X135127Y29767D01*
G01X135140Y29777D01*
G01X135153Y29785D01*
G01X135168Y29792D01*
G01X135184Y29795D01*
G01X135199Y29797D01*
G01X135216Y29795D01*
G01X135231Y29792D01*
G01X135246Y29785D01*
G01X135259Y29777D01*
G01X135272Y29767D01*
G01X135282Y29754D01*
G01X135290Y29741D01*
G01X135312Y29699D01*
G01X135336Y29659D01*
G01X135362Y29620D01*
G01X135389Y29582D01*
G01X135449Y29510D01*
G01X135482Y29477D01*
G01X135516Y29445D01*
G01X135552Y29414D01*
G01X135588Y29385D01*
G01X135626Y29358D01*
G01X135666Y29332D01*
G01X135706Y29308D01*
G01X135748Y29287D01*
G01X135790Y29267D01*
G01X135833Y29249D01*
G01X135878Y29233D01*
G01X135922Y29220D01*
G01X135968Y29208D01*
G01X136013Y29198D01*
G01X136060Y29191D01*
G01X136106Y29186D01*
G01X136153Y29182D01*
G01X136200Y29181D01*
G01X136245Y29182D01*
G01X136291Y29185D01*
G01X136336Y29190D01*
G01X136382Y29197D01*
G01X136426Y29206D01*
G01X136470Y29218D01*
G01X136514Y29231D01*
G01X136557Y29246D01*
G01X136600Y29263D01*
G01X136642Y29282D01*
G01X136682Y29303D01*
G01X136722Y29325D01*
G01X136761Y29350D01*
G01X136798Y29376D01*
G01X136835Y29403D01*
G01X136870Y29432D01*
G01X136903Y29463D01*
G01X136936Y29496D01*
G01X136967Y29529D01*
G01X136996Y29564D01*
G01X137024Y29601D01*
G01X137050Y29639D01*
G01X137074Y29677D01*
G01X137096Y29717D01*
G01X137117Y29758D01*
G01X137136Y29799D01*
G01X137153Y29842D01*
G01X137168Y29885D01*
G01X137181Y29929D01*
G01X137192Y29973D01*
G01X137201Y30018D01*
G01X137209Y30063D01*
G01X137214Y30108D01*
G01X137217Y30154D01*
G01X137218Y30199D01*
G01X137217Y30245D01*
G01X137214Y30291D01*
G01X137209Y30336D01*
G01X137201Y30381D01*
G01X137192Y30426D01*
G01X137181Y30471D01*
G01X137168Y30514D01*
G01X137153Y30558D01*
G01X137136Y30600D01*
G01X137117Y30641D01*
G01X137096Y30682D01*
G01X137074Y30722D01*
G01X137050Y30761D01*
G01X137024Y30798D01*
G01X136996Y30834D01*
G01X136967Y30870D01*
G01X136936Y30904D01*
G01X136903Y30936D01*
G01X136870Y30967D01*
G01X136835Y30996D01*
G01X136798Y31023D01*
G01X136761Y31049D01*
G01X136722Y31074D01*
G01X136682Y31097D01*
G01X136642Y31117D01*
G01X136600Y31136D01*
G01X136557Y31153D01*
G01X136514Y31168D01*
G01X136470Y31181D01*
G01X136426Y31193D01*
G01X136382Y31202D01*
G01X136336Y31209D01*
G01X136291Y31214D01*
G01X136245Y31217D01*
G01X136200Y31218D01*
G01X136153Y31217D01*
G01X136106Y31214D01*
G01X136060Y31208D01*
G01X136013Y31201D01*
G01X135968Y31191D01*
G01X135922Y31179D01*
G01X135878Y31166D01*
G01X135833Y31150D01*
G01X135790Y31132D01*
G01X135748Y31112D01*
G01X135706Y31091D01*
G01X135666Y31067D01*
G01X135626Y31042D01*
G01X135588Y31014D01*
G01X135552Y30985D01*
G01X135516Y30955D01*
G01X135482Y30922D01*
G01X135449Y30889D01*
G01X135419Y30854D01*
G01X135389Y30817D01*
G01X135362Y30779D01*
G01X135336Y30740D01*
G01X135312Y30700D01*
G01X135290Y30658D01*
G01X135282Y30645D01*
G01X135272Y30633D01*
G01X135259Y30622D01*
G01X135246Y30614D01*
G01X135231Y30607D01*
G01X135216Y30604D01*
G01X135199Y30603D01*
G01X135184Y30604D01*
G01X135168Y30607D01*
G01X135153Y30614D01*
G01X135140Y30622D01*
G01X135127Y30633D01*
G01X135117Y30645D01*
G01X135109Y30658D01*
G01X135087Y30700D01*
G01X135063Y30740D01*
G01X135037Y30779D01*
G01X135009Y30817D01*
G01X134981Y30854D01*
G01X134950Y30889D01*
G01X134917Y30922D01*
G01X134883Y30955D01*
G01X134847Y30985D01*
G01X134811Y31014D01*
G01X134773Y31042D01*
G01X134734Y31067D01*
G01X134693Y31091D01*
G01X134651Y31112D01*
G01X134609Y31132D01*
G01X134566Y31150D01*
G01X134522Y31166D01*
G01X134477Y31179D01*
G01X134432Y31191D01*
G01X134386Y31201D01*
G01X134339Y31208D01*
G01X134293Y31214D01*
G01X134246Y31217D01*
G01X134200Y31218D01*
G01X134153Y31217D01*
G01X134106Y31214D01*
G01X134060Y31208D01*
G01X134013Y31201D01*
G01X133968Y31191D01*
G01X133922Y31179D01*
G01X133878Y31166D01*
G01X133833Y31150D01*
G01X133790Y31132D01*
G01X133748Y31112D01*
G01X133706Y31091D01*
G01X133666Y31067D01*
G01X133626Y31042D01*
G01X133588Y31014D01*
G01X133552Y30985D01*
G01X133516Y30955D01*
G01X133482Y30922D01*
G01X133449Y30889D01*
G01X133419Y30854D01*
G01X133389Y30817D01*
G01X133362Y30779D01*
G01X133336Y30740D01*
G01X133312Y30700D01*
G01X133290Y30658D01*
G01X133282Y30645D01*
G01X133272Y30633D01*
G01X133259Y30622D01*
G01X133246Y30614D01*
G01X133231Y30607D01*
G01X133216Y30604D01*
G01X133199Y30603D01*
G01X133184Y30604D01*
G01X133168Y30607D01*
G01X133153Y30614D01*
G01X133140Y30622D01*
G01X133127Y30633D01*
G01X133117Y30645D01*
G01X133109Y30658D01*
G01X133087Y30700D01*
G01X133063Y30740D01*
G01X133037Y30779D01*
G01X133009Y30817D01*
G01X132981Y30854D01*
G01X132950Y30889D01*
G01X132917Y30922D01*
G01X132883Y30955D01*
G01X132847Y30985D01*
G01X132811Y31014D01*
G01X132773Y31042D01*
G01X132734Y31067D01*
G01X132693Y31091D01*
G01X132651Y31112D01*
G01X132609Y31132D01*
G01X132566Y31150D01*
G01X132522Y31166D01*
G01X132477Y31179D01*
G01X132432Y31191D01*
G01X132386Y31201D01*
G01X132339Y31208D01*
G01X132293Y31214D01*
G01X132246Y31217D01*
G37*
G36*
G01X131118Y29755D02*
G01X130644Y29755D01*
G01X130644Y29283D01*
G01X130686Y29305D01*
G01X130728Y29328D01*
G01X130767Y29354D01*
G01X130806Y29381D01*
G01X130843Y29411D01*
G01X130879Y29441D01*
G01X130914Y29474D01*
G01X130947Y29508D01*
G01X130978Y29543D01*
G01X131008Y29580D01*
G01X131036Y29618D01*
G01X131062Y29658D01*
G01X131087Y29699D01*
G01X131109Y29741D01*
G01X131118Y29755D01*
G37*
G36*
G01X130686Y31094D02*
G01X130644Y31116D01*
G01X130644Y30644D01*
G01X131118Y30644D01*
G01X131109Y30658D01*
G01X131087Y30700D01*
G01X131062Y30741D01*
G01X131036Y30781D01*
G01X131008Y30819D01*
G01X130978Y30856D01*
G01X130947Y30891D01*
G01X130914Y30925D01*
G01X130879Y30958D01*
G01X130843Y30989D01*
G01X130806Y31018D01*
G01X130767Y31045D01*
G01X130728Y31071D01*
G01X130686Y31094D01*
G37*
G36*
G01X33578Y51505D02*
G01X33499Y51506D01*
G01X33421Y51505D01*
G01X33342Y51502D01*
G01X33264Y51497D01*
G01X33185Y51490D01*
G01X33107Y51480D01*
G01X33029Y51469D01*
G01X32952Y51456D01*
G01X32875Y51440D01*
G01X32798Y51423D01*
G01X32721Y51403D01*
G01X32645Y51382D01*
G01X32570Y51359D01*
G01X32496Y51334D01*
G01X32422Y51306D01*
G01X32349Y51277D01*
G01X32277Y51246D01*
G01X32205Y51213D01*
G01X32134Y51178D01*
G01X32065Y51142D01*
G01X31996Y51103D01*
G01X31929Y51063D01*
G01X31862Y51021D01*
G01X31797Y50977D01*
G01X31733Y50932D01*
G01X31669Y50885D01*
G01X31608Y50836D01*
G01X31547Y50786D01*
G01X31488Y50734D01*
G01X31430Y50681D01*
G01X31373Y50626D01*
G01X31319Y50569D01*
G01X31265Y50511D01*
G01X31213Y50452D01*
G01X31163Y50391D01*
G01X31114Y50330D01*
G01X31067Y50267D01*
G01X31022Y50202D01*
G01X30978Y50137D01*
G01X30936Y50070D01*
G01X30896Y50003D01*
G01X30857Y49934D01*
G01X30821Y49865D01*
G01X30786Y49794D01*
G01X30753Y49722D01*
G01X30722Y49650D01*
G01X30693Y49577D01*
G01X30665Y49503D01*
G01X30640Y49429D01*
G01X30617Y49354D01*
G01X30596Y49278D01*
G01X30576Y49201D01*
G01X30559Y49125D01*
G01X30543Y49047D01*
G01X30530Y48970D01*
G01X30519Y48892D01*
G01X30509Y48814D01*
G01X30502Y48735D01*
G01X30497Y48657D01*
G01X30494Y48578D01*
G01X30493Y48500D01*
G01X30494Y48421D01*
G01X30497Y48342D01*
G01X30502Y48263D01*
G01X30509Y48185D01*
G01X30519Y48107D01*
G01X30530Y48029D01*
G01X30543Y47952D01*
G01X30559Y47874D01*
G01X30576Y47798D01*
G01X30596Y47721D01*
G01X30617Y47646D01*
G01X30640Y47571D01*
G01X30665Y47496D01*
G01X30693Y47422D01*
G01X30722Y47349D01*
G01X30753Y47277D01*
G01X30786Y47205D01*
G01X30821Y47135D01*
G01X30857Y47065D01*
G01X30896Y46997D01*
G01X30936Y46928D01*
G01X30978Y46862D01*
G01X31022Y46797D01*
G01X31067Y46732D01*
G01X31114Y46669D01*
G01X31163Y46607D01*
G01X31213Y46547D01*
G01X31265Y46488D01*
G01X31319Y46430D01*
G01X31373Y46374D01*
G01X31430Y46319D01*
G01X31488Y46265D01*
G01X31547Y46213D01*
G01X31608Y46163D01*
G01X31669Y46114D01*
G01X31733Y46067D01*
G01X31797Y46022D01*
G01X31862Y45978D01*
G01X31929Y45936D01*
G01X31996Y45896D01*
G01X32134Y45820D01*
G01X32205Y45786D01*
G01X32277Y45753D01*
G01X32349Y45722D01*
G01X32422Y45692D01*
G01X32570Y45640D01*
G01X32645Y45617D01*
G01X32721Y45595D01*
G01X32798Y45576D01*
G01X32875Y45559D01*
G01X32952Y45543D01*
G01X33029Y45530D01*
G01X33107Y45519D01*
G01X33185Y45510D01*
G01X33264Y45502D01*
G01X33342Y45497D01*
G01X33421Y45494D01*
G01X33499Y45493D01*
G01X33578Y45494D01*
G01X33657Y45497D01*
G01X33736Y45502D01*
G01X33814Y45510D01*
G01X33892Y45519D01*
G01X33970Y45530D01*
G01X34048Y45543D01*
G01X34125Y45559D01*
G01X34201Y45576D01*
G01X34278Y45595D01*
G01X34353Y45617D01*
G01X34429Y45640D01*
G01X34577Y45692D01*
G01X34650Y45722D01*
G01X34722Y45753D01*
G01X34794Y45786D01*
G01X34864Y45820D01*
G01X34934Y45858D01*
G01X35003Y45896D01*
G01X35071Y45936D01*
G01X35137Y45978D01*
G01X35202Y46022D01*
G01X35267Y46067D01*
G01X35330Y46114D01*
G01X35392Y46163D01*
G01X35452Y46213D01*
G01X35511Y46265D01*
G01X35569Y46319D01*
G01X35625Y46374D01*
G01X35680Y46430D01*
G01X35734Y46488D01*
G01X35786Y46547D01*
G01X35836Y46607D01*
G01X35885Y46669D01*
G01X35932Y46732D01*
G01X35977Y46797D01*
G01X36021Y46862D01*
G01X36063Y46928D01*
G01X36103Y46997D01*
G01X36141Y47065D01*
G01X36179Y47135D01*
G01X36213Y47205D01*
G01X36246Y47277D01*
G01X36277Y47349D01*
G01X36307Y47422D01*
G01X36334Y47496D01*
G01X36359Y47571D01*
G01X36382Y47646D01*
G01X36404Y47721D01*
G01X36423Y47798D01*
G01X36440Y47874D01*
G01X36456Y47952D01*
G01X36469Y48029D01*
G01X36480Y48107D01*
G01X36489Y48185D01*
G01X36497Y48263D01*
G01X36502Y48342D01*
G01X36505Y48421D01*
G01X36506Y48500D01*
G01X36505Y48578D01*
G01X36502Y48657D01*
G01X36497Y48735D01*
G01X36489Y48814D01*
G01X36480Y48892D01*
G01X36469Y48970D01*
G01X36456Y49047D01*
G01X36440Y49125D01*
G01X36423Y49201D01*
G01X36404Y49278D01*
G01X36382Y49354D01*
G01X36359Y49429D01*
G01X36334Y49503D01*
G01X36307Y49577D01*
G01X36277Y49650D01*
G01X36246Y49722D01*
G01X36213Y49794D01*
G01X36179Y49865D01*
G01X36103Y50003D01*
G01X36063Y50070D01*
G01X36021Y50137D01*
G01X35977Y50202D01*
G01X35932Y50267D01*
G01X35885Y50330D01*
G01X35836Y50391D01*
G01X35786Y50452D01*
G01X35734Y50511D01*
G01X35680Y50569D01*
G01X35625Y50626D01*
G01X35569Y50681D01*
G01X35511Y50734D01*
G01X35452Y50786D01*
G01X35392Y50836D01*
G01X35330Y50885D01*
G01X35267Y50932D01*
G01X35202Y50977D01*
G01X35137Y51021D01*
G01X35071Y51063D01*
G01X35003Y51103D01*
G01X34934Y51142D01*
G01X34864Y51178D01*
G01X34794Y51213D01*
G01X34722Y51246D01*
G01X34650Y51277D01*
G01X34577Y51306D01*
G01X34503Y51334D01*
G01X34429Y51359D01*
G01X34353Y51382D01*
G01X34278Y51403D01*
G01X34201Y51423D01*
G01X34125Y51440D01*
G01X34048Y51456D01*
G01X33970Y51469D01*
G01X33892Y51480D01*
G01X33814Y51490D01*
G01X33736Y51497D01*
G01X33657Y51502D01*
G01X33578Y51505D01*
G37*
G36*
G01X117578Y51505D02*
G01X117500Y51506D01*
G01X117421Y51505D01*
G01X117342Y51502D01*
G01X117264Y51497D01*
G01X117185Y51490D01*
G01X117107Y51480D01*
G01X117029Y51469D01*
G01X116952Y51456D01*
G01X116874Y51440D01*
G01X116798Y51423D01*
G01X116721Y51403D01*
G01X116646Y51382D01*
G01X116571Y51359D01*
G01X116496Y51334D01*
G01X116422Y51306D01*
G01X116349Y51277D01*
G01X116276Y51246D01*
G01X116205Y51213D01*
G01X116135Y51178D01*
G01X116065Y51142D01*
G01X115997Y51103D01*
G01X115928Y51063D01*
G01X115862Y51021D01*
G01X115796Y50977D01*
G01X115732Y50932D01*
G01X115669Y50885D01*
G01X115607Y50836D01*
G01X115547Y50786D01*
G01X115488Y50734D01*
G01X115430Y50681D01*
G01X115374Y50626D01*
G01X115319Y50569D01*
G01X115265Y50511D01*
G01X115213Y50452D01*
G01X115163Y50391D01*
G01X115114Y50330D01*
G01X115067Y50267D01*
G01X115022Y50202D01*
G01X114978Y50137D01*
G01X114936Y50070D01*
G01X114896Y50003D01*
G01X114858Y49934D01*
G01X114821Y49865D01*
G01X114786Y49794D01*
G01X114753Y49722D01*
G01X114722Y49650D01*
G01X114693Y49577D01*
G01X114666Y49503D01*
G01X114640Y49429D01*
G01X114617Y49354D01*
G01X114595Y49278D01*
G01X114576Y49201D01*
G01X114559Y49125D01*
G01X114543Y49047D01*
G01X114530Y48970D01*
G01X114519Y48892D01*
G01X114510Y48814D01*
G01X114503Y48735D01*
G01X114497Y48657D01*
G01X114494Y48578D01*
G01X114493Y48500D01*
G01X114494Y48421D01*
G01X114497Y48342D01*
G01X114503Y48263D01*
G01X114510Y48185D01*
G01X114519Y48107D01*
G01X114530Y48029D01*
G01X114543Y47952D01*
G01X114559Y47874D01*
G01X114576Y47798D01*
G01X114595Y47721D01*
G01X114617Y47646D01*
G01X114640Y47571D01*
G01X114666Y47496D01*
G01X114693Y47422D01*
G01X114722Y47349D01*
G01X114753Y47277D01*
G01X114786Y47205D01*
G01X114821Y47135D01*
G01X114858Y47065D01*
G01X114896Y46997D01*
G01X114936Y46928D01*
G01X114978Y46862D01*
G01X115022Y46797D01*
G01X115067Y46732D01*
G01X115114Y46669D01*
G01X115163Y46607D01*
G01X115213Y46547D01*
G01X115265Y46488D01*
G01X115319Y46430D01*
G01X115374Y46374D01*
G01X115430Y46319D01*
G01X115488Y46265D01*
G01X115547Y46213D01*
G01X115607Y46163D01*
G01X115669Y46114D01*
G01X115732Y46067D01*
G01X115796Y46022D01*
G01X115862Y45978D01*
G01X115928Y45936D01*
G01X115997Y45896D01*
G01X116065Y45858D01*
G01X116135Y45820D01*
G01X116205Y45786D01*
G01X116276Y45753D01*
G01X116349Y45722D01*
G01X116422Y45692D01*
G01X116496Y45666D01*
G01X116571Y45640D01*
G01X116646Y45617D01*
G01X116721Y45595D01*
G01X116798Y45576D01*
G01X116874Y45559D01*
G01X116952Y45543D01*
G01X117029Y45530D01*
G01X117107Y45519D01*
G01X117185Y45510D01*
G01X117264Y45502D01*
G01X117342Y45497D01*
G01X117421Y45494D01*
G01X117500Y45493D01*
G01X117578Y45494D01*
G01X117657Y45497D01*
G01X117735Y45502D01*
G01X117814Y45510D01*
G01X117892Y45519D01*
G01X117970Y45530D01*
G01X118047Y45543D01*
G01X118125Y45559D01*
G01X118201Y45576D01*
G01X118277Y45595D01*
G01X118354Y45617D01*
G01X118429Y45640D01*
G01X118577Y45692D01*
G01X118650Y45722D01*
G01X118722Y45753D01*
G01X118794Y45786D01*
G01X118865Y45820D01*
G01X119003Y45896D01*
G01X119070Y45936D01*
G01X119137Y45978D01*
G01X119203Y46022D01*
G01X119267Y46067D01*
G01X119330Y46114D01*
G01X119392Y46163D01*
G01X119452Y46213D01*
G01X119511Y46265D01*
G01X119569Y46319D01*
G01X119626Y46374D01*
G01X119681Y46430D01*
G01X119734Y46488D01*
G01X119786Y46547D01*
G01X119836Y46607D01*
G01X119885Y46669D01*
G01X119932Y46732D01*
G01X119977Y46797D01*
G01X120021Y46862D01*
G01X120063Y46928D01*
G01X120103Y46997D01*
G01X120142Y47065D01*
G01X120178Y47135D01*
G01X120213Y47205D01*
G01X120246Y47277D01*
G01X120277Y47349D01*
G01X120306Y47422D01*
G01X120334Y47496D01*
G01X120359Y47571D01*
G01X120382Y47646D01*
G01X120403Y47721D01*
G01X120423Y47798D01*
G01X120441Y47874D01*
G01X120456Y47952D01*
G01X120469Y48029D01*
G01X120480Y48107D01*
G01X120490Y48185D01*
G01X120497Y48263D01*
G01X120502Y48342D01*
G01X120505Y48421D01*
G01X120506Y48500D01*
G01X120505Y48578D01*
G01X120502Y48657D01*
G01X120497Y48735D01*
G01X120490Y48814D01*
G01X120480Y48892D01*
G01X120469Y48970D01*
G01X120456Y49047D01*
G01X120441Y49125D01*
G01X120423Y49201D01*
G01X120403Y49278D01*
G01X120382Y49354D01*
G01X120359Y49429D01*
G01X120334Y49503D01*
G01X120306Y49577D01*
G01X120277Y49650D01*
G01X120246Y49722D01*
G01X120213Y49794D01*
G01X120178Y49865D01*
G01X120142Y49934D01*
G01X120103Y50003D01*
G01X120063Y50070D01*
G01X120021Y50137D01*
G01X119977Y50202D01*
G01X119932Y50267D01*
G01X119885Y50330D01*
G01X119836Y50391D01*
G01X119786Y50452D01*
G01X119734Y50511D01*
G01X119681Y50569D01*
G01X119626Y50626D01*
G01X119569Y50681D01*
G01X119511Y50734D01*
G01X119452Y50786D01*
G01X119392Y50836D01*
G01X119330Y50885D01*
G01X119267Y50932D01*
G01X119203Y50977D01*
G01X119137Y51021D01*
G01X119070Y51063D01*
G01X119003Y51103D01*
G01X118934Y51142D01*
G01X118865Y51178D01*
G01X118794Y51213D01*
G01X118722Y51246D01*
G01X118650Y51277D01*
G01X118577Y51306D01*
G01X118503Y51334D01*
G01X118429Y51359D01*
G01X118354Y51382D01*
G01X118277Y51403D01*
G01X118201Y51423D01*
G01X118125Y51440D01*
G01X118047Y51456D01*
G01X117970Y51469D01*
G01X117892Y51480D01*
G01X117814Y51490D01*
G01X117735Y51497D01*
G01X117657Y51502D01*
G01X117578Y51505D01*
G37*

%LPD*%
G54D16*
G01X33500Y48499D03*
G01X117499Y48499D03*
G01X33500Y4500D03*
G01X117499Y4500D03*
G54D17*
G01X142281Y26499D03*
G54D18*
G01X146599Y26499D03*
G01X150917Y26499D03*
G54D17*
G01X4082Y26499D03*
G54D18*
G01X8399Y26499D03*
G01X12717Y26499D03*
G54D12*
G01X168000Y26099D03*
G01X163000Y26099D03*
G01X158000Y26099D03*
G54D19*
G01X128199Y30199D03*
G54D20*
G01X130199Y30199D03*
G01X132199Y30199D03*
G01X134199Y30199D03*
G01X136199Y30199D03*
G54D21*
G01X22370Y27499D03*
G01X19830Y27499D03*
G54D14*
G01X57699Y27099D03*
G01X74199Y27199D03*
G01X96299Y35400D03*
G01X96299Y19200D03*
G01X156800Y27499D03*
M00*
M02*
