G04 Layer: TopSolderMaskLayer*
G04 EasyEDA v6.3.39, 2020-04-24T10:39:31-10:00*
G04 0f25efb224964ab9abe88dfcb523e386,a4d28be01f944deba2cf7c63a1f3ff09,10*
G04 Gerber Generator version 0.2*
G04 Scale: 100 percent, Rotated: No, Reflected: No *
G04 Dimensions in millimeters *
G04 leading zeros omitted , absolute positions ,3 integer and 3 decimal *
%FSLAX33Y33*%
%MOMM*%
G90*
G71D02*

%ADD25C,5.703189*%
%ADD27C,2.403196*%
%ADD29C,2.203196*%
%ADD31C,1.727200*%
%ADD32C,2.003196*%

%LPD*%
G54D25*
G01X33500Y48499D03*
G01X117499Y48499D03*
G01X33500Y4500D03*
G01X117499Y4500D03*
G36*
G01X141080Y25298D02*
G01X141080Y27701D01*
G01X143482Y27701D01*
G01X143482Y25298D01*
G01X141080Y25298D01*
G37*
G54D27*
G01X146599Y26499D03*
G01X150917Y26499D03*
G36*
G01X2881Y25298D02*
G01X2881Y27701D01*
G01X5284Y27701D01*
G01X5284Y25298D01*
G01X2881Y25298D01*
G37*
G01X8399Y26499D03*
G01X12717Y26499D03*
G36*
G01X54100Y20048D02*
G01X54100Y21750D01*
G01X55301Y21750D01*
G01X55301Y20048D01*
G01X54100Y20048D01*
G37*
G36*
G01X57100Y20048D02*
G01X57100Y21750D01*
G01X58301Y21750D01*
G01X58301Y20048D01*
G01X57100Y20048D01*
G37*
G36*
G01X57100Y25047D02*
G01X57100Y26751D01*
G01X58301Y26751D01*
G01X58301Y25047D01*
G01X57100Y25047D01*
G37*
G36*
G01X54100Y25047D02*
G01X54100Y26751D01*
G01X55301Y26751D01*
G01X55301Y25047D01*
G01X54100Y25047D01*
G37*
G36*
G01X70600Y20048D02*
G01X70600Y21750D01*
G01X71801Y21750D01*
G01X71801Y20048D01*
G01X70600Y20048D01*
G37*
G36*
G01X73599Y20048D02*
G01X73599Y21750D01*
G01X74801Y21750D01*
G01X74801Y20048D01*
G01X73599Y20048D01*
G37*
G36*
G01X73599Y25047D02*
G01X73599Y26751D01*
G01X74801Y26751D01*
G01X74801Y25047D01*
G01X73599Y25047D01*
G37*
G36*
G01X70600Y25047D02*
G01X70600Y26751D01*
G01X71801Y26751D01*
G01X71801Y25047D01*
G01X70600Y25047D01*
G37*
G36*
G01X92700Y28349D02*
G01X92700Y30051D01*
G01X93902Y30051D01*
G01X93902Y28349D01*
G01X92700Y28349D01*
G37*
G36*
G01X95700Y28349D02*
G01X95700Y30051D01*
G01X96901Y30051D01*
G01X96901Y28349D01*
G01X95700Y28349D01*
G37*
G36*
G01X95700Y33348D02*
G01X95700Y35052D01*
G01X96901Y35052D01*
G01X96901Y33348D01*
G01X95700Y33348D01*
G37*
G36*
G01X92700Y33348D02*
G01X92700Y35052D01*
G01X93902Y35052D01*
G01X93902Y33348D01*
G01X92700Y33348D01*
G37*
G36*
G01X92700Y11747D02*
G01X92700Y13449D01*
G01X93902Y13449D01*
G01X93902Y11747D01*
G01X92700Y11747D01*
G37*
G36*
G01X95700Y11747D02*
G01X95700Y13449D01*
G01X96901Y13449D01*
G01X96901Y11747D01*
G01X95700Y11747D01*
G37*
G36*
G01X95700Y16746D02*
G01X95700Y18450D01*
G01X96901Y18450D01*
G01X96901Y16746D01*
G01X95700Y16746D01*
G37*
G36*
G01X92700Y16746D02*
G01X92700Y18450D01*
G01X93902Y18450D01*
G01X93902Y16746D01*
G01X92700Y16746D01*
G37*
G54D29*
G01X168000Y26099D03*
G01X163000Y26099D03*
G01X158000Y26099D03*
G36*
G01X127336Y29337D02*
G01X127336Y31064D01*
G01X129063Y31064D01*
G01X129063Y29337D01*
G01X127336Y29337D01*
G37*
G54D31*
G01X130199Y30199D03*
G01X132199Y30199D03*
G01X134199Y30199D03*
G01X136199Y30199D03*
G54D32*
G01X22370Y27499D03*
G01X19830Y27499D03*
M00*
M02*
